<?xml version="1.0" encoding="UTF-8" standalone="no"?><svg xmlns="http://www.w3.org/2000/svg" xmlns:xlink="http://www.w3.org/1999/xlink" fill="#000000" height="468.4" preserveAspectRatio="xMidYMid meet" version="1" viewBox="302.3 166.7 395.3 468.4" width="395.3" zoomAndPan="magnify"><g><g id="change1_1"><path d="M 319.519531 535.828125 C 313.695312 520.75 302.339844 501.96875 302.339844 501.96875 C 338.261719 511.335938 388.679688 518.886719 444.761719 522.351562 C 555.40625 529.1875 646.164062 517.53125 647.476562 496.316406 C 647.695312 492.792969 645.417969 489.226562 640.984375 485.699219 C 656.640625 489.78125 669.535156 494.210938 678.953125 498.792969 C 685.011719 501.925781 697.035156 509.710938 697.625 522.335938 C 697.636719 551.722656 697.648438 581.109375 697.660156 610.492188 C 697.667969 619.816406 694.730469 632.308594 685.40625 632.296875 C 676.722656 632.285156 673.304688 621.253906 671.933594 612.679688 C 669.078125 594.785156 664.203125 577.210938 657.433594 560.402344 L 657.324219 560.136719 C 652.371094 548.003906 634.640625 549.496094 631.726562 562.273438 C 630.449219 567.863281 629.546875 573.539062 629.027344 579.25 C 628.378906 586.359375 628.230469 593.851562 622.992188 599.476562 C 620.648438 601.988281 617.28125 603.417969 613.878906 602.941406 C 606.484375 601.910156 604.320312 593.574219 604.851562 586.78125 C 605.332031 580.660156 607.097656 574.304688 604.988281 568.539062 C 601.277344 558.390625 588.300781 555.871094 577.511719 555.273438 C 567.34375 554.707031 556.414062 554.636719 547.929688 560.269531 C 537.734375 567.046875 534.027344 579.9375 529.765625 591.417969 C 521.847656 612.734375 504.742188 635.105469 482.082031 633.179688 C 466.378906 631.847656 454.015625 618.84375 446.796875 604.835938 C 439.574219 590.828125 435.910156 575.183594 428.46875 561.292969 C 422.472656 550.089844 411.488281 539.15625 398.96875 541.328125 C 389.898438 542.898438 383.308594 551.019531 379.726562 559.503906 C 376.148438 567.988281 374.707031 577.257812 371.058594 585.710938 C 367.375 594.238281 361.445312 601.785156 354.03125 607.378906 C 350.648438 609.933594 346.6875 612.160156 342.453125 611.976562 C 336.332031 611.714844 331.433594 606.375 329.46875 600.570312 C 327.503906 594.769531 327.777344 588.492188 327.609375 582.367188 C 327.558594 580.464844 327.453125 578.5625 327.308594 576.664062 L 327.3125 576.667969 C 326.878906 561.257812 323.582031 547.351562 319.519531 535.828125" fill="#010101"/></g><g id="change1_2"><path d="M 358.457031 407.109375 C 354.125 395.902344 345.683594 381.941406 345.683594 381.941406 C 372.390625 388.902344 409.867188 394.515625 451.554688 397.09375 C 533.804688 402.175781 601.269531 393.511719 602.242188 377.738281 C 602.40625 375.121094 600.714844 372.46875 597.414062 369.847656 C 609.054688 372.882812 618.644531 376.171875 625.644531 379.582031 C 630.144531 381.90625 639.082031 387.695312 639.523438 397.082031 C 639.53125 418.925781 639.539062 440.769531 639.550781 462.613281 C 639.550781 469.542969 637.367188 478.828125 630.441406 478.820312 C 623.984375 478.8125 621.441406 470.609375 620.425781 464.238281 C 618.300781 450.933594 614.675781 437.871094 609.644531 425.375 L 609.5625 425.179688 C 605.882812 416.160156 592.699219 417.269531 590.535156 426.765625 C 589.585938 430.921875 588.914062 435.140625 588.527344 439.386719 C 588.046875 444.671875 587.9375 450.242188 584.042969 454.421875 C 582.300781 456.289062 579.796875 457.351562 577.265625 457 C 571.773438 456.234375 570.164062 450.035156 570.558594 444.984375 C 570.914062 440.433594 572.230469 435.710938 570.660156 431.425781 C 567.902344 423.882812 558.253906 422.011719 550.234375 421.5625 C 542.675781 421.140625 534.550781 421.089844 528.246094 425.277344 C 520.664062 430.316406 517.910156 439.898438 514.742188 448.429688 C 508.855469 464.277344 496.140625 480.90625 479.296875 479.476562 C 467.625 478.484375 458.433594 468.820312 453.066406 458.40625 C 447.699219 447.992188 444.976562 436.363281 439.445312 426.039062 C 434.984375 417.710938 426.824219 409.585938 417.515625 411.199219 C 410.769531 412.367188 405.875 418.402344 403.210938 424.710938 C 400.550781 431.015625 399.480469 437.90625 396.765625 444.191406 C 394.03125 450.527344 389.621094 456.140625 384.109375 460.296875 C 381.59375 462.195312 378.652344 463.851562 375.503906 463.714844 C 370.953125 463.519531 367.3125 459.550781 365.851562 455.238281 C 364.390625 450.925781 364.59375 446.257812 364.46875 441.703125 C 364.429688 440.289062 364.355469 438.878906 364.246094 437.464844 L 364.246094 437.46875 C 363.925781 426.011719 361.476562 415.675781 358.457031 407.109375" fill="#010101"/></g><g id="change2_1"><path d="M 483.253906 290.707031 L 500 290.707031 L 500 229.855469 L 483.253906 229.855469 L 483.253906 290.707031" fill="#f5ee8c"/></g><g id="change3_1"><path d="M 491.625 199.117188 C 499 208.75 499.769531 216.964844 498.371094 223.101562 C 504.917969 212.449219 511.273438 192.363281 491.625 166.703125 C 471.980469 192.363281 478.335938 212.445312 484.882812 223.101562 C 483.484375 216.964844 484.253906 208.75 491.625 199.117188" fill="#d5ba51"/></g><g id="change1_3"><path d="M 584.8125 320.175781 C 583.839844 306.402344 569.730469 303.367188 569.730469 303.367188 C 565.453125 301.8125 559.992188 300.421875 553.609375 299.230469 C 521.773438 292.488281 488.914062 293.472656 463.355469 296.324219 L 463.257812 296.207031 C 437.265625 298.375 416.941406 302.910156 408.8125 308.402344 C 408.8125 308.402344 408.648438 308.503906 408.382812 308.6875 L 408.183594 308.828125 C 406.234375 310.21875 400.328125 314.96875 400.328125 321.542969 L 400.328125 353.796875 C 400.328125 356.769531 401.207031 359.714844 403.007812 362.078125 C 405.730469 365.652344 409.929688 367.4375 412.691406 350.875 C 413.261719 347.441406 416.636719 345.222656 420 346.121094 C 433.097656 349.628906 464.09375 356.851562 492.371094 355.324219 C 498.058594 355.019531 503.007812 359.203125 503.804688 364.84375 C 504.222656 367.777344 502.78125 385.433594 509.90625 382.914062 C 513.519531 381.640625 512.628906 367.210938 512.910156 363.90625 C 513.765625 353.867188 524.484375 344.273438 533.597656 353.472656 C 533.816406 353.691406 534.03125 353.921875 534.242188 354.164062 C 540.386719 361.230469 544.011719 348.046875 548.015625 351.300781 C 548.949219 352.058594 549.28125 353.316406 549.558594 354.488281 L 553.496094 371.070312 C 553.871094 372.644531 556.109375 372.648438 556.488281 371.078125 C 558.269531 363.710938 560.050781 356.34375 561.828125 348.980469 C 563.34375 342.710938 567.121094 337.21875 572.433594 333.566406 C 575.78125 331.265625 580.382812 333.191406 581.015625 337.199219 L 582.6875 347.75 C 582.90625 349.105469 584.90625 348.949219 584.90625 347.574219 L 584.90625 321.652344 C 584.90625 321.152344 584.871094 320.664062 584.8125 320.175781" fill="#010101"/></g></g></svg>