<svg xmlns="http://www.w3.org/2000/svg" viewBox="0 0 32 32"><path d="M30.07,12.1A3.7,3.7,0,0,0,28.42,9C26,7.38,20.73,3.89,18.05,2.11a3.69,3.69,0,0,0-4.1,0C11.27,3.89,6,7.38,3.58,9A3.7,3.7,0,0,0,1.93,12.1V26.81a3.69,3.69,0,0,0,3.7,3.7H26.37a3.69,3.69,0,0,0,3.7-3.7Zm-1.48,0V26.81A2.22,2.22,0,0,1,26.37,29H5.63a2.22,2.22,0,0,1-2.22-2.22V12.1a2.23,2.23,0,0,1,1-1.85L14.77,3.34a2.2,2.2,0,0,1,2.46,0L27.6,10.25a2.23,2.23,0,0,1,1,1.85" style="fill:#e84b51;fill-rule:evenodd"/><path d="M22.64,16.13l-.08,0a.34.34,0,0,1-.15-.14,4,4,0,0,0-.78-1,1,1,0,0,0-.42-.23,1.06,1.06,0,0,0-.47,0A1.44,1.44,0,0,0,20,15.92l-.09.55a4.45,4.45,0,0,1-.33,1.35,1.73,1.73,0,0,1-.42.58,1.84,1.84,0,0,1-.61.38,1.56,1.56,0,0,1-.43.08,1.21,1.21,0,0,1-.52-.13,2,2,0,0,1-.91-1.42L16.61,17a2.22,2.22,0,0,0-1.3-1.46,1.24,1.24,0,0,0-.43-.06,1.2,1.2,0,0,0-.78.37,1.28,1.28,0,0,0-.23.37c0,.13-.06.26-.08.39a1.41,1.41,0,0,1-.65,1.18.83.83,0,0,1-.75,0,1.29,1.29,0,0,1-.48-.36,1.63,1.63,0,0,1-.3-.51,6.23,6.23,0,0,1-.15-.62,2,2,0,0,0-.2-.63.47.47,0,0,0-.37-.25c-.05,0-.07,0-.07,0a.71.71,0,0,0-.08.18,1.38,1.38,0,0,1-.18.39,1.23,1.23,0,0,1-.46.32,1.07,1.07,0,0,1-.56.06.57.57,0,0,1-.18,0v4.39H22.64Z" style="fill:#e84b51"/><path d="M16,12.84h0a4.72,4.72,0,0,0,2.49-3.18,1.18,1.18,0,0,0-.46-1.1,1.08,1.08,0,0,0-.43-.17,1,1,0,0,0-.46,0,1.28,1.28,0,0,0-.81.53.39.39,0,0,1-.15.16.36.36,0,0,1-.2.06.42.42,0,0,1-.21-.06A.36.36,0,0,1,15.65,9a1.28,1.28,0,0,0-.81-.53,1.06,1.06,0,0,0-.31,0,1,1,0,0,0-.58.18,1.18,1.18,0,0,0-.46,1.1A4.72,4.72,0,0,0,16,12.84Z" style="fill:#e84b51"/><path d="M9.94,15.58a.87.87,0,0,0,.07-.17,1.38,1.38,0,0,1,.18-.39.85.85,0,0,1,.35-.27.78.78,0,0,1,.43-.06,1.26,1.26,0,0,1,.56.2,1.24,1.24,0,0,1,.41.44,3.22,3.22,0,0,1,.27.88,2.27,2.27,0,0,0,.12.5.7.7,0,0,0,.35.42.13.13,0,0,0,.12,0c.13-.06.17-.29.23-.62a3.86,3.86,0,0,1,.1-.49,2.1,2.1,0,0,1,.29-.53,1.87,1.87,0,0,1,.43-.41,1.77,1.77,0,0,1,.54-.25,2,2,0,0,1,.59-.09,2.16,2.16,0,0,1,.56.08,3,3,0,0,1,.61.32,2.81,2.81,0,0,1,.53.45,3.09,3.09,0,0,1,.4.55,3.18,3.18,0,0,1,.26.64c0,.1.06.19.09.29.13.42.25.82.52.95a.43.43,0,0,0,.35,0,1,1,0,0,0,.58-.55,4.12,4.12,0,0,0,.27-1.14c0-.19.06-.38.09-.59A2.14,2.14,0,0,1,20.49,14a1.92,1.92,0,0,1,.86,0,1.88,1.88,0,0,1,.77.39,3.12,3.12,0,0,1,.52.57V13.75L9.36,13.61v2a.54.54,0,0,0,.25.06A.43.43,0,0,0,9.94,15.58Z" style="fill:#e84b51"/><path d="M25.13,24.34A4.75,4.75,0,0,0,24,23.18a1.85,1.85,0,0,0-1.45-.28,1.79,1.79,0,0,0-1.12,1.39c-.05.21-.09.42-.12.64a4.48,4.48,0,0,1-.47,1.56,2.3,2.3,0,0,1-.8.81,2.35,2.35,0,0,1-1.09.33,1.68,1.68,0,0,1-.63-.12,2.39,2.39,0,0,1-1.21-1.6L17,25.59a2.93,2.93,0,0,0-.74-1.1,2.8,2.8,0,0,0-1.17-.64,1.94,1.94,0,0,0-2.23.84,3.45,3.45,0,0,0-.12.46,1.53,1.53,0,0,1-.84,1.32A1.56,1.56,0,0,1,10,25.52a4.44,4.44,0,0,1-.21-.71A2.52,2.52,0,0,0,9.51,24a.88.88,0,0,0-.64-.36.32.32,0,0,0-.28.09.53.53,0,0,0-.11.21,1.41,1.41,0,0,1-.25.45,1.79,1.79,0,0,1-1.3.39l-.39-.07V30H25.45V24.52l-.16-.06A.48.48,0,0,1,25.13,24.34Z" style="fill:#e84b51"/><path d="M6.54,23.92A.9.9,0,0,0,7,24a.91.91,0,0,0,.66-.12.65.65,0,0,0,.11-.22A1.53,1.53,0,0,1,8,23.25,1.17,1.17,0,0,1,8.44,23a1.06,1.06,0,0,1,.5-.06,1.68,1.68,0,0,1,.69.21,1.77,1.77,0,0,1,.53.49,3,3,0,0,1,.39,1,3.06,3.06,0,0,0,.17.59c.15.34.59.66.91.53s.28-.29.39-.77a2.8,2.8,0,0,1,.12-.56A2.5,2.5,0,0,1,14.56,23a3,3,0,0,1,.73.09,3.64,3.64,0,0,1,2,1.45,3.68,3.68,0,0,1,.4.76l.12.33c.19.53.35,1,.77,1.16a1.36,1.36,0,0,0,1.55-.68,4,4,0,0,0,.38-1.31c0-.23.08-.46.13-.69a2.51,2.51,0,0,1,1.67-1.95,2.46,2.46,0,0,1,1.08,0,2.7,2.7,0,0,1,1,.41,4.86,4.86,0,0,1,1,.95V21.72L6.53,21.56Z" style="fill:#e84b51"/></svg>