<?xml version="1.0" encoding="UTF-8" standalone="no"?><svg xmlns="http://www.w3.org/2000/svg" xmlns:xlink="http://www.w3.org/1999/xlink" fill="#000000" height="391" preserveAspectRatio="xMidYMid meet" version="1" viewBox="-0.5 -0.1 466.4 391.0" width="466.4" zoomAndPan="magnify"><g id="change1_1"><path d="M465.69846,229.66663c0.1409,18.12033-4.51678,33.54907-12.79749,47.99393 c-5.91101,10.31116-13.241,19.50626-21.79712,27.72491c-5.67575,5.45181-11.6427,10.60748-17.96924,15.26361 c-6.24832,4.59854-10.59006,10.53223-13.81381,17.39944c-3.6235,7.71902-7.37512,15.38647-10.39142,23.37579 c-3.27979,8.68701-5.82828,17.58527-7.60175,26.70288c-0.09903,0.50906-0.16934,1.04205-0.37823,1.5076 c-0.50345,1.12192-1.92606,1.28873-2.66083,0.3038c-0.53043-0.71094-0.95868-1.49872-1.4245-2.25714 c-5.10721-8.31448-10.98288-16.0256-17.94406-22.88687c-3.28232-3.2352-6.85986-6.13336-10.45673-8.99606 c-3.15939-2.51459-6.86765-4.09387-10.57144-5.63266c-1.1214-0.46594-2.31296-0.45828-3.50891-0.3775 c-6.36011,0.42957-12.71942,0.87375-19.08203,1.26282c-6.73337,0.41174-13.4675,0.82886-20.2066,1.12073 c-3.25519,0.14099-6.51947,0.1532-9.78436-0.10712c-3.84207-0.30634-7.70383-0.16376-11.55612-0.50671 c-3.54196-0.31528-7.08743-0.60272-10.62994-0.93079c-10.21211-0.94568-20.27391-2.71451-30.12131-5.57498 c-14.27567-4.14685-28.10646-9.46552-41.38367-16.17288c-10.23074-5.1683-19.94296-11.1727-28.66779-18.63876 c-10.09283-8.63669-18.01677-18.85794-22.28165-31.62628c-0.25783-0.77188-0.47818-1.55908-0.6647-2.35123 c-0.21956-0.93243,0.20317-1.39209,1.14778-1.44901c1.77531-0.10703,3.54745-0.28458,5.32396-0.35068 c8.15051-0.30331,16.26611-1.0585,24.39198-1.72205c10.42053-0.85089,20.75041-2.3934,31.09775-3.78815 c6.30247-0.84952,12.6319-1.73276,18.68146-3.87305c1.95616-0.69208,3.92622-1.35233,5.84882-2.129 c1.12257-0.45343,1.98627-0.46344,3.0807,0.26724c1.59236,1.06314,3.38196,1.84253,5.12169,2.67111 c5.83102,2.77722,11.38239,6.07932,17.10217,9.06308c5.9846,3.12186,11.99425,6.20074,18.06111,9.15872 c7.53421,3.67337,14.79739,7.89999,22.48752,11.24008c7.88492,3.42462,15.81033,6.78314,23.86041,9.78928 c4.21689,1.57474,8.60498,2.73474,12.82632,4.35187c1.32233,0.50656,2.47934,0.20593,3.46793-0.7774 c1.57819-1.56982,3.19608-3.10336,4.71115-4.73227c4.44617-4.78,8.91821-9.53876,13.25467-14.41733 c6.9483-7.81683,13.92178-15.62115,19.6156-24.44971c2.534-3.92917,4.90738-7.95361,7.237-12.00516 c0.07382-0.12839,0.14243-0.26166,0.1965-0.39929c4.42197-11.24805,8.24701-22.65283,6.97528-34.99225 c-0.68903-6.68509-2.39893-13.12244-6.63779-18.61034c-1.3801-1.78679-3.01831-3.27585-4.87021-4.52437 c-5.91467-3.98758-12.29697-6.8714-19.42505-7.81877c-4.73904-0.62987-9.32407,0.19699-13.71115,2.01012 c-3.86523,1.59746-7.45825,3.65703-10.35651,6.76483c-0.70786,0.75908-1.45987,1.48053-2.22852,2.17863 c-4.68536,4.25546-8.00998,9.52486-10.98557,15.01118c-2.04901,3.77802-3.82294,7.70645-5.68118,11.58615 c-0.88129,1.84003-0.91299,1.9136-2.39774,0.56985c-3.79459-3.4343-7.58475-6.87527-11.30334-10.39114 c-2.05283-1.94092-4.11966-3.84506-6.45465-5.44568c-0.60971-0.41794-1.20511-0.875-1.73318-1.38992 c-1.04443-1.01857-1.09232-1.70691-0.38443-2.95328c3.00778-5.29579,5.46185-10.85115,7.57333-16.55255 c4.54025-12.2598,8.01004-24.82616,10.49115-37.6593c0.63217-3.27,1.24503-6.57214,1.46301-9.88608 c0.23151-3.51933,1.80331-3.99765,4.138-4.19437c8.12631-0.68466,16.15045-2.18011,24.28006-2.83344 c5.84326-0.46957,11.68076-0.83542,17.54303-0.91463c6.08154-0.08217,12.15942-0.02745,18.20477,0.62935 c13.41656,1.45764,26.41147,4.55286,38.77597,10.11107c10.90289,4.90117,20.53854,11.5408,28.62015,20.38031 c7.11893,7.78654,12.75369,16.5649,17.18939,26.1073c3.73584,8.03693,6.43555,16.41573,7.84491,25.1917 C465.29776,220.37094,465.78632,225.67801,465.69846,229.66663z M311.04846,245.52924 c-6.14792-5.53342-12.27972-11.08192-17.9314-17.13689c-2.84732-3.05055-5.87024-5.92354-9.08118-8.59537 c-1.37848-1.14699-1.95535-1.15459-3.20331,0.19357c-0.86295,0.93225-1.65594,1.93063-2.45898,2.91673 c-3.4791,4.27225-6.64856,8.82512-10.75012,12.54477c-4.76108,4.31786-9.59338,8.56238-14.51309,12.69794 c-2.70323,2.27235-5.40054,4.55168-8.07867,6.85349c-0.87141,0.74892-0.88654,1.35547,0.05565,2.04498 c0.7919,0.57953,1.67712,1.05185,2.56758,1.47314c5.18352,2.4527,10.13269,5.32712,14.97592,8.37952 c13.09137,8.25067,27.11826,14.55789,41.55368,19.99738c6.54114,2.46484,13.13983,4.78055,19.58624,7.48694 c1.06287,0.4462,1.7088,0.46371,2.61172-0.31729c2.88776-2.49777,5.60327-5.18854,8.5087-7.65707 c6.90829-5.8696,12.64163-12.72336,17.40567-20.39923c6.172-9.94431,10.81656-20.63438,15.23575-31.43488 c1.72281-4.21054,2.35251-8.57187,2.07916-13.06657c-0.26721-4.39362-1.58868-8.4911-4.26758-12.00642 c-2.93701-3.85396-7.01056-5.77238-11.77521-6.40344c-6.98505-0.92508-13.40042,0.43044-18.93399,4.88541 c-4.12546,3.32138-7.19699,7.55046-9.56094,12.28596c-0.6626,1.32738-1.28122,2.6758-2.12128,3.90875 c-1.63663,2.40211-2.95889,4.97928-4.17996,7.61069c-1.84387,3.97362-3.67383,7.95383-5.53958,11.91716 c-0.37912,0.80527-0.56772,1.73143-1.16333,2.33012C311.51471,246.06885,311.30154,245.75705,311.04846,245.52924z" fill="#9c8222"/></g><g id="change2_1"><path d="M283.00476,4.98394c-0.02066-2.34366,0.0163-2.34992,1.90509-2.75597 c3.54788-0.76271,7.2019-0.71571,10.74725-1.3588c2.86383-0.51948,5.77484-0.03487,8.60611-0.75171 c0.76736-0.19428,1.63318-0.10864,2.43936-0.01992c2.19537,0.24161,3.04556,1.13821,3.49393,3.35421 c0.32581,1.61024,0.61609,3.19,0.05225,4.81279c-0.13953,0.40151-0.06104,0.88292-0.06232,1.32765 c-0.01077,3.7749-0.51682,7.51186-0.79672,11.26525c-0.19208,2.57535-0.46439,5.15059-0.60489,7.73604 c-0.68066,12.52573-0.10297,25.06409-0.50748,37.58392c-0.15787,4.88466-0.20676,9.76953-0.34607,14.65312 c-0.04315,1.51424-0.06204,1.37391-1.68933,1.30199c-2.29257-0.1013-4.53793-0.74443-6.84195-0.56899 c-1.27664,0.09721-1.8042-0.48162-2.15857-1.67649c-2.41824-8.15417-4.00308-16.49878-5.85532-24.78515 c-1.14346-5.11555-2.26004-10.23432-3.21851-15.38475c-0.68741-3.69376-1.25439-7.40731-1.65652-11.15379 c-0.47952-4.46792-1.27228-8.90249-1.9411-13.34975C284.03271,11.64149,283.47787,8.07201,283.00476,4.98394z M392.81335,21.3386 c-6.00455-4.19235-12.39804-7.80085-18.27148-12.19155c-1.10309-0.82462-1.42529-0.72532-2.08807,0.42125 c-1.33282,2.30571-2.64352,4.62456-3.93576,6.95331c-1.61572,2.91168-3.22131,5.82928-4.79849,8.76196 c-1.47287,2.73885-3.14944,5.40172-4.30264,8.27228c-2.75543,6.85916-5.33588,13.79202-7.83844,20.74855 c-3.22925,8.97637-6.37262,17.98265-10.02005,26.80217c-0.81921,1.98087-0.47882,3.1512,1.28564,4.29428 c0.8049,0.52144,1.64777,0.96626,2.41501,1.56593c1.51245,1.18207,1.81772,1.10953,2.98657-0.43939 c3.64908-4.83553,7.25446-9.70435,10.93414-14.51639c6.24326-8.16455,12.13821-16.57657,17.97208-25.03455 c2.60211-3.77259,5.28143-7.49216,7.94543-11.22168c2.74921-3.84882,5.53625-7.67073,8.26678-11.53264 c0.32571-0.46065,0.83585-0.8666,0.84698-1.51908C393.96561,22.01215,393.35968,21.72003,392.81335,21.3386z M435.60651,89.31811 c-1.11667-1.8318-2.25726-3.64904-3.37006-5.48316c-2.34421-3.86395-5.1702-7.38731-7.8093-11.04197 c-1.21429-1.68153-2.39575-1.75254-4.1058-0.56686c-4.25641,2.95113-8.13211,6.38386-12.20145,9.57108 c-3.60474,2.82336-7.15823,5.71202-10.7457,8.55759c-3.53061,2.80039-7.10007,5.55223-10.608,8.38062 c-4.71481,3.80152-9.39438,7.6469-14.07272,11.49339c-1.36984,1.12628-2.69043,2.313-4.02087,3.48643 c-0.66528,0.58675-0.55002,1.08694,0.14691,1.61442c1.23578,0.93529,2.54602,1.81971,3.59732,2.93932 c1.34705,1.43457,2.58603,1.19518,4.17221,0.4633c4.90271-2.26218,9.85083-4.42876,14.81418-6.55589 c5.50592-2.35966,11.05914-4.60883,16.5712-6.95451c5.24075-2.23025,10.44583-4.54424,15.68387-6.78105 c3.74487-1.59921,7.48874-3.19611,11.12671-5.03157c0.84268-0.42518,1.56708-0.88647,1.41153-2.03307 C436.31088,90.631,435.99664,89.95817,435.60651,89.31811z" fill="#d5ba51"/></g><g id="change3_1"><path d="M131.99324,264.16989c-3.63651,0-7.2733,0.02798-10.90947-0.00687 c-4.8261-0.04626-9.62804,0.23297-14.37501,1.11166c-0.98339,0.18204-1.87198-0.18796-2.85609-0.0361 c-3.69536,0.57004-6.35282,2.73468-8.66798,5.41742c-4.92176,5.70312-8.80426,12.10104-12.28274,18.75226 c-2.16558,4.14084-4.29946,8.29779-6.17057,12.58636c-0.97843,2.24258-2.1439,4.39856-3.42601,6.48975 c-0.55064,0.89813-1.20449,1.70453-1.99062,2.38c-1.22803,1.05511-2.47987,0.72266-2.90459-0.80627 c-0.27507-0.99011-0.38644-2.03931-0.45495-3.06973c-0.08356-1.25699-0.06101-2.52209-0.05721-3.7836 c0.02548-8.4566,0.00946-16.91562-0.53075-25.35651c-0.53407-8.34515-1.07478-16.69669-2.58082-24.94446 c-0.05325-0.2916-0.09512-0.58557-0.13222-0.87973c-0.22794-1.80676-1.10212-2.96149-2.79344-3.90207 c-6.03852-3.35831-11.482-7.62119-17.01431-11.73361c-5.53244-4.11249-11.00951-8.30353-16.20723-12.83652 c-2.97041-2.59052-5.3469-5.7449-7.90738-8.72369c-5.41204-6.29619-8.63756-13.75056-11.67509-21.35655 c-2.98167-7.46613-5.08478-15.15491-6.76216-22.99504c-1.76223-8.23669-2.81651-16.55226-2.03058-24.94629 c1.26935-13.55721,3.94864-26.78657,9.74824-39.26829c4.84587-10.42911,10.75202-20.19301,18.30771-28.81852 c9.46963-10.81042,19.98967-20.46446,32.82415-27.31902c4.50941-2.40837,8.87411-5.09125,13.37411-7.52927 c8.00875-4.339,16.53892-7.26493,25.31015-9.5957c7.39977-1.96632,14.91611-3.07713,22.54476-3.65128 c8.52608-0.64168,17.06546-0.60717,25.57463-0.21744c7.83942,0.35906,15.68512,0.78913,23.51794,1.30604 c13.1414,0.8672,26.0128,3.13186,38.24257,8.3334c7.04155,2.99489,13.74922,6.66114,20.62837,9.98109 c7.56734,3.65208,14.68037,8.05841,21.38484,13.13672c10.77043,8.15804,19.20998,18.30105,25.35994,30.26901 c5.80936,11.30515,10.39896,23.11388,13.1799,35.56174c0.694,3.10662,0.98584,6.27383,1.28745,9.44825 c0.43063,4.53249,0.17117,9.04054-0.14871,13.53658c-0.72949,10.25319-2.73538,20.22859-6.8302,29.7368 c-5.16803,12.0002-12.00296,22.97983-19.96082,33.30058c-2.26306,2.93509-4.50317,5.89282-6.62521,8.92996 c-1.5051,2.15411-3.3033,3.9761-5.31325,5.63513c-15.08685,12.45306-31.61224,22.20154-50.57561,27.62512 c-8.27629,2.36707-16.60664,4.39011-25.07883,5.828c-3.20436,0.54385-6.47932,0.65738-9.70885,1.07074 c-6.25639,0.8009-12.55986,0.86908-18.84206,1.17746c-5.47839,0.26901-10.98045,0.05609-16.47206,0.05609 C131.99323,264.09897,131.99323,264.13443,131.99324,264.16989z M66.49954,143.65697 c0.06012,0.00002,0.12022,0.00003,0.18034,0.00005c0,4.22849-0.15107,8.46375,0.03787,12.68376 c0.24161,5.39648,0.79226,10.7784,1.14272,16.17093c0.23545,3.62329,0.7114,7.21672,1.16604,10.81354 c0.64941,5.13777,1.29607,10.27643,2.01829,15.40428c0.48471,3.44165,0.99249,6.88043,1.88058,10.25594 c0.73201,2.78218,2.66245,4.29668,5.25081,4.87541c2.44422,0.54654,4.97112,0.84891,7.47595,0.9754 c7.949,0.40149,15.82901-0.31781,23.66846-1.65851c1.99619-0.3414,3.59891-1.06018,4.69951-2.31384 c0.39207-0.44661,0.57086-1.46327,1.51935-3.37573c0.18657-0.37619,0.3457-0.68324,0.45247-0.88657 c5.02832,1.02142,9.28877,1.65239,12.46164,2.05351c5.92807,0.74945,10.56351,1.01317,15.0358,1.25928 c5.26277,0.2896,9.31697,0.36844,10.88351,0.39389c16.07283,0.26122,28.2571,0.36639,40.25832-3.98775 c2.68037-0.97246,5.60165-2.25256,8.61128-4.62012c3.49377-2.74841,6.34886-5.98076,8.14204-10.10417 c1.60693-3.69522,2.54642-7.56067,3.28787-11.50528c1.42543-7.58377,2.43538-15.20908,2.40509-22.93546 c-0.02269-5.77927,0.11554-11.55515-0.35393-17.33871c-0.42368-5.21982-1.4108-10.2767-3.28249-15.13583 c-1.69582-4.40259-4.56866-7.83688-8.65096-10.39584c-5.32802-3.33989-11.17593-3.94072-17.11703-3.40262 c-3.88274,0.35168-7.77611,0.98082-11.66383,1.45828c-3.38011,0.41512-6.81497,0.39993-10.22504,0.14661 c-2.46234-0.18292-4.17485-1.39534-4.85292-3.86278c-0.15678-0.57057-0.33971-1.13583-0.46162-1.71387 c-1.08444-5.14218-1.89081-10.33136-2.62617-15.53314c-0.62569-4.42595-1.72702-8.71224-3.81328-12.70426 c-2.62718-5.02704-9.4427-10.45789-17.40103-8.91512c-5.40906,1.04859-9.88626,3.56212-12.93932,8.23945 c-2.73778,4.1943-4.47427,8.85252-5.91116,13.62051c-1.68803,5.60144-2.75037,11.36633-4.44479,16.97156 c-1.39389,4.61105-2.62457,9.26741-4.82362,13.58887c-0.60825,1.19531-1.33747,2.30531-2.17487,3.35118 c-0.53442,0.6675-1.05602,0.89752-1.88732,0.38232c-1.36241-0.84433-2.91189-1.02684-4.49635-0.99956 c-4.59258,0.07916-9.17925-0.02919-13.77599,0.3902c-3.83147,0.34959-7.66215,0.74997-11.49525,1.0934 c-1.60099,0.14345-3.25214,0.2592-4.80975,0.80063c-2.25951,0.78543-3.36463,2.29269-3.36916,4.66366 C66.49408,135.79262,66.49954,139.72481,66.49954,143.65697z M180.66481,197.06422c1.62067-0.02902,3.94391-0.34114,7.05035-0.86255 c3.597-0.60374,6.87704-1.91125,9.1624-4.95236c1.57487-2.09569,2.60333-4.46098,3.31636-6.98776 c0.93642-3.31836,1.0257-6.74324,1.211-10.12885c0.31998-5.84494,0.63484-11.69292,0.87936-17.54071 c0.26593-6.36021,0.48965-12.73798,0.06825-19.10252c-0.21581-3.25909-0.71063-6.48685-2.36732-9.40732 c-0.68353-1.20498-1.53943-2.27876-2.92844-2.55412c-1.66281-0.32967-3.34631-0.59982-5.07388-0.49535 c-7.31808,0.44249-14.56389,1.66301-21.91429,1.84653c-3.81749,0.09532-7.54074-0.18059-11.20894-1.09727 c-5.05684-1.26373-8.80226-4.15477-10.66476-9.17567c-1.27066-3.42548-1.96974-6.98708-2.33099-10.60574 c-0.55376-5.547-0.46796-6.86803-1.00639-12.40312c-0.86685-8.9113-1.66805-10.4382-2.97566-11.08598 c-1.90633-0.94439-4.46106,0.19167-5.80952,1.17255c-2.38666,1.73605-2.90057,4.51402-3.44304,6.15434 c-1.6546,5.00319-2.67825,10.16539-3.72279,15.3199c-1.23634,6.10101-2.49533,12.19623-4.8233,18.00435 c-2.75529,6.87421-6.71611,12.72851-13.69206,15.97193c-1.03666,0.48199-1.16096,1.20039-1.00946,2.1656 c0.49346,3.1438,0.87069,6.31119,1.41038,9.44064c1.4367,8.33107,1.95417,16.75995,2.88358,25.14267 c0.56256,5.07394,1.23837,10.14165,1.52589,15.2491c0.12814,2.27657,0.40672,2.42064,2.59181,2.8412 c0.79948,0.15388,1.59612,0.32642,2.3999,0.45348c7.68246,1.21423,15.42581,1.94313,23.16699,2.58006 c6.49478,0.53438,13.02798,0.6021,19.76706,0.8858C170.89587,197.33092,176.68442,197.13548,180.66481,197.06422z M79.09215,142.59087c0,1.03867-0.09642,2.08788,0.01588,3.11426c0.65314,5.96819,0.77708,11.97101,1.19341,17.95432 c0.25733,3.69814,0.67399,7.37743,1.10311,11.05029c0.72108,6.17168,1.67209,12.31671,2.54308,18.47057 c0.32151,2.27158,0.67862,4.53833,1.04326,6.80345c0.14429,0.89624,0.44373,1.32648,1.61613,1.17497 c4.54975-0.58798,9.12551-0.97243,13.68849-1.46152c1.65265-0.17712,1.72968-0.29108,1.78638-1.88776 c0.0184-0.51817,0.04647-1.04866-0.03745-1.55576c-0.53447-3.22929-0.43684-6.50763-0.63597-9.75426 c-0.37269-6.07623-1.27223-12.07518-2.0517-18.09291c-0.76978-5.94292-1.66692-11.86983-2.55532-17.79669 c-0.58115-3.87711-1.0023-7.78639-2.1185-11.56683c-0.50115-1.69739-0.50462-1.78397-2.2849-1.655 c-3.76548,0.27278-7.53027,0.58556-11.28259,0.99796c-2.20029,0.24182-2.18777,0.34221-2.15317,2.64665 c0.0078,0.51933,0.00115,1.03886,0.00115,1.55829C79.00636,142.5909,79.04925,142.59088,79.09215,142.59087z" fill="#f1d65b"/></g></svg>