<?xml version="1.0" encoding="UTF-8" standalone="no"?><svg xmlns="http://www.w3.org/2000/svg" xmlns:xlink="http://www.w3.org/1999/xlink" fill="#000000" height="337.9" preserveAspectRatio="xMidYMid meet" version="1" viewBox="-0.0 0.0 471.0 337.9" width="471" zoomAndPan="magnify"><g id="change1_1"><path d="M288.30521,52.04743c41.18793,0,73.082-0.16773,104.9725,0.09668 c10.29153,0.0853,20.60266,0.00918,30.88062,0.49207c6.06686,0.28505,12.14169-0.05965,18.17422,0.43629 c6.14563,0.50523,12.29117,0.10709,18.41501,0.49032c2.70322,0.16917,5.40088,0.36118,8.10788,0.35949 c1.08429-0.00067,1.64359,0.3485,1.59668,1.51268c-0.22144,5.49704,0.4169,11.01561-0.42218,16.49934 c-0.09592,0.62651-0.05457,1.27602-0.05469,1.91486c-0.00281,11.51013-0.19214,23.02484,0.08472,34.52829 c0.12265,5.09767,0.54437,10.20876,0.29373,15.29736c-0.34186,6.93929-0.06158,13.89754-0.52594,20.80935 c-0.42404,6.31079,0.01089,12.61716-0.44043,18.89679c-0.32675,4.54657-0.66498,9.10718-0.29572,13.61816 c0.6666,8.14313,0.13144,16.28143,0.38452,24.41647c0.01248,0.39929,0.01199,0.79953,0.00082,1.19888 c-0.05469,1.95578-0.08957,1.89899-2.10477,1.65714c-2.69409-0.32339-5.40399-0.35822-8.10388,0.06577 c-0.7052,0.11075-1.42462,0.17087-2.13849,0.17905c-2.39761,0.02753-4.79611,0.05084-7.1936,0.02222 c-8.30212-0.09921-16.60092,0.33234-24.88367,0.64557c-7.98483,0.30188-15.96463,0.00833-23.93399,0.36594 c-20.12305,0.90314-40.26175-0.03693-60.37753,0.56287c-8.94156,0.26666-17.88837-0.0643-26.80869,0.42426 c-15.01178,0.8222-30.02576,0.13345-45.03464,0.44324c-1.38016,0.0285-2.34116-0.46741-3.40515-1.32565 c-5.73294-4.62427-10.58301-10.18585-16.0824-15.03238c-4.53809-3.99921-9.09821-7.98584-13.62405-12.00021 c-2.7395-2.4299-5.49451-4.86633-8.1003-7.45279c-0.45358-0.45026-0.89006-0.92722-1.39256-1.31683 c-1.21596-0.94275-1.52412-0.94958-2.62697,0.15179c-5.7688,5.76123-11.62007,11.44571-17.21953,17.36783 c-2.24504,2.37448-4.5721,4.68094-6.7394,7.12784c-4.22395,4.76901-8.5898,9.40833-12.64445,14.33545 c-1.79933,2.18652-3.56374,4.48773-5.90779,6.22345c-1.52063,1.12601-2.02083,1.34842-3.53104,0.35596 c-1.32788-0.87265-2.67065-1.77994-3.80049-2.88324c-1.69817-1.65823-3.79543-2.65137-5.81047-3.74323 c-6.31627-3.42233-12.30696-7.38257-18.49713-11.01096c-1.73875-1.0192-2.37677-2.57025-2.37148-4.62335 c0.04404-17.02444,0.29179-34.05554-0.09415-51.07162c-0.27525-12.13666,0.07146-24.28321-0.48639-36.39809 c-0.4156-9.02606,0.11664-18.05435-0.45648-27.04774c-0.47331-7.4269-0.20187-14.84058-0.39928-22.25713 c-0.01276-0.47926-0.01492-0.95951-0.00087-1.43867c0.05455-1.86131,0.06435-1.90726,1.88025-1.92757 c3.19691-0.03577,6.3965-0.09579,9.59126-0.00909c8.3858,0.22753,16.74477-0.70159,25.12968-0.51122 c3.515,0.07982,7.03616,0.08492,10.55023-0.01979C227.76912,51.43297,262.68765,52.39611,288.30521,52.04743z M254.60251,172.8299 c0.13937-0.078,0.36578-0.16461,0.54312-0.31073c0.98367-0.81039,1.98703-1.6008,2.92584-2.46112 c4.11499-3.77121,8.1991-7.57611,12.31528-11.34604c5.40936-4.95428,10.89517-9.82669,16.24124-14.84808 c4.47699-4.20508,9.03165-8.32721,13.4856-12.55322c5.8457-5.54653,11.76529-11.01612,17.56665-16.60653 c6.89575-6.64499,13.90982-13.16753,20.76053-19.85388c5.59088-5.45677,11.46268-10.63873,16.67664-16.47929 c0.74185-0.83102,1.89249-1.53967,2.15225-2.49562c0.3096-1.13925-1.24228-1.67465-1.82294-2.5938 c-0.25522-0.40396-0.51993-0.80745-0.82623-1.17268c-1.28415-1.53122-1.53778-1.48799-3.05527-0.25447 c-2.79443,2.27144-5.20374,4.94975-7.8876,7.33134c-4.70792,4.1778-9.48639,8.27602-14.22507,12.41927 c-2.94055,2.571-5.86569,5.15971-8.79172,7.74725c-5.19342,4.59271-10.46075,9.1058-15.5488,13.81256 c-4.215,3.89911-8.41647,7.81177-12.65555,11.68585c-5.47595,5.00443-10.85126,10.12009-16.22342,15.23667 c-5.43335,5.17487-10.80994,10.40933-16.21176,15.61725c-0.22998,0.22171-0.44894,0.45804-0.69778,0.65656 c-3.57162,2.84872-6.51157,6.35089-9.81973,9.47125c-0.76309,0.71976-0.70291,1.2504,0.01089,1.97784 c1.45078,1.47855,3.04352,2.83099,4.22348,4.56366C253.9151,172.6337,254.15143,172.86896,254.60251,172.8299z M283.24863,39.54166 c58.50159-0.1965,129.38684,0.45921,186.5477,1.17088c0.21667-5.74663,0.43332-11.49326,0.64999-17.23988 c0.11438-2.20273,0.14423-4.61443,0.03485-7.20418c-0.10419-2.46684-0.32059-4.7606-0.59937-6.85835 c-7.81128-0.11559-19.45526-0.25163-33.69534-0.27707c-7.36334-0.01315-12.82172,0.00791-14.89432,0.01575 c-12.85443,0.04864-40.08566,0.13586-100.32037,0.30285C320.70453,6.30111,320.43726,3.15056,320.17001,0 c-6.72311,0.15966-13.4462,0.31931-20.16931,0.47897c-0.0387,3.14796-0.07742,6.29591-0.11612,9.44386 c-0.66623,0.12193-1.33243,0.24387-1.99866,0.36581c-37.76886-0.32865-75.55588,0.66763-113.30763,0.08757 c-12.03944-0.63315-24.04375,0.27556-36.03995,1.41129c-1.2001,0.28579-4.15785,0.18568-3.69655,2.0294 c-0.13261,8.46967,0.11302,16.98597,0.43095,25.51179c-0.00363,1.61655,0.08173,1.69525,1.88026,1.65462 c0.68385-0.01545,42.39783-0.55724,125.85233-1.40172C273.82285,39.57333,276.96478,39.56277,283.24863,39.54166z M263.13599,277.04361c-9.85516,11.84122-18.37732,23.34341-25.72241,34.14676c-0.90347,1.12329-1.80693,2.24658-2.7104,3.36987 c5.73767,0.42188,11.47536,0.84378,17.21303,1.26566c0.42975-0.52594,1.7244-2.10962,2.17142-2.65622 c31.86636-38.96292,41.74866-50.00015,53.67685-61.99036c1.1445-1.15045,3.21487-3.20609,5.91614-5.72433 c7.9931,7.17084,16.31827,15.26016,24.72806,24.34732c13.08447,14.1384,23.883,28.00101,32.74808,40.77054 c5.22949-0.65677,10.45901-1.31351,15.68851-1.97028c-8.69699-10.88828-17.49765-21.81757-26.40292-32.78534 c-8.5401-10.51801-17.06525-20.93454-25.57315-31.24994c33.53088,1.59384,67.22021-0.16284,100.83978-1.10858 c10.0589,0.05658,20.05695-0.5441,30.10202-1.0173c3.62616-0.00635,3.63965-0.02573,4.42398-3.52637 c0.71573-7.05612-0.69504-14.17688-0.33463-21.26761c0.13834-2.44897-2.49402-1.16516-3.98734-1.12314 c-0.52341,0.01474-35.83093,0.7258-106.50049,1.84268c-24.92874,0.39398-61.66476,0.70499-110.99301,0.22308 c-3.39951,4.42062-6.96246,9.75476-10.23322,16.05112c-1.50024,2.88806-2.7883,5.68842-3.89723,8.3609 c10.4901,0.6279,21.59923,0.97348,33.26909,0.92325c9.37564-0.04037,18.37799-0.33304,26.97614-0.81744 C284.48499,252.88678,273.85791,264.16098,263.13599,277.04361z M67.46231,323.35358 c0.94523,1.58386,2.24527,3.23029,4.26243,6.78616c1.05437,1.85867,2.66715,4.52359,4.9746,7.73068 c1.36066-2.11316,2.46055-3.89368,3.24656-5.18604c3.06802-5.04443,4.07854-6.88318,4.49686-7.68503 c0.90192-1.72885,1.65639-3.32764,1.8316-3.70026c0.14226-0.30255,0.61975-1.32193,1.38326-3.07184 c1.84136-4.22028,2.87605-7.33658,3.4893-8.6503c1.50681-3.22787,1.42913-6.39108,0.57451-9.76068 c-3.42725-13.51312-7.23407-26.92673-10.50906-40.48016c-1.44041-5.96109-3.14462-11.85904-4.7774-17.77231 c-0.27792-1.00644-0.17799-1.53622,0.98117-1.55493c1.45246-0.0235,2.83884-0.42413,4.19063-0.90134 c1.75612-0.61996,2.38969-1.65048,2.14955-3.48892c-0.13383-1.02457-0.39499-2.02304-0.3908-3.07611 c0.01431-3.59552-0.02631-7.19125-0.04571-10.78659c-1.21388-1.41034-2.82046-1.75854-4.51147-1.36642 c-2.97772,0.69052-5.97961,0.43237-8.97041,0.4046c-2.0111-0.01868-3.9357,0.13004-5.72204,1.12476 c0.21471,1.67233,0.19569,3.34189-0.08927,5.00525c-0.54356,3.17307-0.27669,6.36887-0.18871,9.55005 c0.04505,1.62881,0.90604,2.7605,2.68396,3.19931c1.06518,0.26288,2.21564,0.12146,3.20589,0.60272 c0.01105,0.24121,0.05865,0.40887,0.01965,0.55313c-2.76638,10.23331-4.08475,20.74368-5.96277,31.1467 c-1.73678,9.62064-3.38924,19.25742-5.24139,28.85574c-0.64985,3.36765-0.52608,6.4361,1.39741,9.36694 c1.55943,2.37613,2.4547,4.32825,2.85501,4.97586C65.06208,318.84113,64.77577,318.85193,67.46231,323.35358z M83.31955,221.75558 c10.71046-4.85812,21.42091-9.71625,32.13137-14.57437c1.89818,0.12524,4.68254,0.40427,7.97678,1.10211 c6.92228,1.46637,11.34051,3.87674,18.20983,7.26288c10.10555,4.98138,20.16504,10.05612,30.2599,15.0593 c2.64659,1.31174,5.37981,2.44965,8.01733,3.77835c1.07796,0.54306,1.74948,0.2724,2.5202-0.49344 c4.25153-4.22488,8.46614-8.47574,12.11005-13.26004c6.14381-8.06662,12.44725-16.00443,18.99689-23.75034 c3.50301-4.14291,6.75301-8.49973,10.11682-12.76028c0.198-0.25082,0.41589-0.48987,0.58415-0.75961 c0.61427-0.9848,1.34602-0.97897,2.18451-0.29889c1.92244,1.55939,3.89258,3.06335,5.76326,4.68234 c3.92406,3.39618,7.79752,6.85074,11.68961,10.28378c1.80942,1.59601,1.78836,1.58652,0.45197,3.66769 c-5.95291,9.27051-10.85645,19.18338-16.72029,28.5105c-6.66431,10.60031-4.69212,8.80664-13.15816,22.54599 c-5.69029,9.23465-10.10748,15.76761-11.86246,18.34c-4.44995,6.52261-8.50244,12.08737-11.85361,16.54315 c-0.4698,0.14041-1.08331,0.26068-1.79547,0.22763c-0.71915-0.03339-1.25459-0.21078-1.47212-0.28351 c-7.04434-2.3555-14.06688-4.75894-20.73114-8.09155c-8.35983-4.18045-16.75717-8.28787-24.81511-13.04288 c-0.53389-0.31506-1.06563-0.69724-1.74063-0.68732c-0.37718,0.82739-0.2525,1.64951-0.12753,2.39728 c0.53081,3.17624,0.27573,6.37817,0.43115,9.56479c0.52182,10.69772,0.40849,21.40482,0.50684,32.10883 c0.00514,0.55951-0.02853,1.12186,0.01608,1.67804c0.09676,1.20523-0.48618,1.69287-1.63802,1.87305 c-4.88225,0.76376-9.75363,1.59647-14.6314,2.3891c-4.48387,0.7287-8.97774,1.39847-13.45309,2.17563 c-2.82216,0.49008-4.93667,0.56696-5.46249,0.60861c-2.33444,0.18497-7.47773,0.82498-19.55042,2.7467 c0.59101-1.27936,1.06196-2.33926,1.38326-3.07184c1.45808-3.3244,2.36105-6.23334,3.4893-8.6503 c1.50681-3.22787,1.42913-6.39108,0.57451-9.76068c-3.42725-13.51312-7.23407-26.92673-10.50906-40.48016 c-1.44041-5.96109-3.14462-11.85904-4.7774-17.77231c-0.27792-1.00644-0.17799-1.53622,0.98117-1.55493 c1.45246-0.0235,2.83884-0.42413,4.19063-0.90134c1.75612-0.61996,2.38969-1.65048,2.14955-3.48892 c-0.13383-1.02457-0.39499-2.02304-0.3908-3.07611C83.37984,228.94699,83.33922,225.35126,83.31955,221.75558z M62.79568,315.17456 c-0.57931-0.94897-1.38702-2.73907-2.85501-4.97586c-1.92349-2.93085-2.04726-5.9993-1.39741-9.36694 c1.85216-9.59833,3.50462-19.23511,5.24139-28.85574c1.87801-10.40302,3.19639-20.91339,5.96277-31.1467 c0.03899-0.14426-0.00861-0.31192-0.01965-0.55313c-0.99025-0.48126-2.14071-0.33984-3.20589-0.60272 c-1.77792-0.43881-2.63891-1.5705-2.68396-3.19931c-0.08798-3.18118-0.35486-6.37698,0.18871-9.55005 c0.28497-1.66336,0.30398-3.33292,0.08927-5.00525c-6.16369-3.83319-12.66763-7.59247-19.52202-11.22256 c-1.3357-0.7074-2.66723-1.4006-3.99426-2.07999c-0.96047,0.04642-2.33458,0.21912-3.85291,0.81598 c-1.4295,0.56195-2.37438,1.30676-2.91261,1.65323c-6.50351,4.18643-12.18583,9.27194-16.77071,15.52649 c-2.02602,2.76385-4.36644,5.39374-5.60538,8.59879c-2.82291,7.30243-4.82622,14.86343-6.21204,22.57089 c-1.05717,5.8797-1.95157,11.78397-2.58303,17.73245c-0.44553,4.19693-1.05431,8.38281-1.23735,12.59784 c-0.19034,4.38333-0.6568,8.75565-0.57623,13.15125c0.00868,0.47348-0.08652,0.95013-0.14807,1.42346 c-0.53525,4.11664-0.71257,8.25272-0.70074,12.40073c0.00262,0.92053,0.29643,1.48642,1.30366,1.65521 c6.36365,1.06659,12.72429,2.15363,19.13704,2.88852c3.64033,0.41718,7.28771,0.77383,10.93344,1.14258 c3.62201,0.36633,9.29451,0.9295,12.12775,1.15591c5.13594,0.41043,12.77069,0.64618,22.92669-0.33826 C64.96099,318.80356,63.69899,316.65427,62.79568,315.17456z M63.32259,124.28779 c-3.83576,0.93007-7.86813,2.60828-11.55544,5.74581c-3.88219,3.30334-6.58393,7.54538-8.40538,11.26898 s-2.76262,6.92874-3.12368,8.15836c-0.00584,0.01987-0.01082,0.0369-0.01568,0.05353s-0.0096,0.0329-0.01497,0.0513 c-0.47947,1.64529-1.44058,5.01987-2.13844,9.36545c-0.69785,4.34558-1.13245,9.6622-0.55888,15.19159 c0.22684,2.18683,0.51809,4.9946,1.31059,8.13843c0.7925,3.1438,2.08624,6.62369,4.31807,10.15472 c3.11176,4.92319,7.45843,9.01443,12.48145,11.95749s10.72238,4.73792,16.53953,5.06839 c4.27477,0.24283,8.03199-0.33813,11.05401-1.129c3.02203-0.79083,5.30887-1.7915,6.6429-2.38809 c0.80435-0.35971,3.09971-1.41785,5.98115-3.36969c2.88145-1.95181,6.34898-4.79739,9.49767-8.73193 c4.63619-5.7933,7.60144-12.72336,8.91753-19.94656c1.31609-7.22324,0.983-14.73959-0.97747-21.70554 c-0.60731-2.15787-1.84431-6.55316-4.49959-11.30713c-2.65527-4.75394-6.72881-9.86652-13.00919-13.45896 c-4.40311-2.51863-8.80347-3.668-12.66141-4.15981c-3.85793-0.49182-7.17345-0.32605-9.40691-0.21439 C70.79752,123.17577,67.15835,123.35772,63.32259,124.28779z M338.44092,94.85046 c7.02954-6.7731,14.06415-13.53795,21.10376-20.29457c-2.03384-1.63432-4.06766-3.26866-6.1015-4.90298 c-3.25519,3.17761-6.51041,6.35524-9.76559,9.53285c-16.43997,13.90987-29.44952,25.60262-38.56543,33.97923 c-8.66937,7.96631-8.13965,7.71628-21.3038,19.86074c-9.92227,9.15369-16.86612,15.4241-26.83694,25.23132 c-3.57269,3.51407-6.47107,6.43671-8.37006,8.36569c0.44296,1.06448,1.39761,2.96576,3.32379,4.70871 c1.86005,1.68314,3.77032,2.44431,4.85989,2.78967C283.90298,147.59671,311.12158,121.17315,338.44092,94.85046z" fill="#f5ee8c"/></g><g id="change1_2"><path d="M288.30521,52.04743c41.18793,0,73.082-0.16773,104.9725,0.09668 c10.29153,0.0853,20.60266,0.00918,30.88062,0.49207c6.06686,0.28505,12.14169-0.05965,18.17422,0.43629 c6.14563,0.50523,12.29117,0.10709,18.41501,0.49032c2.70322,0.16917,5.40088,0.36118,8.10788,0.35949 c1.08429-0.00067,1.64359,0.3485,1.59668,1.51268c-0.22144,5.49704,0.4169,11.01561-0.42218,16.49934 c-0.09592,0.62651-0.05457,1.27602-0.05469,1.91486c-0.00281,11.51013-0.19214,23.02484,0.08472,34.52829 c0.12265,5.09767,0.54437,10.20876,0.29373,15.29736c-0.34186,6.93929-0.06158,13.89754-0.52594,20.80935 c-0.42404,6.31079,0.01089,12.61716-0.44043,18.89679c-0.32675,4.54657-0.66498,9.10718-0.29572,13.61816 c0.6666,8.14313,0.13144,16.28143,0.38452,24.41647c0.01248,0.39929,0.01199,0.79953,0.00082,1.19888 c-0.05469,1.95578-0.08957,1.89899-2.10477,1.65714c-2.69409-0.32339-5.40399-0.35822-8.10388,0.06577 c-0.7052,0.11075-1.42462,0.17087-2.13849,0.17905c-2.39761,0.02753-4.79611,0.05084-7.1936,0.02222 c-8.30212-0.09921-16.60092,0.33234-24.88367,0.64557c-7.98483,0.30188-15.96463,0.00833-23.93399,0.36594 c-20.12305,0.90314-40.26175-0.03693-60.37753,0.56287c-8.94156,0.26666-17.88837-0.0643-26.80869,0.42426 c-15.01178,0.8222-30.02576,0.13345-45.03464,0.44324c-1.38016,0.0285-2.34116-0.46741-3.40515-1.32565 c-5.73294-4.62427-10.58301-10.18585-16.0824-15.03238c-4.53809-3.99921-9.09821-7.98584-13.62405-12.00021 c-2.7395-2.4299-5.49451-4.86633-8.1003-7.45279c-0.45358-0.45026-0.89006-0.92722-1.39256-1.31683 c-1.21596-0.94275-1.52412-0.94958-2.62697,0.15179c-5.7688,5.76123-11.62007,11.44571-17.21953,17.36783 c-2.24504,2.37448-4.5721,4.68094-6.7394,7.12784c-4.22395,4.76901-8.5898,9.40833-12.64445,14.33545 c-1.79933,2.18652-3.56374,4.48773-5.90779,6.22345c-1.52063,1.12601-2.02083,1.34842-3.53104,0.35596 c-1.32788-0.87265-2.67065-1.77994-3.80049-2.88324c-1.69817-1.65823-3.79543-2.65137-5.81047-3.74323 c-6.31627-3.42233-12.30696-7.38257-18.49713-11.01096c-1.73875-1.0192-2.37677-2.57025-2.37148-4.62335 c0.04404-17.02444,0.29179-34.05554-0.09415-51.07162c-0.27525-12.13666,0.07146-24.28321-0.48639-36.39809 c-0.4156-9.02606,0.11664-18.05435-0.45648-27.04774c-0.47331-7.4269-0.20187-14.84058-0.39928-22.25713 c-0.01276-0.47926-0.01492-0.95951-0.00087-1.43867c0.05455-1.86131,0.06435-1.90726,1.88025-1.92757 c3.19691-0.03577,6.3965-0.09579,9.59126-0.00909c8.3858,0.22753,16.74477-0.70159,25.12968-0.51122 c3.515,0.07982,7.03616,0.08492,10.55023-0.01979C227.76912,51.43297,262.68765,52.39611,288.30521,52.04743z M254.60251,172.8299 c0.13937-0.078,0.36578-0.16461,0.54312-0.31073c0.98367-0.81039,1.98703-1.6008,2.92584-2.46112 c4.11499-3.77121,8.1991-7.57611,12.31528-11.34604c5.40936-4.95428,10.89517-9.82669,16.24124-14.84808 c4.47699-4.20508,9.03165-8.32721,13.4856-12.55322c5.8457-5.54653,11.76529-11.01612,17.56665-16.60653 c6.89575-6.64499,13.90982-13.16753,20.76053-19.85388c5.59088-5.45677,11.46268-10.63873,16.67664-16.47929 c0.74185-0.83102,1.89249-1.53967,2.15225-2.49562c0.3096-1.13925-1.24228-1.67465-1.82294-2.5938 c-0.25522-0.40396-0.51993-0.80745-0.82623-1.17268c-1.28415-1.53122-1.53778-1.48799-3.05527-0.25447 c-2.79443,2.27144-5.20374,4.94975-7.8876,7.33134c-4.70792,4.1778-9.48639,8.27602-14.22507,12.41927 c-2.94055,2.571-5.86569,5.15971-8.79172,7.74725c-5.19342,4.59271-10.46075,9.1058-15.5488,13.81256 c-4.215,3.89911-8.41647,7.81177-12.65555,11.68585c-5.47595,5.00443-10.85126,10.12009-16.22342,15.23667 c-5.43335,5.17487-10.80994,10.40933-16.21176,15.61725c-0.22998,0.22171-0.44894,0.45804-0.69778,0.65656 c-3.57162,2.84872-6.51157,6.35089-9.81973,9.47125c-0.76309,0.71976-0.70291,1.2504,0.01089,1.97784 c1.45078,1.47855,3.04352,2.83099,4.22348,4.56366C253.9151,172.6337,254.15143,172.86896,254.60251,172.8299z M283.24863,39.54166 c58.50159-0.1965,129.38684,0.45921,186.5477,1.17088c0.21667-5.74663,0.43332-11.49326,0.64999-17.23988 c0.11438-2.20273,0.14423-4.61443,0.03485-7.20418c-0.10419-2.46684-0.32059-4.7606-0.59937-6.85835 c-7.81128-0.11559-19.45526-0.25163-33.69534-0.27707c-7.36334-0.01315-12.82172,0.00791-14.89432,0.01575 c-12.85443,0.04864-40.08566,0.13586-100.32037,0.30285C320.70453,6.30111,320.43726,3.15056,320.17001,0 c-6.72311,0.15966-13.4462,0.31931-20.16931,0.47897c-0.0387,3.14796-0.07742,6.29591-0.11612,9.44386 c-0.66623,0.12193-1.33243,0.24387-1.99866,0.36581c-37.76886-0.32865-75.55588,0.66763-113.30763,0.08757 c-12.03944-0.63315-24.04375,0.27556-36.03995,1.41129c-1.2001,0.28579-4.15785,0.18568-3.69655,2.0294 c-0.13261,8.46967,0.11302,16.98597,0.43095,25.51179c-0.00363,1.61655,0.08173,1.69525,1.88026,1.65462 c0.68385-0.01545,42.39783-0.55724,125.85233-1.40172C273.82285,39.57333,276.96478,39.56277,283.24863,39.54166z M263.13599,277.04361c-9.85516,11.84122-18.37732,23.34341-25.72241,34.14676c-0.90347,1.12329-1.80693,2.24658-2.7104,3.36987 c5.73767,0.42188,11.47536,0.84378,17.21303,1.26566c0.42975-0.52594,1.7244-2.10962,2.17142-2.65622 c31.86636-38.96292,41.74866-50.00015,53.67685-61.99036c1.1445-1.15045,3.21487-3.20609,5.91614-5.72433 c7.9931,7.17084,16.31827,15.26016,24.72806,24.34732c13.08447,14.1384,23.883,28.00101,32.74808,40.77054 c5.22949-0.65677,10.45901-1.31351,15.68851-1.97028c-8.69699-10.88828-17.49765-21.81757-26.40292-32.78534 c-8.5401-10.51801-17.06525-20.93454-25.57315-31.24994c33.53088,1.59384,67.22021-0.16284,100.83978-1.10858 c10.0589,0.05658,20.05695-0.5441,30.10202-1.0173c3.62616-0.00635,3.63965-0.02573,4.42398-3.52637 c0.71573-7.05612-0.69504-14.17688-0.33463-21.26761c0.13834-2.44897-2.49402-1.16516-3.98734-1.12314 c-0.52341,0.01474-35.83093,0.7258-106.50049,1.84268c-24.92874,0.39398-61.66476,0.70499-110.99301,0.22308 c-3.39951,4.42062-6.96246,9.75476-10.23322,16.05112c-1.50024,2.88806-2.7883,5.68842-3.89723,8.3609 c10.4901,0.6279,21.59923,0.97348,33.26909,0.92325c9.37564-0.04037,18.37799-0.33304,26.97614-0.81744 C284.48499,252.88678,273.85791,264.16098,263.13599,277.04361z M67.46231,323.35358 c0.94523,1.58386,2.24527,3.23029,4.26243,6.78616c1.05437,1.85867,2.66715,4.52359,4.9746,7.73068 c1.36066-2.11316,2.46055-3.89368,3.24656-5.18604c3.06802-5.04443,4.07854-6.88318,4.49686-7.68503 c0.90192-1.72885,1.65639-3.32764,1.8316-3.70026c0.14226-0.30255,0.61975-1.32193,1.38326-3.07184 c1.84136-4.22028,2.87605-7.33658,3.4893-8.6503c1.50681-3.22787,1.42913-6.39108,0.57451-9.76068 c-3.42725-13.51312-7.23407-26.92673-10.50906-40.48016c-1.44041-5.96109-3.14462-11.85904-4.7774-17.77231 c-0.27792-1.00644-0.17799-1.53622,0.98117-1.55493c1.45246-0.0235,2.83884-0.42413,4.19063-0.90134 c1.75612-0.61996,2.38969-1.65048,2.14955-3.48892c-0.13383-1.02457-0.39499-2.02304-0.3908-3.07611 c0.01431-3.59552-0.02631-7.19125-0.04571-10.78659c-1.21388-1.41034-2.82046-1.75854-4.51147-1.36642 c-2.97772,0.69052-5.97961,0.43237-8.97041,0.4046c-2.0111-0.01868-3.9357,0.13004-5.72204,1.12476 c0.21471,1.67233,0.19569,3.34189-0.08927,5.00525c-0.54356,3.17307-0.27669,6.36887-0.18871,9.55005 c0.04505,1.62881,0.90604,2.7605,2.68396,3.19931c1.06518,0.26288,2.21564,0.12146,3.20589,0.60272 c0.01105,0.24121,0.05865,0.40887,0.01965,0.55313c-2.76638,10.23331-4.08475,20.74368-5.96277,31.1467 c-1.73678,9.62064-3.38924,19.25742-5.24139,28.85574c-0.64985,3.36765-0.52608,6.4361,1.39741,9.36694 c1.55943,2.37613,2.4547,4.32825,2.85501,4.97586C65.06208,318.84113,64.77577,318.85193,67.46231,323.35358z" fill="#f5ee8c"/></g><g id="change2_1"><path d="M83.31955,221.75558c10.71046-4.85812,21.42091-9.71625,32.13137-14.57437 c1.89818,0.12524,4.68254,0.40427,7.97678,1.10211c6.92228,1.46637,11.34051,3.87674,18.20983,7.26288 c10.10555,4.98138,20.16504,10.05612,30.2599,15.0593c2.64659,1.31174,5.37981,2.44965,8.01733,3.77835 c1.07796,0.54306,1.74948,0.2724,2.5202-0.49344c4.25153-4.22488,8.46614-8.47574,12.11005-13.26004 c6.14381-8.06662,12.44725-16.00443,18.99689-23.75034c3.50301-4.14291,6.75301-8.49973,10.11682-12.76028 c0.198-0.25082,0.41589-0.48987,0.58415-0.75961c0.61427-0.9848,1.34602-0.97897,2.18451-0.29889 c1.92244,1.55939,3.89258,3.06335,5.76326,4.68234c3.92406,3.39618,7.79752,6.85074,11.68961,10.28378 c1.80942,1.59601,1.78836,1.58652,0.45197,3.66769c-5.95291,9.27051-10.85645,19.18338-16.72029,28.5105 c-6.66431,10.60031-4.69212,8.80664-13.15816,22.54599c-5.69029,9.23465-10.10748,15.76761-11.86246,18.34 c-4.44995,6.52261-8.50244,12.08737-11.85361,16.54315c-0.4698,0.14041-1.08331,0.26068-1.79547,0.22763 c-0.71915-0.03339-1.25459-0.21078-1.47212-0.28351c-7.04434-2.3555-14.06688-4.75894-20.73114-8.09155 c-8.35983-4.18045-16.75717-8.28787-24.81511-13.04288c-0.53389-0.31506-1.06563-0.69724-1.74063-0.68732 c-0.37718,0.82739-0.2525,1.64951-0.12753,2.39728c0.53081,3.17624,0.27573,6.37817,0.43115,9.56479 c0.52182,10.69772,0.40849,21.40482,0.50684,32.10883c0.00514,0.55951-0.02853,1.12186,0.01608,1.67804 c0.09676,1.20523-0.48618,1.69287-1.63802,1.87305c-4.88225,0.76376-9.75363,1.59647-14.6314,2.3891 c-4.48387,0.7287-8.97774,1.39847-13.45309,2.17563c-2.82216,0.49008-4.93667,0.56696-5.46249,0.60861 c-2.33444,0.18497-7.47773,0.82498-19.55042,2.7467c0.59101-1.27936,1.06196-2.33926,1.38326-3.07184 c1.45808-3.3244,2.36105-6.23334,3.4893-8.6503c1.50681-3.22787,1.42913-6.39108,0.57451-9.76068 c-3.42725-13.51312-7.23407-26.92673-10.50906-40.48016c-1.44041-5.96109-3.14462-11.85904-4.7774-17.77231 c-0.27792-1.00644-0.17799-1.53622,0.98117-1.55493c1.45246-0.0235,2.83884-0.42413,4.19063-0.90134 c1.75612-0.61996,2.38969-1.65048,2.14955-3.48892c-0.13383-1.02457-0.39499-2.02304-0.3908-3.07611 C83.37984,228.94699,83.33922,225.35126,83.31955,221.75558z M62.79568,315.17456c-0.57931-0.94897-1.38702-2.73907-2.85501-4.97586 c-1.92349-2.93085-2.04726-5.9993-1.39741-9.36694c1.85216-9.59833,3.50462-19.23511,5.24139-28.85574 c1.87801-10.40302,3.19639-20.91339,5.96277-31.1467c0.03899-0.14426-0.00861-0.31192-0.01965-0.55313 c-0.99025-0.48126-2.14071-0.33984-3.20589-0.60272c-1.77792-0.43881-2.63891-1.5705-2.68396-3.19931 c-0.08798-3.18118-0.35486-6.37698,0.18871-9.55005c0.28497-1.66336,0.30398-3.33292,0.08927-5.00525 c-6.16369-3.83319-12.66763-7.59247-19.52202-11.22256c-1.3357-0.7074-2.66723-1.4006-3.99426-2.07999 c-0.96047,0.04642-2.33458,0.21912-3.85291,0.81598c-1.4295,0.56195-2.37438,1.30676-2.91261,1.65323 c-6.50351,4.18643-12.18583,9.27194-16.77071,15.52649c-2.02602,2.76385-4.36644,5.39374-5.60538,8.59879 c-2.82291,7.30243-4.82622,14.86343-6.21204,22.57089c-1.05717,5.8797-1.95157,11.78397-2.58303,17.73245 c-0.44553,4.19693-1.05431,8.38281-1.23735,12.59784c-0.19034,4.38333-0.6568,8.75565-0.57623,13.15125 c0.00868,0.47348-0.08652,0.95013-0.14807,1.42346c-0.53525,4.11664-0.71257,8.25272-0.70074,12.40073 c0.00262,0.92053,0.29643,1.48642,1.30366,1.65521c6.36365,1.06659,12.72429,2.15363,19.13704,2.88852 c3.64033,0.41718,7.28771,0.77383,10.93344,1.14258c3.62201,0.36633,9.29451,0.9295,12.12775,1.15591 c5.13594,0.41043,12.77069,0.64618,22.92669-0.33826C64.96099,318.80356,63.69899,316.65427,62.79568,315.17456z M63.32259,124.28779c-3.83576,0.93007-7.86813,2.60828-11.55544,5.74581c-3.88219,3.30334-6.58393,7.54538-8.40538,11.26898 s-2.76262,6.92874-3.12368,8.15836c-0.00584,0.01987-0.01082,0.0369-0.01568,0.05353s-0.0096,0.0329-0.01497,0.0513 c-0.47947,1.64529-1.44058,5.01987-2.13844,9.36545c-0.69785,4.34558-1.13245,9.6622-0.55888,15.19159 c0.22684,2.18683,0.51809,4.9946,1.31059,8.13843c0.7925,3.1438,2.08624,6.62369,4.31807,10.15472 c3.11176,4.92319,7.45843,9.01443,12.48145,11.95749s10.72238,4.73792,16.53953,5.06839 c4.27477,0.24283,8.03199-0.33813,11.05401-1.129c3.02203-0.79083,5.30887-1.7915,6.6429-2.38809 c0.80435-0.35971,3.09971-1.41785,5.98115-3.36969c2.88145-1.95181,6.34898-4.79739,9.49767-8.73193 c4.63619-5.7933,7.60144-12.72336,8.91753-19.94656c1.31609-7.22324,0.983-14.73959-0.97747-21.70554 c-0.60731-2.15787-1.84431-6.55316-4.49959-11.30713c-2.65527-4.75394-6.72881-9.86652-13.00919-13.45896 c-4.40311-2.51863-8.80347-3.668-12.66141-4.15981c-3.85793-0.49182-7.17345-0.32605-9.40691-0.21439 C70.79752,123.17577,67.15835,123.35772,63.32259,124.28779z M338.44092,94.85046 c7.02954-6.7731,14.06415-13.53795,21.10376-20.29457c-2.03384-1.63432-4.06766-3.26866-6.1015-4.90298 c-3.25519,3.17761-6.51041,6.35524-9.76559,9.53285c-16.43997,13.90987-29.44952,25.60262-38.56543,33.97923 c-8.66937,7.96631-8.13965,7.71628-21.3038,19.86074c-9.92227,9.15369-16.86612,15.4241-26.83694,25.23132 c-3.57269,3.51407-6.47107,6.43671-8.37006,8.36569c0.44296,1.06448,1.39761,2.96576,3.32379,4.70871 c1.86005,1.68314,3.77032,2.44431,4.85989,2.78967C283.90298,147.59671,311.12158,121.17315,338.44092,94.85046z" fill="#b89c3d"/></g></svg>