<?xml version="1.0" encoding="UTF-8" standalone="no"?><svg xmlns="http://www.w3.org/2000/svg" xmlns:xlink="http://www.w3.org/1999/xlink" fill="#000000" height="312.6" preserveAspectRatio="xMidYMid meet" version="1" viewBox="-0.0 -0.4 470.1 312.6" width="470.1" zoomAndPan="magnify"><g id="change1_1"><path d="M363.73947,269.38214c-6.88547,0.69934-13.82419,0.0842-20.70755,0.83847 c-0.16745,0.01837-0.3374,0.02658-0.50577,0.02191c-5.23495-0.14542-10.44165,0.5238-15.66907,0.55386 c-7.84564,0.04514-15.6799,0.48593-23.52222,0.66608c-6.98502,0.16049-13.97495,0.58093-20.95215,1.01242 c-7.7431,0.47897-15.47775,0.87659-23.23804,0.86551c-14.18227-0.02026-28.36813-0.133-42.54581,0.13992 c-8.93941,0.17212-17.88907,0.13428-26.81654,0.54025c-6.83308,0.31064-13.66867,0.10147-20.48828,0.45276 c-13.15756,0.6777-26.32874,0.12738-39.48074,0.5593c-13.24788,0.43509-26.50121-0.02216-39.73717,0.48105 c-7.50664,0.28537-15.01254,0.21988-22.5137,0.47354c-6.98874,0.2363-13.98922,0.43558-20.95268,1.02652 c-7.67755,0.65149-15.35175,0.5835-23.01182,0.26126c-5.05937-0.21286-10.11025-0.26569-15.16722-0.31729 c-1.86209-0.01898-1.89278-0.05411-1.92239-2.07104c-0.03966-2.70093-0.03392-5.40265-0.03275-8.10406 c0.00888-20.51381,0.14827-41.02873-0.03221-61.54085c-0.06823-7.75487-0.13997-15.52504-0.52445-23.27101 c-0.26369-5.31261-0.18419-10.62573-0.45052-15.93007c-0.43968-8.7572-0.67417-17.52155-1.03918-26.28027 c-0.36153-8.67484-0.64826-17.35272-1.03894-26.02435c-0.23168-5.14262-0.10061-10.29688-0.48843-15.41971 c-0.4468-5.90187-0.13462-11.81265-0.50341-17.70084c-0.29568-4.72073-0.34283-9.43778-0.39359-14.15902 c-0.02373-2.20805,0.0193-2.18879,2.24499-2.25262c6.66714-0.19123,13.31639,0.66405,19.98166,0.37106 c10.034-0.44109,20.08182-0.19672,30.1101-0.57429c5.47963-0.20633,10.96451-0.1412,16.43563-0.45358 c6.72411-0.38394,13.43539-1.0046,20.16129-1.34235c8.42375-0.42305,16.85577-0.62023,25.29395-0.66432 c6.99744-0.03654,14.00565-0.21536,20.98763-0.57119c10.37961-0.52899,20.75673-0.02271,31.1263-0.40031 c8.41649-0.30649,16.83041-0.67973,25.22989-1.35793c3.35574-0.27096,6.73093-0.39697,10.09425-0.54216 c17.96259-0.77538,35.94077-0.6037,53.9144-0.64442c19.07867-0.04322,38.1575-0.05112,57.23615-0.00844 c2.87408,0.00643,5.72284-0.44664,8.58676-0.3292c8.43106,0.34573,16.87836,0.13457,25.29834,0.54272 c7.08716,0.34354,14.17426,0.09768,21.24799,0.44055c6.15289,0.29823,12.31998,0.16975,18.45587,0.56138 c5.82056,0.37146,11.64062,0.14518,17.44748,0.45206c7.33572,0.3877,14.67084,0.3489,22.0087,0.37439 c2.15573,0.00748,2.18982,0.03633,2.19165,2.30848c0.01215,14.77337,0.00107,29.54674,0.01251,44.32011 c0.00543,7.00674-0.16302,14.02187,0.12198,21.01799c0.32285,7.929,0.2027,15.85854,0.45914,23.78197 c0.05951,1.83745-0.08124,3.65759-0.02164,5.48479c0.43433,13.32684,0.29584,26.66159,0.55103,39.99002 c0.14526,7.58224,0.44867,15.17056,0.99847,22.73306c0.40872,5.6237,0.58093,11.27061,1.31467,16.87268 c0.16327,1.24605,0.05777,2.52728,0.07608,3.79289c-7.87338-6.0808-15.5246-12.4357-23.16281-18.80659 c-6.08762-5.07744-12.09225-10.25237-18.21002-15.29582c-5.54138-4.56831-11.71881-8.26663-17.2012-12.89943 c-0.1911-0.16151-0.40497-0.31509-0.63409-0.40952c-2.16025-0.89043-3.5697,0.0078-3.53635,2.26495 c0.06119,4.13773-0.19974,8.25964-0.56305,12.37776c-0.38504,4.36469-0.68591,8.73828-1.15768,13.09344 c-0.71643,6.61412-1.61716,13.20851-2.31372,19.82452c-0.79361,7.53809-1.37076,15.0995-2.21542,22.6313 C364.34274,265.21793,364.49103,267.36835,363.73947,269.38214z M108.43828,147.85301 c23.0452,0.15358,46.09335-0.25334,69.13626,0.39461c4.19785,0.11804,4.2524,0.03976,3.60843-4.02109 c-1.65584-10.44211-2.30363-20.9629-2.57352-31.51634c-0.1144-4.4721-0.2645-8.9437-0.32875-13.4165 c-0.01845-1.28472-0.4762-1.76852-1.77994-1.77975c-3.54379-0.03046-7.08603-0.20828-10.62988-0.26707 c-15.19502-0.25211-30.39096-0.11659-45.58675-0.08889c-23.29752,0.04247-46.59429,0.69503-69.89284,0.07423 c-4.80991-0.12816-9.62216-0.1683-14.43326-0.25265c-0.88439-0.0155-1.54458-0.06126-1.56507,1.27472 c-0.2331,15.201,0.28372,30.38202,1.07294,45.55757c0.17173,3.30234,0.17362,3.30154,3.58488,3.27539 c0.42205-0.00325,0.84417,0.00636,1.26626,0.00958C63.02501,147.27058,85.72803,147.88612,108.43828,147.85301z M157.36752,179.23369c-20.71344,0.58504-41.89668,0.87035-63.08284,1.00836c-16.71181,0.10886-33.42509,0.13811-50.13251,0.61882 c-0.59063,0.01697-1.1824,0.05977-1.77177,0.03862c-1.05129-0.03775-1.52421,0.36876-1.48014,1.49008 c0.06958,1.76981,0.00102,3.54456,0.01826,5.31697c0.02005,2.06277,0.03274,2.09673,2.08814,2.10149 c5.57089,0.01295,11.14184-0.00214,16.71278-0.01256c25.407-0.04749,50.81275-0.29022,76.21549-0.72342 c24.13635-0.41154,48.27011-0.96237,72.41147-1.02121c20.51289-0.05,41.01845,0.47758,61.52744,0.73442 c0.84409,0.01057,1.68924-0.01605,2.5322,0.01729c0.78738,0.03113,1.30469-0.21942,1.39081-1.07645 c0.26151-2.60233,0.53259-5.2037,0.79315-7.80614c0.07623-0.76163-0.3428-1.06296-1.04852-1.07613 c-0.59076-0.011-1.18137-0.02971-1.77213-0.03809c-8.18655-0.11635-16.37413-0.18314-24.55946-0.35565 C217.40933,177.82216,187.62383,178.83269,157.36752,179.23369z M158.03807,242.36864 c12.39798-0.44661,24.79416-0.9511,37.19431-1.32652c19.82431-0.60025,39.6515-1.10545,59.47687-1.67146 c5.65199-0.16136,11.30238-0.38307,16.95259-0.60042c1.79242-0.06895,1.80814-0.10269,1.89456-1.87299 c0.10287-2.10709,0.2106-4.21519,0.24457-6.32402c0.02628-1.63222-0.035-1.68939-1.73279-1.6452 c-2.36179,0.06143-4.72055,0.2513-7.08231,0.29742c-20.59364,0.40247-41.14536,1.75154-61.71091,2.76732 c-19.64159,0.97014-39.27759,2.00276-58.95282,1.79639c-9.19916-0.09647-18.39809-0.22298-27.59677-0.35985 c-15.1897-0.22601-30.37023-0.9055-45.56517-0.89325c-8.87148,0.00714-17.70735,0.64195-26.54019,1.36194 c-1.73158,0.1411-1.75003,0.16516-1.78721,1.99945c-0.03077,1.51863-0.0039,3.03841-0.00584,4.55765 c-0.00434,3.39047-0.0937,3.00394,3.05777,2.89871c8.43505-0.28163,16.86626-0.67163,25.30952-0.63084 C100.14333,242.86287,129.09335,243.22043,158.03807,242.36864z M281.87241,124.47756 c26.45612-0.22669,50.8447-0.4164,75.2327-0.66479c3.79376-0.03862,7.58884-0.28664,11.37552-0.54982 c2.2157-0.154,2.20538-0.25396,2.31958-2.37453c0.06802-1.26368,0.14429-2.52695,0.22498-3.78992 c0.13577-2.12653,0.13992-2.15897-1.9025-2.25138c-2.52856-0.1144-5.05978-0.23343-7.59003-0.23748 c-28.77756-0.04604-57.55365-0.28859-86.32895-0.62337c-14.17783-0.16492-28.33949-0.86512-42.50478-1.4251 c-9.78407-0.38682-19.56497-0.70301-29.35199-0.10391c-4.0184,0.24595-4.01933,0.22406-4.35556,4.10779 c-0.02913,0.33611-0.07523,0.67082-0.10182,1.00709c-0.13304,1.68135-0.25748,3.36338-0.39479,5.04436 c-0.06941,0.84962,0.29434,1.25636,1.15843,1.22079c0.58998-0.02433,1.18135-0.01475,1.77197-0.02498 c5.23087-0.09068,10.46765-0.38867,15.69151-0.23792C239.38745,124.21699,261.65637,124.85117,281.87241,124.47756z M341.61462,198.85536c1.51801,0,3.62753-0.03085,5.73547,0.0132c1.03418,0.02159,1.60217-0.3331,1.60818-1.42145 c0.013-2.362,0.10696-4.726,0.03622-7.08522c-0.04932-1.64595-0.49426-2.06544-2.20325-2.06157 c-2.78662,0.00627-5.55313-0.29221-8.33014-0.39204c-8.25281-0.29688-16.51407-0.37173-24.75223-1.03548 c-1.42734-0.11505-2.86649-0.07837-4.29953-0.13019c-0.95572-0.03458-1.39496,0.34036-1.28693,1.35182 c0.29483,2.76163,0.61761,5.52336,0.78851,8.29373c0.07941,1.28749,0.69946,1.51311,1.77988,1.496 c2.10864-0.03342,4.22043-0.04887,6.32748,0.02643C325.01978,198.19653,333.01984,198.52176,341.61462,198.85536z M412.49869,148.1545c-8.29263,9.43495-15.84027,19.21242-23.78458,28.78706c1.8338,1.85242,3.64249,3.71405,5.491,5.53535 c1.37772,1.35753,1.41565,1.34904,2.74466-0.00815c5.12408-5.23277,10.20471-10.50865,15.37009-15.70015 c2.3295-2.34126,4.01508-5.17949,6.19821-7.62556c0.88046-0.98656,1.0834-2.02724,0.25766-3.19974 C416.89023,153.26628,414.75552,150.80254,412.49869,148.1545z M363.21954,176.12291 c2.0217-0.31703,3.82614-1.22246,5.66284-2.06662c1.20514-0.55389,1.35803-1.32768,0.80856-2.41528 c-0.18915-0.3744-0.32816-0.77464-0.48315-1.16582c-2.94366-7.43066-6.4184-14.64482-9.07941-22.18959 c-0.89468-2.53661-1.70578-5.10506-2.46909-7.68439c-0.30908-1.04459-0.74661-1.69955-1.9274-1.39996 c-3.26059,0.8273-6.5296,1.62616-9.62589,2.9902c-1.04861,0.46188-1.46182,1.06947-0.7619,2.13837 c0.27548,0.42067,0.46808,0.89474,0.71219,1.33684c3.49918,6.33617,6.97394,12.68597,10.51285,18.99985 c1.81351,3.23553,3.45789,6.54741,4.93161,9.94814C361.8309,175.37643,362.06659,176.27425,363.21954,176.12291z M363.36734,42.285 c-16.28992,0-32.58493,0.26192-48.86877-0.05299c-37.1304-0.71809-74.26038-0.36547-111.38979-0.24544 c-9.86258,0.03188-19.73953,0.15046-29.59593,0.53755c-5.56342,0.2185-11.12955,0.16449-16.68515,0.44571 c-8.66986,0.43891-17.34464,0.70926-26.01811,1.03765c-8.08176,0.30598-16.16218,0.68123-24.24358,1.01801 c-8.67251,0.3614-17.34765,0.65912-26.0168,1.04622c-5.31118,0.23717-10.62531,0.13273-15.92468,0.43984 c-12.73104,0.73775-25.47721,0.17231-38.20647,0.56997c-5.3971,0.16861-10.79027,0.141-16.18323,0.27602 c-2.4569,0.06151-4.87219-0.44206-7.31955-0.34645c-1.12444,0.04392-1.42216-0.54091-1.4544-1.55766 c-0.09608-3.03064-0.29922-6.05794-0.39027-9.08865c-0.23297-7.75432-0.38154-15.51152-0.66865-23.26369 c-0.0777-2.09808-0.37573-4.18955-0.4016-6.30065C-0.01551,5.50596,0.50703,4.961,1.78282,4.94836 c3.03326-0.03007,6.0546-0.26775,9.08176-0.47703C23.83599,3.57453,36.83889,4.0825,49.82211,3.76016 c32.90843-0.8171,65.82497,0.13139,98.72792-0.51939c26.66658-0.52741,53.33029-0.47726,79.9904-0.18487 c14.76268,0.16192,29.53421-0.05579,44.28656,0.47172c8.18167,0.29258,16.36633,0.09155,24.53571,0.46955 c14.25577,0.65962,28.5141,0.40724,42.7691,0.28403c8.42169-0.07277,16.84521-0.52755,25.25638-1.01167 c5.63129-0.32413,11.26431-0.66382,16.8902-1.04292c5.14365-0.34662,10.29602-0.09302,15.41379-0.4956 c6.55847-0.51593,13.15433-0.06272,19.68903-0.93352c1.83426-0.24442,3.67633-0.43449,5.50589-0.70912 c3.46558-0.52019,5.19598,1.31214,5.53961,4.02992c0.27432,2.16953,0.47168,4.36044,0.51294,6.54544 c0.09552,5.06286,0.13287,10.12844,0.08545,15.19191c-0.0426,4.55799,0.28247,9.09841,0.43414,13.64705 c0.07941,2.38103,0.01727,2.36443-2.30679,2.42327C405.89359,42.4642,384.62958,42.31938,363.36734,42.285z M103.0809,17.93144 c-3.45866,0-6.91943-0.07879-10.37565,0.01323c-17.79504,0.47387-35.57539,1.57363-53.38942,1.22894 c-0.42171-0.00816-0.84573,0.03022-1.26538,0.00042c-1.06846-0.07584-1.51955,0.35406-1.48006,1.46931 c0.07167,2.02301,0.03477,4.04977,0.04826,6.07495c0.01424,2.13604,0.01406,2.21374,2.25497,2.29399 c5.81744,0.20834,11.63663,0.4205,17.45682,0.48976c15.61631,0.1858,31.21389-0.33365,46.79451-1.40301 c10.18643-0.69912,20.38367-1.25589,30.5922-1.39792c10.88634-0.15148,21.76472-0.435,32.63493-1.03941 c1.0134-0.05635,2.01559-0.14742,2.99678-0.43846c0.84787-0.25149,1.27963-0.77176,1.21603-1.66348 c-0.10794-1.51348-0.13795-3.03936-0.36183-4.53593c-0.24876-1.66269-0.84314-2.10027-2.57732-2.12015 c-1.09534-0.01257-2.19185,0.10776-3.28773,0.10603C143.91617,16.97756,123.50069,17.51646,103.0809,17.93144z M412.63962,6.85038 c-0.40787,0.34591-0.75372,0.58163-1.02927,0.8819c-2.56512,2.79554-5.11771,5.60255-7.6748,8.40546 c-1.6076,1.76218-1.59607,1.74903-3.23563,0.1459c-2.1702-2.12185-4.3204-4.26691-6.55466-6.31981 c-3.01102-2.7666-3.0419-2.73305-5.85577,0.03874c-0.18024,0.17755-0.36099,0.35458-0.53897,0.53429 c-1.55365,1.56865-1.56488,1.57798-0.23654,3.22411c2.43707,3.02022,4.99451,5.93459,7.69504,8.72366 c1.59073,1.64287,1.88354,1.33397,0.06964,3.37072c-2.40344,2.69871-4.79813,5.40522-7.26633,8.18698 c1.71698,1.70879,3.34396,3.28535,4.91809,4.91306c0.75342,0.77901,1.28922,0.47428,1.87674-0.16869 c1.99026-2.17801,4.01288-4.32678,5.98502-6.52094c1.97263-2.19468,1.95062-2.21062,4.07602-0.17121 c2.85083,2.73544,5.84436,5.2949,9.15884,7.59431c0.56976-0.6991,1.07181-1.26343,1.51651-1.86983 c1.89139-2.57907,2.10974-1.81445,0.15057-4.68752c-1.90509-2.79382-4.19254-5.28428-6.49036-7.75121 c-0.90701-0.97375-1.18341-1.73204-0.06165-2.69603c0.57068-0.49036,1.0112-1.12942,1.53162-1.68139 c2.08591-2.21224,3.97537-4.58615,5.80591-7.00969c0.45703-0.60506,1.00378-1.13115,0.30707-1.96635 C415.38947,10.35192,414.05487,8.62472,412.63962,6.85038z M363.73947,269.38214c0.75156-2.01379,0.60327-4.16422,0.83627-6.2417 c0.84467-7.5318,1.42181-15.09322,2.21542-22.6313c0.69656-6.61601,1.59729-13.2104,2.31372-19.82452 c0.47177-4.35516,0.77264-8.72876,1.15768-13.09344c0.36331-4.11812,0.62424-8.24004,0.56305-12.37776 c-0.03336-2.25716,1.3761-3.15538,3.53635-2.26495c0.22913,0.09442,0.44299,0.248,0.63409,0.40952 c5.48239,4.6328,11.65982,8.33112,17.2012,12.89943c6.11777,5.04346,12.12241,10.21838,18.21002,15.29582 c7.63821,6.3709,15.28943,12.7258,23.16281,18.80659c4.30353,3.52182,8.62735,7.01988,12.90485,10.57362 c4.01761,3.33781,7.99438,6.72495,11.97366,10.10849c2.69611,2.29242,5.32401,4.66705,8.06381,6.90515 c1.43948,1.17584,1.88831,2.93097,2.85678,4.37274c0.70306,1.0466-0.34921,2.30023-1.96323,2.52005 c-1.58463,0.21582-3.18134,0.37344-4.77802,0.46408c-8.44049,0.47928-16.8634-0.22794-25.28229-0.57904 c-6.04114-0.25189-12.07544-0.99545-18.02158-2.25125c-0.76691-0.16196-1.77979-0.57547-2.33035,0.2551 c-0.47131,0.71088,0.25031,1.4299,0.57394,2.08582c3.02496,6.13046,6.64471,11.93472,9.87323,17.95386 c1.23584,2.30411,2.461,4.61478,3.63818,6.94916c0.80997,1.60632,0.73331,1.80609-0.78464,2.49207 c-6.53186,2.95175-13.07788,5.8718-19.47574,9.11108c-1.67822,0.8497-1.7623,0.82751-2.54596-1.06235 c-2.45483-5.91977-4.72205-11.91116-6.55591-18.05627c-1.18192-3.96045-2.52127-7.86609-3.97647-11.73218 c-0.47073-1.25055-0.77048-1.32178-1.76474-0.51328c-0.52209,0.42459-0.98224,0.92529-1.47003,1.39197 c-4.57059,4.3725-9.08029,8.81097-13.728,13.09991c-5.02686,4.63876-10.6467,8.54175-16.14499,12.58914 c-0.33752,0.24844-0.7168,0.44724-1.09436,0.63303c-1.94339,0.95657-2.72827,0.38544-2.64545-1.85425 c0.11462-3.09842,0.1853-6.19843,0.27896-9.29761c0.13754-4.54993,0.86298-9.04581,1.24704-13.57242 C362.80301,278.41895,363.6644,273.93872,363.73947,269.38214z M347.3501,198.86856c1.03418,0.02159,1.60217-0.3331,1.60818-1.42145 c0.013-2.362,0.10696-4.726,0.03622-7.08522c-0.04932-1.64595-0.49426-2.06544-2.20325-2.06157 c-2.78662,0.00627-5.55313-0.29221-8.33014-0.39204c-8.25281-0.29688-16.51407-0.37173-24.75223-1.03548 c-1.42734-0.11505-2.86649-0.07837-4.29953-0.13019c-0.95572-0.03458-1.39496,0.34036-1.28693,1.35182 c0.29483,2.76163,0.61761,5.52336,0.78851,8.29373c0.07941,1.28749,0.69946,1.51311,1.77988,1.496 c2.10864-0.03342,4.22043-0.04887,6.32748,0.02643c8.00146,0.28593,16.00153,0.61116,24.59631,0.94476 C343.13263,198.85536,345.24216,198.82451,347.3501,198.86856z M388.71411,176.94156c1.8338,1.85242,3.64249,3.71405,5.491,5.53535 c1.37772,1.35753,1.41565,1.34904,2.74466-0.00815c5.12408-5.23277,10.20471-10.50865,15.37009-15.70015 c2.3295-2.34126,4.01508-5.17949,6.19821-7.62556c0.88046-0.98656,1.0834-2.02724,0.25766-3.19974 c-1.8855-2.67703-4.0202-5.14078-6.27704-7.78882C404.20605,157.58945,396.65842,167.36691,388.71411,176.94156z M368.88239,174.05629c1.20514-0.55389,1.35803-1.32768,0.80856-2.41528c-0.18915-0.3744-0.32816-0.77464-0.48315-1.16582 c-2.94366-7.43066-6.4184-14.64482-9.07941-22.18959c-0.89468-2.53661-1.70578-5.10506-2.46909-7.68439 c-0.30908-1.04459-0.74661-1.69955-1.9274-1.39996c-3.26059,0.8273-6.5296,1.62616-9.62589,2.9902 c-1.04861,0.46188-1.46182,1.06947-0.7619,2.13837c0.27548,0.42067,0.46808,0.89474,0.71219,1.33684 c3.49918,6.33617,6.97394,12.68597,10.51285,18.99985c1.81351,3.23553,3.45789,6.54741,4.93161,9.94814 c0.33014,0.7618,0.56583,1.65961,1.71878,1.50827C365.24124,175.80588,367.04568,174.90045,368.88239,174.05629z M108.43829,147.85265c-22.71027,0.03348-45.41329-0.58206-68.12125-0.75581c-0.42209-0.00322-0.84421-0.01283-1.26626-0.00958 c-3.41125,0.02615-3.41314,0.02695-3.58488-3.27539c-0.78923-15.17555-1.30605-30.35658-1.07294-45.55757 c0.02048-1.33598,0.68068-1.29022,1.56507-1.27472c4.8111,0.08434,9.62335,0.12449,14.43326,0.25265 c23.29855,0.6208,46.59533-0.03177,69.89284-0.07423c15.19579-0.0277,30.39172-0.16322,45.58675,0.08889 c3.54385,0.05878,7.08609,0.23661,10.62988,0.26707c1.30374,0.01122,1.76149,0.49503,1.77994,1.77975 c0.06425,4.47281,0.21436,8.9444,0.32875,13.4165c0.26988,10.55344,0.91768,21.07423,2.57352,31.51634 c0.64397,4.06085,0.58942,4.13913-3.60843,4.02109C154.53163,147.59967,131.48347,148.00659,108.43829,147.85265z M94.28468,180.24205c-16.71181,0.10886-33.42509,0.13811-50.13251,0.61882c-0.59063,0.01697-1.1824,0.05977-1.77177,0.03862 c-1.05129-0.03775-1.52421,0.36876-1.48014,1.49008c0.06958,1.76981,0.00102,3.54456,0.01826,5.31697 c0.02005,2.06277,0.03274,2.09673,2.08814,2.10149c5.57089,0.01295,11.14184-0.00214,16.71278-0.01256 c25.407-0.04749,50.81275-0.29022,76.21549-0.72342c24.13635-0.41154,48.27011-0.96237,72.41147-1.02121 c20.51289-0.05,41.01845,0.47758,61.52744,0.73442c0.84409,0.01057,1.68924-0.01605,2.5322,0.01729 c0.78738,0.03113,1.30469-0.21942,1.39081-1.07645c0.26151-2.60233,0.53259-5.2037,0.79315-7.80614 c0.07623-0.76163-0.3428-1.06296-1.04852-1.07613c-0.59076-0.011-1.18137-0.02971-1.77213-0.03809 c-8.18655-0.11635-16.37413-0.18314-24.55946-0.35565c-29.80055-0.62794-59.58606,0.38258-89.84236,0.78358 C136.65408,179.81873,115.47084,180.10403,94.28468,180.24205z M195.23238,241.04211 c19.82431-0.60025,39.6515-1.10545,59.47687-1.67146c5.65199-0.16136,11.30238-0.38307,16.95259-0.60042 c1.79242-0.06895,1.80814-0.10269,1.89456-1.87299c0.10287-2.10709,0.2106-4.21519,0.24457-6.32402 c0.02628-1.63222-0.035-1.68939-1.73279-1.6452c-2.36179,0.06143-4.72055,0.2513-7.08231,0.29742 c-20.59364,0.40247-41.14536,1.75154-61.71091,2.76732c-19.64159,0.97014-39.27759,2.00276-58.95282,1.79639 c-9.19916-0.09647-18.39809-0.22298-27.59677-0.35985c-15.1897-0.22601-30.37023-0.9055-45.56517-0.89325 c-8.87148,0.00714-17.70735,0.64195-26.54019,1.36194c-1.73158,0.1411-1.75003,0.16516-1.78721,1.99945 c-0.03077,1.51863-0.0039,3.03841-0.00584,4.55765c-0.00434,3.39047-0.0937,3.00394,3.05777,2.89871 c8.43505-0.28163,16.86626-0.67163,25.30952-0.63084c28.94908,0.13991,57.89911,0.49747,86.84383-0.35432 C170.43605,241.92203,182.83223,241.41754,195.23238,241.04211z M357.1051,123.81277 c3.79376-0.03862,7.58884-0.28664,11.37552-0.54982c2.2157-0.154,2.20538-0.25396,2.31958-2.37453 c0.06802-1.26368,0.14429-2.52695,0.22498-3.78992c0.13577-2.12653,0.13992-2.15897-1.9025-2.25138 c-2.52856-0.1144-5.05978-0.23343-7.59003-0.23748c-28.77756-0.04604-57.55365-0.28859-86.32895-0.62337 c-14.17783-0.16492-28.33949-0.86512-42.50478-1.4251c-9.78407-0.38682-19.56497-0.70301-29.35199-0.10391 c-4.0184,0.24595-4.01933,0.22406-4.35556,4.10779c-0.02913,0.33611-0.07523,0.67082-0.10182,1.00709 c-0.13304,1.68135-0.25748,3.36338-0.39479,5.04436c-0.06941,0.84962,0.29434,1.25636,1.15843,1.22079 c0.58998-0.02433,1.18135-0.01475,1.77197-0.02498c5.23087-0.09068,10.46765-0.38867,15.69151-0.23792 c22.27077,0.6426,44.53969,1.27679,64.75572,0.90318C308.32852,124.25087,332.7171,124.06116,357.1051,123.81277z M92.70525,17.94467c-17.79504,0.47387-35.57539,1.57363-53.38942,1.22894c-0.42171-0.00816-0.84573,0.03022-1.26538,0.00042 c-1.06846-0.07584-1.51955,0.35406-1.48006,1.46931c0.07167,2.02301,0.03477,4.04977,0.04826,6.07495 c0.01424,2.13604,0.01406,2.21374,2.25497,2.29399c5.81744,0.20834,11.63663,0.4205,17.45682,0.48976 c15.61631,0.1858,31.21389-0.33365,46.79451-1.40301c10.18643-0.69912,20.38367-1.25589,30.5922-1.39792 c10.88634-0.15148,21.76472-0.435,32.63493-1.03941c1.0134-0.05635,2.01559-0.14742,2.99678-0.43846 c0.84787-0.25149,1.27963-0.77176,1.21603-1.66348c-0.10794-1.51348-0.13795-3.03936-0.36183-4.53593 c-0.24876-1.66269-0.84314-2.10027-2.57732-2.12015c-1.09534-0.01257-2.19185,0.10776-3.28773,0.10603 c-20.42186-0.03214-40.83734,0.50676-61.25713,0.92174C99.62224,17.93144,96.16147,17.85264,92.70525,17.94467z M411.61035,7.73229 c-2.56512,2.79554-5.11771,5.60255-7.6748,8.40546c-1.6076,1.76218-1.59607,1.74903-3.23563,0.1459 c-2.1702-2.12185-4.3204-4.26691-6.55466-6.31981c-3.01102-2.7666-3.0419-2.73305-5.85577,0.03874 c-0.18024,0.17755-0.36099,0.35458-0.53897,0.53429c-1.55365,1.56865-1.56488,1.57798-0.23654,3.22411 c2.43707,3.02022,4.99451,5.93459,7.69504,8.72366c1.59073,1.64287,1.88354,1.33397,0.06964,3.37072 c-2.40344,2.69871-4.79813,5.40522-7.26633,8.18698c1.71698,1.70879,3.34396,3.28535,4.91809,4.91306 c0.75342,0.77901,1.28922,0.47428,1.87674-0.16869c1.99026-2.17801,4.01288-4.32678,5.98502-6.52094 c1.97263-2.19468,1.95062-2.21062,4.07602-0.17121c2.85083,2.73544,5.84436,5.2949,9.15884,7.59431 c0.56976-0.6991,1.07181-1.26343,1.51651-1.86983c1.89139-2.57907,2.10974-1.81445,0.15057-4.68752 c-1.90509-2.79382-4.19254-5.28428-6.49036-7.75121c-0.90701-0.97375-1.18341-1.73204-0.06165-2.69603 c0.57068-0.49036,1.0112-1.12942,1.53162-1.68139c2.08591-2.21224,3.97537-4.58615,5.80591-7.00969 c0.45703-0.60506,1.00378-1.13115,0.30707-1.96635c-1.39725-1.67495-2.73184-3.40215-4.14709-5.17648 C412.23175,7.19629,411.88589,7.43201,411.61035,7.73229z" fill="#f1d65b"/></g><g id="change1_2"><path d="M363.73947,269.38214c-6.88547,0.69934-13.82419,0.0842-20.70755,0.83847 c-0.16745,0.01837-0.3374,0.02658-0.50577,0.02191c-5.23495-0.14542-10.44165,0.5238-15.66907,0.55386 c-7.84564,0.04514-15.6799,0.48593-23.52222,0.66608c-6.98502,0.16049-13.97495,0.58093-20.95215,1.01242 c-7.7431,0.47897-15.47775,0.87659-23.23804,0.86551c-14.18227-0.02026-28.36813-0.133-42.54581,0.13992 c-8.93941,0.17212-17.88907,0.13428-26.81654,0.54025c-6.83308,0.31064-13.66867,0.10147-20.48828,0.45276 c-13.15756,0.6777-26.32874,0.12738-39.48074,0.5593c-13.24788,0.43509-26.50121-0.02216-39.73717,0.48105 c-7.50664,0.28537-15.01254,0.21988-22.5137,0.47354c-6.98874,0.2363-13.98922,0.43558-20.95268,1.02652 c-7.67755,0.65149-15.35175,0.5835-23.01182,0.26126c-5.05937-0.21286-10.11025-0.26569-15.16722-0.31729 c-1.86209-0.01898-1.89278-0.05411-1.92239-2.07104c-0.03966-2.70093-0.03392-5.40265-0.03275-8.10406 c0.00888-20.51381,0.14827-41.02873-0.03221-61.54085c-0.06823-7.75487-0.13997-15.52504-0.52445-23.27101 c-0.26369-5.31261-0.18419-10.62573-0.45052-15.93007c-0.43968-8.7572-0.67417-17.52155-1.03918-26.28027 c-0.36153-8.67484-0.64826-17.35272-1.03894-26.02435c-0.23168-5.14262-0.10061-10.29688-0.48843-15.41971 c-0.4468-5.90187-0.13462-11.81265-0.50341-17.70084c-0.29568-4.72073-0.34283-9.43778-0.39359-14.15902 c-0.02373-2.20805,0.0193-2.18879,2.24499-2.25262c6.66714-0.19123,13.31639,0.66405,19.98166,0.37106 c10.034-0.44109,20.08182-0.19672,30.1101-0.57429c5.47963-0.20633,10.96451-0.1412,16.43563-0.45358 c6.72411-0.38394,13.43539-1.0046,20.16129-1.34235c8.42375-0.42305,16.85577-0.62023,25.29395-0.66432 c6.99744-0.03654,14.00565-0.21536,20.98763-0.57119c10.37961-0.52899,20.75673-0.02271,31.1263-0.40031 c8.41649-0.30649,16.83041-0.67973,25.22989-1.35793c3.35574-0.27096,6.73093-0.39697,10.09425-0.54216 c17.96259-0.77538,35.94077-0.6037,53.9144-0.64442c19.07867-0.04322,38.1575-0.05112,57.23615-0.00844 c2.87408,0.00643,5.72284-0.44664,8.58676-0.3292c8.43106,0.34573,16.87836,0.13457,25.29834,0.54272 c7.08716,0.34354,14.17426,0.09768,21.24799,0.44055c6.15289,0.29823,12.31998,0.16975,18.45587,0.56138 c5.82056,0.37146,11.64062,0.14518,17.44748,0.45206c7.33572,0.3877,14.67084,0.3489,22.0087,0.37439 c2.15573,0.00748,2.18982,0.03633,2.19165,2.30848c0.01215,14.77337,0.00107,29.54674,0.01251,44.32011 c0.00543,7.00674-0.16302,14.02187,0.12198,21.01799c0.32285,7.929,0.2027,15.85854,0.45914,23.78197 c0.05951,1.83745-0.08124,3.65759-0.02164,5.48479c0.43433,13.32684,0.29584,26.66159,0.55103,39.99002 c0.14526,7.58224,0.44867,15.17056,0.99847,22.73306c0.40872,5.6237,0.58093,11.27061,1.31467,16.87268 c0.16327,1.24605,0.05777,2.52728,0.07608,3.79289c-7.87338-6.0808-15.5246-12.4357-23.16281-18.80659 c-6.08762-5.07744-12.09225-10.25237-18.21002-15.29582c-5.54138-4.56831-11.71881-8.26663-17.2012-12.89943 c-0.1911-0.16151-0.40497-0.31509-0.63409-0.40952c-2.16025-0.89043-3.5697,0.0078-3.53635,2.26495 c0.06119,4.13773-0.19974,8.25964-0.56305,12.37776c-0.38504,4.36469-0.68591,8.73828-1.15768,13.09344 c-0.71643,6.61412-1.61716,13.20851-2.31372,19.82452c-0.79361,7.53809-1.37076,15.0995-2.21542,22.6313 C364.34274,265.21793,364.49103,267.36835,363.73947,269.38214z M108.43828,147.85301 c23.0452,0.15358,46.09335-0.25334,69.13626,0.39461c4.19785,0.11804,4.2524,0.03976,3.60843-4.02109 c-1.65584-10.44211-2.30363-20.9629-2.57352-31.51634c-0.1144-4.4721-0.2645-8.9437-0.32875-13.4165 c-0.01845-1.28472-0.4762-1.76852-1.77994-1.77975c-3.54379-0.03046-7.08603-0.20828-10.62988-0.26707 c-15.19502-0.25211-30.39096-0.11659-45.58675-0.08889c-23.29752,0.04247-46.59429,0.69503-69.89284,0.07423 c-4.80991-0.12816-9.62216-0.1683-14.43326-0.25265c-0.88439-0.0155-1.54458-0.06126-1.56507,1.27472 c-0.2331,15.201,0.28372,30.38202,1.07294,45.55757c0.17173,3.30234,0.17362,3.30154,3.58488,3.27539 c0.42205-0.00325,0.84417,0.00636,1.26626,0.00958C63.02501,147.27058,85.72803,147.88612,108.43828,147.85301z M157.36752,179.23369c-20.71344,0.58504-41.89668,0.87035-63.08284,1.00836c-16.71181,0.10886-33.42509,0.13811-50.13251,0.61882 c-0.59063,0.01697-1.1824,0.05977-1.77177,0.03862c-1.05129-0.03775-1.52421,0.36876-1.48014,1.49008 c0.06958,1.76981,0.00102,3.54456,0.01826,5.31697c0.02005,2.06277,0.03274,2.09673,2.08814,2.10149 c5.57089,0.01295,11.14184-0.00214,16.71278-0.01256c25.407-0.04749,50.81275-0.29022,76.21549-0.72342 c24.13635-0.41154,48.27011-0.96237,72.41147-1.02121c20.51289-0.05,41.01845,0.47758,61.52744,0.73442 c0.84409,0.01057,1.68924-0.01605,2.5322,0.01729c0.78738,0.03113,1.30469-0.21942,1.39081-1.07645 c0.26151-2.60233,0.53259-5.2037,0.79315-7.80614c0.07623-0.76163-0.3428-1.06296-1.04852-1.07613 c-0.59076-0.011-1.18137-0.02971-1.77213-0.03809c-8.18655-0.11635-16.37413-0.18314-24.55946-0.35565 C217.40933,177.82216,187.62383,178.83269,157.36752,179.23369z M158.03807,242.36864 c12.39798-0.44661,24.79416-0.9511,37.19431-1.32652c19.82431-0.60025,39.6515-1.10545,59.47687-1.67146 c5.65199-0.16136,11.30238-0.38307,16.95259-0.60042c1.79242-0.06895,1.80814-0.10269,1.89456-1.87299 c0.10287-2.10709,0.2106-4.21519,0.24457-6.32402c0.02628-1.63222-0.035-1.68939-1.73279-1.6452 c-2.36179,0.06143-4.72055,0.2513-7.08231,0.29742c-20.59364,0.40247-41.14536,1.75154-61.71091,2.76732 c-19.64159,0.97014-39.27759,2.00276-58.95282,1.79639c-9.19916-0.09647-18.39809-0.22298-27.59677-0.35985 c-15.1897-0.22601-30.37023-0.9055-45.56517-0.89325c-8.87148,0.00714-17.70735,0.64195-26.54019,1.36194 c-1.73158,0.1411-1.75003,0.16516-1.78721,1.99945c-0.03077,1.51863-0.0039,3.03841-0.00584,4.55765 c-0.00434,3.39047-0.0937,3.00394,3.05777,2.89871c8.43505-0.28163,16.86626-0.67163,25.30952-0.63084 C100.14333,242.86287,129.09335,243.22043,158.03807,242.36864z M281.87241,124.47756 c26.45612-0.22669,50.8447-0.4164,75.2327-0.66479c3.79376-0.03862,7.58884-0.28664,11.37552-0.54982 c2.2157-0.154,2.20538-0.25396,2.31958-2.37453c0.06802-1.26368,0.14429-2.52695,0.22498-3.78992 c0.13577-2.12653,0.13992-2.15897-1.9025-2.25138c-2.52856-0.1144-5.05978-0.23343-7.59003-0.23748 c-28.77756-0.04604-57.55365-0.28859-86.32895-0.62337c-14.17783-0.16492-28.33949-0.86512-42.50478-1.4251 c-9.78407-0.38682-19.56497-0.70301-29.35199-0.10391c-4.0184,0.24595-4.01933,0.22406-4.35556,4.10779 c-0.02913,0.33611-0.07523,0.67082-0.10182,1.00709c-0.13304,1.68135-0.25748,3.36338-0.39479,5.04436 c-0.06941,0.84962,0.29434,1.25636,1.15843,1.22079c0.58998-0.02433,1.18135-0.01475,1.77197-0.02498 c5.23087-0.09068,10.46765-0.38867,15.69151-0.23792C239.38745,124.21699,261.65637,124.85117,281.87241,124.47756z M341.61462,198.85536c1.51801,0,3.62753-0.03085,5.73547,0.0132c1.03418,0.02159,1.60217-0.3331,1.60818-1.42145 c0.013-2.362,0.10696-4.726,0.03622-7.08522c-0.04932-1.64595-0.49426-2.06544-2.20325-2.06157 c-2.78662,0.00627-5.55313-0.29221-8.33014-0.39204c-8.25281-0.29688-16.51407-0.37173-24.75223-1.03548 c-1.42734-0.11505-2.86649-0.07837-4.29953-0.13019c-0.95572-0.03458-1.39496,0.34036-1.28693,1.35182 c0.29483,2.76163,0.61761,5.52336,0.78851,8.29373c0.07941,1.28749,0.69946,1.51311,1.77988,1.496 c2.10864-0.03342,4.22043-0.04887,6.32748,0.02643C325.01978,198.19653,333.01984,198.52176,341.61462,198.85536z M412.49869,148.1545c-8.29263,9.43495-15.84027,19.21242-23.78458,28.78706c1.8338,1.85242,3.64249,3.71405,5.491,5.53535 c1.37772,1.35753,1.41565,1.34904,2.74466-0.00815c5.12408-5.23277,10.20471-10.50865,15.37009-15.70015 c2.3295-2.34126,4.01508-5.17949,6.19821-7.62556c0.88046-0.98656,1.0834-2.02724,0.25766-3.19974 C416.89023,153.26628,414.75552,150.80254,412.49869,148.1545z M363.21954,176.12291 c2.0217-0.31703,3.82614-1.22246,5.66284-2.06662c1.20514-0.55389,1.35803-1.32768,0.80856-2.41528 c-0.18915-0.3744-0.32816-0.77464-0.48315-1.16582c-2.94366-7.43066-6.4184-14.64482-9.07941-22.18959 c-0.89468-2.53661-1.70578-5.10506-2.46909-7.68439c-0.30908-1.04459-0.74661-1.69955-1.9274-1.39996 c-3.26059,0.8273-6.5296,1.62616-9.62589,2.9902c-1.04861,0.46188-1.46182,1.06947-0.7619,2.13837 c0.27548,0.42067,0.46808,0.89474,0.71219,1.33684c3.49918,6.33617,6.97394,12.68597,10.51285,18.99985 c1.81351,3.23553,3.45789,6.54741,4.93161,9.94814C361.8309,175.37643,362.06659,176.27425,363.21954,176.12291z M363.36734,42.285 c-16.28992,0-32.58493,0.26192-48.86877-0.05299c-37.1304-0.71809-74.26038-0.36547-111.38979-0.24544 c-9.86258,0.03188-19.73953,0.15046-29.59593,0.53755c-5.56342,0.2185-11.12955,0.16449-16.68515,0.44571 c-8.66986,0.43891-17.34464,0.70926-26.01811,1.03765c-8.08176,0.30598-16.16218,0.68123-24.24358,1.01801 c-8.67251,0.3614-17.34765,0.65912-26.0168,1.04622c-5.31118,0.23717-10.62531,0.13273-15.92468,0.43984 c-12.73104,0.73775-25.47721,0.17231-38.20647,0.56997c-5.3971,0.16861-10.79027,0.141-16.18323,0.27602 c-2.4569,0.06151-4.87219-0.44206-7.31955-0.34645c-1.12444,0.04392-1.42216-0.54091-1.4544-1.55766 c-0.09608-3.03064-0.29922-6.05794-0.39027-9.08865c-0.23297-7.75432-0.38154-15.51152-0.66865-23.26369 c-0.0777-2.09808-0.37573-4.18955-0.4016-6.30065C-0.01551,5.50596,0.50703,4.961,1.78282,4.94836 c3.03326-0.03007,6.0546-0.26775,9.08176-0.47703C23.83599,3.57453,36.83889,4.0825,49.82211,3.76016 c32.90843-0.8171,65.82497,0.13139,98.72792-0.51939c26.66658-0.52741,53.33029-0.47726,79.9904-0.18487 c14.76268,0.16192,29.53421-0.05579,44.28656,0.47172c8.18167,0.29258,16.36633,0.09155,24.53571,0.46955 c14.25577,0.65962,28.5141,0.40724,42.7691,0.28403c8.42169-0.07277,16.84521-0.52755,25.25638-1.01167 c5.63129-0.32413,11.26431-0.66382,16.8902-1.04292c5.14365-0.34662,10.29602-0.09302,15.41379-0.4956 c6.55847-0.51593,13.15433-0.06272,19.68903-0.93352c1.83426-0.24442,3.67633-0.43449,5.50589-0.70912 c3.46558-0.52019,5.19598,1.31214,5.53961,4.02992c0.27432,2.16953,0.47168,4.36044,0.51294,6.54544 c0.09552,5.06286,0.13287,10.12844,0.08545,15.19191c-0.0426,4.55799,0.28247,9.09841,0.43414,13.64705 c0.07941,2.38103,0.01727,2.36443-2.30679,2.42327C405.89359,42.4642,384.62958,42.31938,363.36734,42.285z M103.0809,17.93144 c-3.45866,0-6.91943-0.07879-10.37565,0.01323c-17.79504,0.47387-35.57539,1.57363-53.38942,1.22894 c-0.42171-0.00816-0.84573,0.03022-1.26538,0.00042c-1.06846-0.07584-1.51955,0.35406-1.48006,1.46931 c0.07167,2.02301,0.03477,4.04977,0.04826,6.07495c0.01424,2.13604,0.01406,2.21374,2.25497,2.29399 c5.81744,0.20834,11.63663,0.4205,17.45682,0.48976c15.61631,0.1858,31.21389-0.33365,46.79451-1.40301 c10.18643-0.69912,20.38367-1.25589,30.5922-1.39792c10.88634-0.15148,21.76472-0.435,32.63493-1.03941 c1.0134-0.05635,2.01559-0.14742,2.99678-0.43846c0.84787-0.25149,1.27963-0.77176,1.21603-1.66348 c-0.10794-1.51348-0.13795-3.03936-0.36183-4.53593c-0.24876-1.66269-0.84314-2.10027-2.57732-2.12015 c-1.09534-0.01257-2.19185,0.10776-3.28773,0.10603C143.91617,16.97756,123.50069,17.51646,103.0809,17.93144z M412.63962,6.85038 c-0.40787,0.34591-0.75372,0.58163-1.02927,0.8819c-2.56512,2.79554-5.11771,5.60255-7.6748,8.40546 c-1.6076,1.76218-1.59607,1.74903-3.23563,0.1459c-2.1702-2.12185-4.3204-4.26691-6.55466-6.31981 c-3.01102-2.7666-3.0419-2.73305-5.85577,0.03874c-0.18024,0.17755-0.36099,0.35458-0.53897,0.53429 c-1.55365,1.56865-1.56488,1.57798-0.23654,3.22411c2.43707,3.02022,4.99451,5.93459,7.69504,8.72366 c1.59073,1.64287,1.88354,1.33397,0.06964,3.37072c-2.40344,2.69871-4.79813,5.40522-7.26633,8.18698 c1.71698,1.70879,3.34396,3.28535,4.91809,4.91306c0.75342,0.77901,1.28922,0.47428,1.87674-0.16869 c1.99026-2.17801,4.01288-4.32678,5.98502-6.52094c1.97263-2.19468,1.95062-2.21062,4.07602-0.17121 c2.85083,2.73544,5.84436,5.2949,9.15884,7.59431c0.56976-0.6991,1.07181-1.26343,1.51651-1.86983 c1.89139-2.57907,2.10974-1.81445,0.15057-4.68752c-1.90509-2.79382-4.19254-5.28428-6.49036-7.75121 c-0.90701-0.97375-1.18341-1.73204-0.06165-2.69603c0.57068-0.49036,1.0112-1.12942,1.53162-1.68139 c2.08591-2.21224,3.97537-4.58615,5.80591-7.00969c0.45703-0.60506,1.00378-1.13115,0.30707-1.96635 C415.38947,10.35192,414.05487,8.62472,412.63962,6.85038z" fill="#f1d65b"/></g><g id="change2_1"><path d="M363.73947,269.38214c0.75156-2.01379,0.60327-4.16422,0.83627-6.2417 c0.84467-7.5318,1.42181-15.09322,2.21542-22.6313c0.69656-6.61601,1.59729-13.2104,2.31372-19.82452 c0.47177-4.35516,0.77264-8.72876,1.15768-13.09344c0.36331-4.11812,0.62424-8.24004,0.56305-12.37776 c-0.03336-2.25716,1.3761-3.15538,3.53635-2.26495c0.22913,0.09442,0.44299,0.248,0.63409,0.40952 c5.48239,4.6328,11.65982,8.33112,17.2012,12.89943c6.11777,5.04346,12.12241,10.21838,18.21002,15.29582 c7.63821,6.3709,15.28943,12.7258,23.16281,18.80659c4.30353,3.52182,8.62735,7.01988,12.90485,10.57362 c4.01761,3.33781,7.99438,6.72495,11.97366,10.10849c2.69611,2.29242,5.32401,4.66705,8.06381,6.90515 c1.43948,1.17584,1.88831,2.93097,2.85678,4.37274c0.70306,1.0466-0.34921,2.30023-1.96323,2.52005 c-1.58463,0.21582-3.18134,0.37344-4.77802,0.46408c-8.44049,0.47928-16.8634-0.22794-25.28229-0.57904 c-6.04114-0.25189-12.07544-0.99545-18.02158-2.25125c-0.76691-0.16196-1.77979-0.57547-2.33035,0.2551 c-0.47131,0.71088,0.25031,1.4299,0.57394,2.08582c3.02496,6.13046,6.64471,11.93472,9.87323,17.95386 c1.23584,2.30411,2.461,4.61478,3.63818,6.94916c0.80997,1.60632,0.73331,1.80609-0.78464,2.49207 c-6.53186,2.95175-13.07788,5.8718-19.47574,9.11108c-1.67822,0.8497-1.7623,0.82751-2.54596-1.06235 c-2.45483-5.91977-4.72205-11.91116-6.55591-18.05627c-1.18192-3.96045-2.52127-7.86609-3.97647-11.73218 c-0.47073-1.25055-0.77048-1.32178-1.76474-0.51328c-0.52209,0.42459-0.98224,0.92529-1.47003,1.39197 c-4.57059,4.3725-9.08029,8.81097-13.728,13.09991c-5.02686,4.63876-10.6467,8.54175-16.14499,12.58914 c-0.33752,0.24844-0.7168,0.44724-1.09436,0.63303c-1.94339,0.95657-2.72827,0.38544-2.64545-1.85425 c0.11462-3.09842,0.1853-6.19843,0.27896-9.29761c0.13754-4.54993,0.86298-9.04581,1.24704-13.57242 C362.80301,278.41895,363.6644,273.93872,363.73947,269.38214z M347.3501,198.86856c1.03418,0.02159,1.60217-0.3331,1.60818-1.42145 c0.013-2.362,0.10696-4.726,0.03622-7.08522c-0.04932-1.64595-0.49426-2.06544-2.20325-2.06157 c-2.78662,0.00627-5.55313-0.29221-8.33014-0.39204c-8.25281-0.29688-16.51407-0.37173-24.75223-1.03548 c-1.42734-0.11505-2.86649-0.07837-4.29953-0.13019c-0.95572-0.03458-1.39496,0.34036-1.28693,1.35182 c0.29483,2.76163,0.61761,5.52336,0.78851,8.29373c0.07941,1.28749,0.69946,1.51311,1.77988,1.496 c2.10864-0.03342,4.22043-0.04887,6.32748,0.02643c8.00146,0.28593,16.00153,0.61116,24.59631,0.94476 C343.13263,198.85536,345.24216,198.82451,347.3501,198.86856z M388.71411,176.94156c1.8338,1.85242,3.64249,3.71405,5.491,5.53535 c1.37772,1.35753,1.41565,1.34904,2.74466-0.00815c5.12408-5.23277,10.20471-10.50865,15.37009-15.70015 c2.3295-2.34126,4.01508-5.17949,6.19821-7.62556c0.88046-0.98656,1.0834-2.02724,0.25766-3.19974 c-1.8855-2.67703-4.0202-5.14078-6.27704-7.78882C404.20605,157.58945,396.65842,167.36691,388.71411,176.94156z M368.88239,174.05629c1.20514-0.55389,1.35803-1.32768,0.80856-2.41528c-0.18915-0.3744-0.32816-0.77464-0.48315-1.16582 c-2.94366-7.43066-6.4184-14.64482-9.07941-22.18959c-0.89468-2.53661-1.70578-5.10506-2.46909-7.68439 c-0.30908-1.04459-0.74661-1.69955-1.9274-1.39996c-3.26059,0.8273-6.5296,1.62616-9.62589,2.9902 c-1.04861,0.46188-1.46182,1.06947-0.7619,2.13837c0.27548,0.42067,0.46808,0.89474,0.71219,1.33684 c3.49918,6.33617,6.97394,12.68597,10.51285,18.99985c1.81351,3.23553,3.45789,6.54741,4.93161,9.94814 c0.33014,0.7618,0.56583,1.65961,1.71878,1.50827C365.24124,175.80588,367.04568,174.90045,368.88239,174.05629z" fill="#d5ba51"/></g><g id="change3_1"><path d="M108.43829,147.85265c-22.71027,0.03348-45.41329-0.58206-68.12125-0.75581 c-0.42209-0.00322-0.84421-0.01283-1.26626-0.00958c-3.41125,0.02615-3.41314,0.02695-3.58488-3.27539 c-0.78923-15.17555-1.30605-30.35658-1.07294-45.55757c0.02048-1.33598,0.68068-1.29022,1.56507-1.27472 c4.8111,0.08434,9.62335,0.12449,14.43326,0.25265c23.29855,0.6208,46.59533-0.03177,69.89284-0.07423 c15.19579-0.0277,30.39172-0.16322,45.58675,0.08889c3.54385,0.05878,7.08609,0.23661,10.62988,0.26707 c1.30374,0.01122,1.76149,0.49503,1.77994,1.77975c0.06425,4.47281,0.21436,8.9444,0.32875,13.4165 c0.26988,10.55344,0.91768,21.07423,2.57352,31.51634c0.64397,4.06085,0.58942,4.13913-3.60843,4.02109 C154.53163,147.59967,131.48347,148.00659,108.43829,147.85265z M94.28468,180.24205 c-16.71181,0.10886-33.42509,0.13811-50.13251,0.61882c-0.59063,0.01697-1.1824,0.05977-1.77177,0.03862 c-1.05129-0.03775-1.52421,0.36876-1.48014,1.49008c0.06958,1.76981,0.00102,3.54456,0.01826,5.31697 c0.02005,2.06277,0.03274,2.09673,2.08814,2.10149c5.57089,0.01295,11.14184-0.00214,16.71278-0.01256 c25.407-0.04749,50.81275-0.29022,76.21549-0.72342c24.13635-0.41154,48.27011-0.96237,72.41147-1.02121 c20.51289-0.05,41.01845,0.47758,61.52744,0.73442c0.84409,0.01057,1.68924-0.01605,2.5322,0.01729 c0.78738,0.03113,1.30469-0.21942,1.39081-1.07645c0.26151-2.60233,0.53259-5.2037,0.79315-7.80614 c0.07623-0.76163-0.3428-1.06296-1.04852-1.07613c-0.59076-0.011-1.18137-0.02971-1.77213-0.03809 c-8.18655-0.11635-16.37413-0.18314-24.55946-0.35565c-29.80055-0.62794-59.58606,0.38258-89.84236,0.78358 C136.65408,179.81873,115.47084,180.10403,94.28468,180.24205z M195.23238,241.04211 c19.82431-0.60025,39.6515-1.10545,59.47687-1.67146c5.65199-0.16136,11.30238-0.38307,16.95259-0.60042 c1.79242-0.06895,1.80814-0.10269,1.89456-1.87299c0.10287-2.10709,0.2106-4.21519,0.24457-6.32402 c0.02628-1.63222-0.035-1.68939-1.73279-1.6452c-2.36179,0.06143-4.72055,0.2513-7.08231,0.29742 c-20.59364,0.40247-41.14536,1.75154-61.71091,2.76732c-19.64159,0.97014-39.27759,2.00276-58.95282,1.79639 c-9.19916-0.09647-18.39809-0.22298-27.59677-0.35985c-15.1897-0.22601-30.37023-0.9055-45.56517-0.89325 c-8.87148,0.00714-17.70735,0.64195-26.54019,1.36194c-1.73158,0.1411-1.75003,0.16516-1.78721,1.99945 c-0.03077,1.51863-0.0039,3.03841-0.00584,4.55765c-0.00434,3.39047-0.0937,3.00394,3.05777,2.89871 c8.43505-0.28163,16.86626-0.67163,25.30952-0.63084c28.94908,0.13991,57.89911,0.49747,86.84383-0.35432 C170.43605,241.92203,182.83223,241.41754,195.23238,241.04211z M357.1051,123.81277 c3.79376-0.03862,7.58884-0.28664,11.37552-0.54982c2.2157-0.154,2.20538-0.25396,2.31958-2.37453 c0.06802-1.26368,0.14429-2.52695,0.22498-3.78992c0.13577-2.12653,0.13992-2.15897-1.9025-2.25138 c-2.52856-0.1144-5.05978-0.23343-7.59003-0.23748c-28.77756-0.04604-57.55365-0.28859-86.32895-0.62337 c-14.17783-0.16492-28.33949-0.86512-42.50478-1.4251c-9.78407-0.38682-19.56497-0.70301-29.35199-0.10391 c-4.0184,0.24595-4.01933,0.22406-4.35556,4.10779c-0.02913,0.33611-0.07523,0.67082-0.10182,1.00709 c-0.13304,1.68135-0.25748,3.36338-0.39479,5.04436c-0.06941,0.84962,0.29434,1.25636,1.15843,1.22079 c0.58998-0.02433,1.18135-0.01475,1.77197-0.02498c5.23087-0.09068,10.46765-0.38867,15.69151-0.23792 c22.27077,0.6426,44.53969,1.27679,64.75572,0.90318C308.32852,124.25087,332.7171,124.06116,357.1051,123.81277z M92.70525,17.94467c-17.79504,0.47387-35.57539,1.57363-53.38942,1.22894c-0.42171-0.00816-0.84573,0.03022-1.26538,0.00042 c-1.06846-0.07584-1.51955,0.35406-1.48006,1.46931c0.07167,2.02301,0.03477,4.04977,0.04826,6.07495 c0.01424,2.13604,0.01406,2.21374,2.25497,2.29399c5.81744,0.20834,11.63663,0.4205,17.45682,0.48976 c15.61631,0.1858,31.21389-0.33365,46.79451-1.40301c10.18643-0.69912,20.38367-1.25589,30.5922-1.39792 c10.88634-0.15148,21.76472-0.435,32.63493-1.03941c1.0134-0.05635,2.01559-0.14742,2.99678-0.43846 c0.84787-0.25149,1.27963-0.77176,1.21603-1.66348c-0.10794-1.51348-0.13795-3.03936-0.36183-4.53593 c-0.24876-1.66269-0.84314-2.10027-2.57732-2.12015c-1.09534-0.01257-2.19185,0.10776-3.28773,0.10603 c-20.42186-0.03214-40.83734,0.50676-61.25713,0.92174C99.62224,17.93144,96.16147,17.85264,92.70525,17.94467z M411.61035,7.73229 c-2.56512,2.79554-5.11771,5.60255-7.6748,8.40546c-1.6076,1.76218-1.59607,1.74903-3.23563,0.1459 c-2.1702-2.12185-4.3204-4.26691-6.55466-6.31981c-3.01102-2.7666-3.0419-2.73305-5.85577,0.03874 c-0.18024,0.17755-0.36099,0.35458-0.53897,0.53429c-1.55365,1.56865-1.56488,1.57798-0.23654,3.22411 c2.43707,3.02022,4.99451,5.93459,7.69504,8.72366c1.59073,1.64287,1.88354,1.33397,0.06964,3.37072 c-2.40344,2.69871-4.79813,5.40522-7.26633,8.18698c1.71698,1.70879,3.34396,3.28535,4.91809,4.91306 c0.75342,0.77901,1.28922,0.47428,1.87674-0.16869c1.99026-2.17801,4.01288-4.32678,5.98502-6.52094 c1.97263-2.19468,1.95062-2.21062,4.07602-0.17121c2.85083,2.73544,5.84436,5.2949,9.15884,7.59431 c0.56976-0.6991,1.07181-1.26343,1.51651-1.86983c1.89139-2.57907,2.10974-1.81445,0.15057-4.68752 c-1.90509-2.79382-4.19254-5.28428-6.49036-7.75121c-0.90701-0.97375-1.18341-1.73204-0.06165-2.69603 c0.57068-0.49036,1.0112-1.12942,1.53162-1.68139c2.08591-2.21224,3.97537-4.58615,5.80591-7.00969 c0.45703-0.60506,1.00378-1.13115,0.30707-1.96635c-1.39725-1.67495-2.73184-3.40215-4.14709-5.17648 C412.23175,7.19629,411.88589,7.43201,411.61035,7.73229z" fill="#9c8222"/></g></svg>