<svg width="422" height="361" viewBox="0 0 422 361" fill="none" xmlns="http://www.w3.org/2000/svg">
<path d="M211 360.86C301.377 360.86 374.643 356.583 374.643 351.306C374.643 346.029 301.377 341.752 211 341.752C120.622 341.752 47.3567 346.029 47.3567 351.306C47.3567 356.583 120.622 360.86 211 360.86Z" fill="#F5F5F5"/>
<path d="M140.104 97.5996C142.231 92.7297 123.393 88.3156 117.696 103.322C112.53 116.936 103.955 120.413 107.99 129.84C112.353 140.044 137.04 141.268 147.759 129.959C156.452 120.784 147.016 116.919 148.232 108.293C149.447 99.6674 146.898 96.8569 140.104 97.5996Z" fill="#263238"/>
<path d="M105.787 126.819C104.808 121.502 106.783 119.308 109.281 116.531C112.657 113.105 114.97 108.776 115.94 104.065C116.443 101.492 117.73 99.1383 119.623 97.3252C121.516 95.5121 123.923 94.3287 126.515 93.9371C132.086 92.9074 137.985 94.7304 139.547 97.043C139.795 97.3688 139.937 97.7636 139.952 98.1732C139.967 98.5828 139.855 98.987 139.631 99.3302L138.922 98.8745C139.059 98.6704 139.125 98.4275 139.111 98.1823C139.098 97.9372 139.005 97.7032 138.846 97.5156C137.462 95.4563 131.841 93.8105 126.676 94.7726C122.987 95.4563 118.236 97.6506 116.767 104.251C115.767 109.102 113.384 113.561 109.905 117.088C107.475 119.789 105.685 121.747 106.622 126.659L105.787 126.819Z" fill="#263238"/>
<path d="M94.1818 122.777L93.6585 121.089C93.2973 119.942 92.6426 118.909 91.7595 118.093L90.0715 116.556C89.5377 116.063 88.848 115.771 88.122 115.733C87.3959 115.694 86.6793 115.911 86.0963 116.345L84.2901 117.696C83.96 117.943 83.6821 118.252 83.4726 118.607C83.2631 118.962 83.1261 119.355 83.0696 119.763C83.0131 120.172 83.0381 120.587 83.1433 120.985C83.2485 121.384 83.4318 121.758 83.6824 122.085L84.8471 123.604C84.8471 123.604 87.5817 128.229 91.5401 129.833L92.4516 129.056C93.3236 128.294 93.9526 127.293 94.2602 126.176C94.5678 125.06 94.5405 123.878 94.1818 122.777Z" fill="#FFC3BD"/>
<path d="M126.988 152.08L126.448 152.494L126.009 152.814L125.165 153.405C124.6 153.776 124.026 154.122 123.477 154.46C122.329 155.12 121.145 155.717 119.932 156.249C117.438 157.35 114.815 158.132 112.125 158.579C109.285 159.056 106.387 159.073 103.542 158.629C102.086 158.4 100.655 158.03 99.2711 157.524C98.925 157.414 98.579 157.271 98.2414 157.127L97.735 156.916L97.4818 156.806L97.2033 156.688L96.8488 156.519C96.1122 156.142 95.433 155.662 94.8316 155.093C94.3994 154.691 94.0013 154.253 93.6416 153.785C92.6867 152.49 91.9143 151.07 91.3459 149.565C90.8395 148.316 90.4513 147.117 90.1052 145.944C89.4756 143.674 88.9657 141.372 88.5776 139.049C87.8066 134.558 87.375 130.016 87.2863 125.46C87.1818 124.607 87.4065 123.747 87.9144 123.054C88.4223 122.361 89.1753 121.888 90.0199 121.731C90.8646 121.574 91.7374 121.745 92.4605 122.208C93.1835 122.672 93.7025 123.395 93.9117 124.228V124.321C95.3802 128.364 96.7897 132.508 98.2752 136.441C99.0432 138.399 99.7859 140.348 100.63 142.121C101.035 143.007 101.474 143.851 101.887 144.585C102.169 145.123 102.53 145.616 102.959 146.045C102.959 146.045 102.959 146.045 102.9 145.927C102.706 145.725 102.477 145.56 102.225 145.438L102.065 145.353C102.014 145.353 101.913 145.294 101.972 145.311H102.107L102.369 145.379C102.543 145.433 102.72 145.475 102.9 145.505C103.613 145.647 104.335 145.735 105.061 145.767C106.58 145.813 108.099 145.654 109.576 145.294C111.197 144.885 112.774 144.32 114.286 143.606C115.071 143.252 115.847 142.838 116.607 142.425C116.987 142.214 117.358 141.986 117.712 141.766L118.556 141.226L119.215 140.813C120.698 139.87 122.488 139.538 124.211 139.888C125.933 140.237 127.453 141.24 128.451 142.686C129.449 144.133 129.849 145.909 129.565 147.644C129.281 149.378 128.336 150.935 126.929 151.987L126.988 152.08Z" fill="#FFC3BD"/>
<path d="M141.792 347.626C147.134 345.862 151.633 342.249 150.73 335.911C150.333 333.193 159.052 332.13 159.052 332.13C158.064 340.764 159.144 342.258 160.183 344.208C161.221 346.157 161.162 348.546 159.339 348.757C157.178 349.018 156.697 348.757 154.013 349.137C150.873 349.55 148.839 351.187 142.568 351.187C139.184 351.187 140.104 348.183 141.792 347.626Z" fill="#494848"/>
<path d="M158.039 255.402C158.655 212.156 154.663 188.583 154.663 188.583L122.667 190.178C122.667 190.178 127.402 229.745 135.808 258.888C138.053 274.528 143.108 300.978 146.611 318.745C151.808 318.3 156.946 317.327 161.947 315.841C163.17 300.236 163.39 277.676 158.039 255.402Z" fill="#494848"/>
<path d="M158.731 336.367C158.731 336.367 159.98 328.197 160.824 315.841C156.578 317.319 152.173 318.294 147.7 318.744C149.523 329.531 150.823 336.401 150.823 336.401C153.381 337.321 156.181 337.309 158.731 336.367Z" fill="#FFC3BD"/>
<path d="M144.864 313.571C145.142 315.056 145.919 318.778 146.687 320.086C146.731 320.162 146.792 320.226 146.866 320.274C146.939 320.323 147.022 320.354 147.109 320.365C153.076 321.116 159.035 319.917 161.457 318.837C161.525 318.81 161.586 318.769 161.637 318.716C161.688 318.664 161.727 318.602 161.752 318.533C162.428 316.744 162.672 312.98 162.748 311.393C162.752 311.307 162.737 311.221 162.703 311.142C162.669 311.063 162.618 310.993 162.553 310.937C162.488 310.881 162.411 310.84 162.328 310.818C162.244 310.797 162.157 310.794 162.073 310.811C156.543 311.836 150.957 312.534 145.345 312.904C145.268 312.913 145.194 312.938 145.127 312.977C145.061 313.016 145.003 313.068 144.958 313.131C144.912 313.194 144.881 313.265 144.864 313.341C144.848 313.417 144.848 313.495 144.864 313.571Z" fill="#263238"/>
<path d="M123.089 139.327C118.345 140.171 111.112 144.18 111.112 144.18C111.112 144.18 107.306 153.295 111.864 159.862C116.354 160.925 118.616 160.056 118.616 160.056L123.089 139.327Z" fill="#263238"/>
<path opacity="0.2" d="M111.864 159.862C116.354 160.925 118.616 160.056 118.616 160.056L118.455 147.759C115.408 151.861 112.868 155.929 111.864 159.862Z" fill="black"/>
<path opacity="0.2" d="M157.87 229.888C154.291 221.136 150.443 213.928 148.966 207.345C146.434 225.246 148.426 241.712 158.056 253.512C158.165 244.801 158.073 236.918 157.87 229.888Z" fill="black"/>
<path d="M206.78 298.523L194.01 307.604C183.587 294.024 167.956 273.278 164.175 264.248C154.57 241.333 135.259 190.82 135.259 190.82L160.326 184.996C160.326 184.996 176.143 199.682 186.347 255.099C194.888 267.235 202.079 285.094 206.78 298.523Z" fill="#494848"/>
<path d="M206.045 341.566C209.227 335.345 209.27 328.492 205.834 323.091C204.357 320.778 211.861 316.212 211.861 316.212C214.511 324.492 216.671 324.973 218.511 326.256C220.351 327.538 220.537 330.298 218.984 331.235C217.289 332.231 215.846 333.603 214.764 335.244C212.84 337.776 211.759 341.253 208.999 343.422C207.236 344.798 204.644 344.292 206.045 341.566Z" fill="#494848"/>
<path d="M213.253 320.01C213.253 320.01 211.05 312.262 206.729 300.657C203.466 303.748 199.854 306.45 195.968 308.709C202.07 317.79 206.535 324.315 206.535 324.315C209.129 323.528 211.455 322.038 213.253 320.01Z" fill="#FFC3BD"/>
<path d="M191.25 305.165C192.094 306.397 194.356 309.478 195.597 310.347C195.669 310.398 195.753 310.433 195.84 310.447C195.928 310.462 196.018 310.456 196.103 310.432C201.842 308.659 206.78 305.106 208.586 303.106C208.637 303.052 208.675 302.988 208.698 302.918C208.722 302.848 208.729 302.774 208.721 302.7C208.603 300.801 207.269 297.265 206.687 295.788C206.655 295.71 206.606 295.64 206.544 295.583C206.481 295.526 206.407 295.484 206.326 295.459C206.245 295.435 206.159 295.429 206.076 295.442C205.992 295.455 205.913 295.487 205.843 295.535C201.237 298.748 196.446 301.688 191.495 304.338C191.42 304.371 191.353 304.42 191.299 304.482C191.244 304.543 191.204 304.616 191.181 304.695C191.158 304.773 191.152 304.856 191.164 304.937C191.176 305.019 191.205 305.096 191.25 305.165Z" fill="#263238"/>
<path d="M115.847 151.92C116.995 159.389 112.547 165.179 119.392 168.623C118.253 174.303 119.941 185.646 122.65 190.145C126.456 192.212 145.075 189.157 160.292 184.988C160.073 178.489 154.73 165.702 156.216 144.417C156.296 143.252 156.13 142.084 155.73 140.988C155.329 139.891 154.703 138.892 153.891 138.053C153.08 137.214 152.101 136.555 151.018 136.119C149.936 135.683 148.773 135.479 147.607 135.521C146.29 135.521 144.889 135.648 143.471 135.774C138.486 136.094 133.531 136.771 128.642 137.8C127.064 138.171 125.435 138.593 123.891 139.032C121.206 139.825 118.904 141.574 117.422 143.949C115.94 146.324 115.38 149.16 115.847 151.92Z" fill="#263238"/>
<path d="M126.6 146.239C126.6 146.239 131.368 144.5 133.867 148.771C138.028 146.433 143.876 136.55 143.463 135.799C136.5 137.715 126.6 146.239 126.6 146.239Z" fill="white"/>
<path d="M126.6 146.24C126.6 146.24 122.979 145.809 121.958 149.016C121.958 142.686 126.228 138.703 128.094 137.96C127.444 139.614 126.6 146.24 126.6 146.24Z" fill="white"/>
<path d="M141.64 119.046C141.108 123.983 141.024 131.917 143.471 135.808C143.471 135.808 134.187 142.163 126.591 146.24C124.203 140.711 128.085 137.96 128.085 137.96C131.706 136.576 131.672 131.942 131.183 128.397L141.64 119.046Z" fill="#FFC3BD"/>
<path opacity="0.2" d="M131.2 128.397L137.108 123.08C137.306 124.072 137.242 125.099 136.922 126.059C135.899 128.826 133.932 131.142 131.368 132.6C131.461 131.197 131.405 129.788 131.2 128.397Z" fill="black"/>
<path d="M143.547 109.871C142.703 117.889 142.577 121.291 138.441 125.257C132.212 131.224 122.734 128.49 121.173 120.404C119.763 113.121 121.308 101.237 129.14 98.3422C136.973 95.4472 144.324 101.862 143.547 109.871Z" fill="#FFC3BD"/>
<path d="M141.792 115.737C140.554 114.552 139.831 112.929 139.777 111.217C139.724 109.505 140.344 107.839 141.505 106.58C143.615 104.444 146.569 108.867 146.569 108.867L141.792 115.737Z" fill="#263238"/>
<path d="M132.01 112.091C132.01 112.749 131.613 113.264 131.166 113.247C130.719 113.23 130.415 112.682 130.44 112.032C130.465 111.382 130.837 110.859 131.284 110.875C131.731 110.892 132.035 111.407 132.01 112.091Z" fill="#263238"/>
<path d="M123.958 111.897C123.958 112.547 123.57 113.062 123.114 113.045C122.658 113.028 122.363 112.488 122.388 111.83C122.414 111.172 122.776 110.665 123.232 110.682C123.688 110.699 123.983 111.239 123.958 111.897Z" fill="#263238"/>
<path d="M123.418 110.724L121.865 110.209C121.865 110.209 122.625 111.467 123.418 110.724Z" fill="#263238"/>
<path d="M125.942 112.15C125.289 113.622 124.437 114.997 123.41 116.235C123.734 116.485 124.109 116.662 124.508 116.752C124.908 116.842 125.322 116.845 125.722 116.759L125.942 112.15Z" fill="#ED847E"/>
<path d="M129.427 119.324C129.061 119.375 128.691 119.392 128.322 119.374C128.272 119.372 128.224 119.351 128.19 119.315C128.155 119.278 128.136 119.23 128.136 119.18C128.137 119.155 128.143 119.13 128.154 119.107C128.165 119.083 128.18 119.063 128.199 119.045C128.217 119.028 128.239 119.015 128.263 119.006C128.287 118.997 128.313 118.993 128.338 118.995C129.151 119.043 129.964 118.9 130.711 118.578C131.459 118.255 132.12 117.762 132.643 117.138C132.656 117.117 132.674 117.099 132.695 117.085C132.715 117.071 132.739 117.062 132.763 117.057C132.787 117.052 132.812 117.053 132.837 117.058C132.861 117.063 132.884 117.073 132.904 117.087C132.926 117.102 132.944 117.12 132.958 117.141C132.971 117.163 132.981 117.187 132.986 117.212C132.99 117.237 132.99 117.263 132.985 117.287C132.98 117.312 132.97 117.336 132.955 117.357C132.08 118.447 130.814 119.153 129.427 119.324Z" fill="#263238"/>
<path d="M144.881 116.59C144.568 117.253 144.117 117.841 143.558 118.316C142.999 118.79 142.345 119.14 141.64 119.341C139.842 119.789 139.007 117.814 139.564 115.839C140.062 114.058 141.606 111.686 143.378 112.117C145.151 112.547 145.75 114.86 144.881 116.59Z" fill="#FFC3BD"/>
<path d="M139.395 98.4686C133.713 102.013 127.334 104.29 120.692 105.145C120.692 99.3801 131.968 92.9067 139.395 98.4686Z" fill="#263238"/>
<path d="M135.04 99.1699C133.732 104.234 146.856 113.518 144.324 122.447C148.611 115.771 145.522 100.748 145.522 100.748C145.522 100.748 134.466 93.7514 135.04 99.1699Z" fill="#263238"/>
<path d="M133.689 107.786C133.638 107.779 133.589 107.761 133.545 107.733C133.502 107.706 133.465 107.669 133.436 107.626C133.176 107.219 132.823 106.879 132.406 106.634C131.99 106.389 131.521 106.246 131.039 106.216C130.989 106.219 130.939 106.211 130.892 106.193C130.845 106.175 130.802 106.148 130.766 106.114C130.729 106.079 130.701 106.037 130.681 105.991C130.661 105.945 130.651 105.895 130.651 105.845C130.649 105.794 130.657 105.742 130.675 105.694C130.693 105.646 130.721 105.602 130.756 105.565C130.792 105.528 130.834 105.499 130.881 105.479C130.929 105.459 130.979 105.448 131.031 105.448C131.64 105.475 132.234 105.647 132.763 105.951C133.292 106.255 133.74 106.682 134.069 107.195C134.098 107.237 134.118 107.283 134.128 107.333C134.139 107.382 134.139 107.433 134.13 107.482C134.12 107.532 134.101 107.579 134.074 107.621C134.046 107.663 134.01 107.699 133.968 107.727C133.928 107.755 133.882 107.774 133.835 107.784C133.787 107.794 133.737 107.795 133.689 107.786Z" fill="#263238"/>
<path d="M120.396 107.509C120.298 107.502 120.205 107.46 120.135 107.391C120.099 107.355 120.071 107.313 120.051 107.267C120.032 107.22 120.022 107.171 120.022 107.12C120.022 107.07 120.032 107.02 120.051 106.974C120.071 106.928 120.099 106.886 120.135 106.85C120.556 106.408 121.077 106.073 121.654 105.873C122.231 105.674 122.847 105.615 123.452 105.703C123.551 105.725 123.637 105.785 123.692 105.87C123.748 105.955 123.767 106.059 123.747 106.158C123.737 106.208 123.717 106.255 123.689 106.297C123.66 106.339 123.624 106.374 123.581 106.402C123.539 106.429 123.491 106.448 123.442 106.457C123.392 106.466 123.341 106.465 123.291 106.454C122.812 106.393 122.326 106.446 121.871 106.608C121.416 106.771 121.006 107.039 120.675 107.391C120.601 107.465 120.501 107.508 120.396 107.509Z" fill="#263238"/>
<path d="M131.47 110.918L129.917 110.411C129.917 110.411 130.668 111.669 131.47 110.918Z" fill="#263238"/>
<path opacity="0.2" d="M156.013 148.543C155.862 153.049 156.011 157.561 156.461 162.047C152.241 157.591 146.94 149.176 146.594 144.956L156.013 148.543Z" fill="black"/>
<path d="M183.57 132.693L184.49 127.334L192.82 130.55C192.82 130.55 190.887 135.538 187.334 137.741L186.347 137.116C185.572 136.645 184.918 136 184.436 135.232C183.954 134.465 183.658 133.595 183.57 132.693Z" fill="#FFC3BD"/>
<path d="M189.689 124.345L192.432 125.839C193.031 126.165 193.477 126.714 193.673 127.367C193.87 128.02 193.799 128.724 193.478 129.325L192.829 130.549L184.498 127.333L186.482 124.962C186.864 124.506 187.392 124.197 187.976 124.085C188.56 123.972 189.165 124.065 189.689 124.345Z" fill="#FFC3BD"/>
<path d="M154.528 138.812L155.591 139.909L156.748 141.083C157.532 141.851 158.317 142.636 159.128 143.378C160.731 144.889 162.385 146.29 164.048 147.598C165.616 148.828 167.282 149.929 169.028 150.89C170.363 151.641 171.815 152.16 173.324 152.426L171.053 152.848C170.496 153.118 170.53 153.236 170.648 153.143C170.876 152.991 171.086 152.812 171.273 152.612C171.89 151.969 172.455 151.278 172.961 150.544C174.109 148.915 175.273 147.067 176.337 145.151C177.4 143.235 178.531 141.268 179.62 139.243L182.869 133.233V133.183C183.25 132.467 183.874 131.909 184.628 131.611C185.382 131.312 186.218 131.291 186.986 131.552C187.754 131.812 188.404 132.338 188.821 133.034C189.237 133.73 189.392 134.552 189.258 135.352C188.87 137.783 188.338 140.078 187.748 142.416C187.157 144.754 186.524 147.067 185.68 149.388C184.853 151.781 183.872 154.118 182.743 156.384C182.088 157.66 181.346 158.89 180.523 160.064C180.003 160.789 179.422 161.466 178.784 162.09C177.84 163.031 176.726 163.784 175.501 164.309C174.9 164.566 174.256 164.706 173.602 164.723H173.231C169.896 164.742 166.595 164.049 163.55 162.689C162.206 162.114 160.893 161.469 159.617 160.756C158.396 160.036 157.217 159.29 156.081 158.52C153.872 156.973 151.769 155.281 149.785 153.456C148.814 152.561 147.852 151.658 146.932 150.704C146.476 150.232 146.012 149.759 145.565 149.261C145.117 148.763 144.721 148.307 144.172 147.674C142.959 146.331 142.329 144.561 142.42 142.754C142.512 140.946 143.318 139.249 144.661 138.036C146.004 136.823 147.774 136.192 149.582 136.284C151.39 136.376 153.087 137.182 154.3 138.525L154.528 138.812Z" fill="#FFC3BD"/>
<path d="M147.978 135.562C154.165 135.748 160.318 143.158 160.318 143.158C160.318 143.158 157.938 152.991 151.16 157.228C147.345 154.257 144.113 151.877 144.113 151.877C138.72 143.969 140.517 138.719 147.978 135.562Z" fill="#263238"/>
<path d="M121.418 189.595C121.873 192.237 122.422 194.313 122.599 194.946C122.616 195.014 122.647 195.077 122.689 195.132C122.731 195.187 122.784 195.233 122.844 195.267C123.747 195.765 127.866 197.799 135.428 197.352C143.868 196.896 156.25 192.288 162.672 187.384C162.766 187.312 162.833 187.21 162.864 187.096C162.894 186.982 162.886 186.861 162.841 186.751C162.345 185.651 161.767 184.59 161.111 183.578C161.047 183.48 160.953 183.407 160.844 183.367C160.734 183.328 160.615 183.324 160.503 183.358C157.735 184.202 140.306 189.19 121.949 188.971C121.872 188.971 121.795 188.988 121.724 189.021C121.653 189.054 121.59 189.101 121.54 189.161C121.489 189.22 121.452 189.29 121.431 189.365C121.41 189.44 121.406 189.518 121.418 189.595Z" fill="#494848"/>
<path opacity="0.3" d="M121.418 189.595C121.873 192.237 122.422 194.313 122.599 194.946C122.616 195.014 122.647 195.077 122.689 195.132C122.731 195.187 122.784 195.233 122.844 195.267C123.747 195.765 127.866 197.799 135.428 197.352C143.868 196.896 156.25 192.288 162.672 187.384C162.766 187.312 162.833 187.21 162.864 187.096C162.894 186.982 162.886 186.861 162.841 186.751C162.345 185.651 161.767 184.59 161.111 183.578C161.047 183.48 160.953 183.407 160.844 183.367C160.734 183.328 160.615 183.324 160.503 183.358C157.735 184.202 140.306 189.19 121.949 188.971C121.872 188.971 121.795 188.988 121.724 189.021C121.653 189.054 121.59 189.101 121.54 189.161C121.489 189.22 121.452 189.29 121.431 189.365C121.41 189.44 121.406 189.518 121.418 189.595Z" fill="white"/>
<path d="M290.564 326.13H179.443C177.388 326.149 175.351 325.743 173.46 324.936C171.57 324.13 169.866 322.941 168.458 321.444C167.049 319.948 165.965 318.176 165.275 316.24C164.584 314.304 164.302 312.246 164.445 310.196L177.949 79.2352C178.257 74.9482 180.162 70.9327 183.287 67.9823C186.413 65.0319 190.531 63.3612 194.829 63.3004H305.975C308.031 63.2815 310.067 63.688 311.958 64.4945C313.848 65.301 315.552 66.4899 316.96 67.9866C318.369 69.4833 319.453 71.2553 320.143 73.1911C320.834 75.127 321.116 77.1848 320.973 79.2352L307.427 310.196C307.119 314.48 305.217 318.493 302.095 321.443C298.973 324.393 294.858 326.066 290.564 326.13Z" fill="#494848"/>
<path opacity="0.8" d="M290.564 326.13H179.443C177.388 326.149 175.351 325.743 173.46 324.936C171.57 324.13 169.866 322.941 168.458 321.444C167.049 319.948 165.965 318.176 165.275 316.24C164.584 314.304 164.302 312.246 164.445 310.196L177.949 79.2352C178.257 74.9482 180.162 70.9327 183.287 67.9823C186.413 65.0319 190.531 63.3612 194.829 63.3004H305.975C308.031 63.2815 310.067 63.688 311.958 64.4945C313.848 65.301 315.552 66.4899 316.96 67.9866C318.369 69.4833 319.453 71.2553 320.143 73.1911C320.834 75.127 321.116 77.1848 320.973 79.2352L307.427 310.196C307.119 314.48 305.217 318.493 302.095 321.443C298.973 324.393 294.858 326.066 290.564 326.13Z" fill="white"/>
<path d="M289.906 321.505H181.874C180.43 321.519 178.998 321.234 177.67 320.668C176.341 320.102 175.144 319.267 174.154 318.216C173.164 317.165 172.402 315.92 171.916 314.56C171.431 313.2 171.232 311.754 171.332 310.314L184.836 80.3575C185.052 77.3528 186.385 74.5377 188.571 72.4653C190.758 70.3929 193.64 69.213 196.652 69.1576H304.684C306.128 69.1448 307.56 69.431 308.888 69.998C310.217 70.565 311.414 71.4007 312.404 72.4525C313.394 73.5044 314.156 74.7496 314.641 76.11C315.127 77.4704 315.326 78.9165 315.226 80.3575L301.722 310.314C301.505 313.318 300.172 316.132 297.986 318.203C295.799 320.274 292.917 321.452 289.906 321.505Z" fill="#494848"/>
<path d="M288.741 320.272H180.709C179.265 320.285 177.833 319.999 176.505 319.432C175.176 318.865 173.979 318.029 172.989 316.978C171.999 315.926 171.237 314.68 170.752 313.32C170.266 311.96 170.067 310.514 170.167 309.073L183.671 79.1163C183.888 76.1116 185.22 73.2965 187.407 71.2241C189.593 69.1517 192.475 67.9718 195.487 67.9164H303.519C304.964 67.9036 306.395 68.1898 307.724 68.7568C309.052 69.3238 310.249 70.1595 311.239 71.2113C312.229 72.2632 312.991 73.5084 313.476 74.8688C313.962 76.2292 314.161 77.6753 314.061 79.1163L300.557 309.073C300.34 312.077 299.008 314.892 296.822 316.965C294.635 319.037 291.753 320.217 288.741 320.272Z" fill="white"/>
<path opacity="0.1" d="M285.584 311.722H184.836C183.943 311.73 183.059 311.554 182.238 311.203C181.417 310.853 180.677 310.337 180.065 309.687C179.453 309.037 178.982 308.267 178.682 307.427C178.382 306.586 178.259 305.692 178.32 304.802L183.992 208.881C184.125 207.02 184.951 205.276 186.308 203.995C187.664 202.713 189.452 201.987 191.318 201.96H292.024C292.917 201.952 293.801 202.129 294.622 202.479C295.443 202.83 296.183 203.346 296.795 203.996C297.407 204.646 297.878 205.415 298.178 206.256C298.478 207.097 298.601 207.99 298.54 208.881L292.91 304.802C292.777 306.663 291.951 308.407 290.594 309.688C289.238 310.97 287.45 311.695 285.584 311.722Z" fill="#494848"/>
<path opacity="0.1" d="M263.21 84.9735H233.847C233.528 84.9766 233.212 84.9137 232.918 84.7886C232.625 84.6635 232.36 84.479 232.141 84.2467C231.922 84.0145 231.754 83.7394 231.647 83.4389C231.539 83.1384 231.495 82.8189 231.518 82.5006C231.564 81.8332 231.86 81.2076 232.346 80.7479C232.832 80.2883 233.473 80.0282 234.142 80.0193H263.497C263.819 80.0113 264.14 80.071 264.438 80.1945C264.737 80.318 265.006 80.5025 265.228 80.7362C265.451 80.97 265.622 81.2477 265.731 81.5516C265.84 81.8554 265.884 82.1787 265.86 82.5006C265.813 83.1716 265.513 83.7998 265.022 84.2587C264.53 84.7176 263.882 84.973 263.21 84.9735Z" fill="#494848"/>
<path opacity="0.1" d="M274.891 177.552C292.972 159.993 294.207 131.937 277.648 114.886C261.09 97.8346 233.01 98.2459 214.929 115.804C196.848 133.363 195.613 161.419 212.171 178.47C228.73 195.521 256.81 195.11 274.891 177.552Z" fill="#494848"/>
<path d="M213.87 176.033C210.175 172.1 207.333 167.446 205.522 162.362C203.711 157.279 202.97 151.876 203.345 146.493H204.189C203.823 151.761 204.549 157.047 206.321 162.021C208.093 166.995 210.872 171.55 214.486 175.4L213.87 176.033Z" fill="#494848"/>
<path d="M286.47 146.856L285.626 146.805C285.857 143.087 285.573 139.355 284.782 135.715L285.626 135.529C286.434 139.247 286.718 143.059 286.47 146.856Z" fill="#494848"/>
<path d="M282.335 128.373C280.269 123.79 277.314 119.663 273.642 116.231C269.969 112.798 265.651 110.129 260.939 108.378L261.235 107.585C266.055 109.372 270.47 112.1 274.225 115.612C277.979 119.123 280.997 123.346 283.103 128.035L282.335 128.373Z" fill="#494848"/>
<path d="M271.034 173.579C286.791 158.277 287.868 133.829 273.44 118.971C259.012 104.114 234.543 104.474 218.786 119.776C203.029 135.077 201.952 159.526 216.38 174.383C230.808 189.24 255.277 188.88 271.034 173.579Z" fill="#494848"/>
<path d="M240.616 151.92C242.473 151.507 243.342 149.92 243.739 148.114C243.781 147.92 243.815 147.734 243.848 147.548V147.38C243.95 146.627 244.006 145.869 244.017 145.109C242.22 144.931 240.55 144.098 239.327 142.769C238.104 141.44 237.412 139.708 237.383 137.901C237.29 134.32 238.085 130.771 239.696 127.571C239.281 127.625 238.888 127.788 238.557 128.043C238.524 128.068 238.488 128.085 238.448 128.094C238.409 128.103 238.368 128.103 238.329 128.094C238.255 128.081 238.189 128.042 238.143 127.984C238.098 127.921 238.079 127.843 238.09 127.766C238.101 127.689 238.141 127.619 238.202 127.571C238.727 127.174 239.367 126.961 240.025 126.963C240.152 126.761 240.27 126.55 240.396 126.355C239.856 126.355 239.333 126.355 238.827 126.355C239.384 122.456 246.887 119.181 252.001 122.135C254.28 122.591 258.045 125.849 258.045 125.849C258.12 127.924 258.061 130.002 257.867 132.069C257.53 135.597 256.694 139.741 254.66 142.054C255.166 140.871 255.352 139.576 255.2 138.298C254.713 138.78 254.107 139.126 253.445 139.302C253.204 139.82 252.922 140.316 252.601 140.788C251.807 144.409 251.242 149.228 252.449 152.005C253.538 152.072 254.593 152.173 255.597 152.283L255.842 152.325C256.504 151.936 257.142 151.505 257.749 151.034C265.345 145.126 257.285 138.188 259.184 131.833C261.083 125.478 259.479 123.064 254.289 122.861C256.441 119.426 242.768 113.94 236.759 124.6C231.315 134.264 229.56 139.091 231.518 146.645C232.254 149.114 233.921 151.2 236.168 152.46C236.551 152.356 236.94 152.277 237.333 152.224C238.405 152.123 239.519 152.005 240.616 151.92Z" fill="#263238"/>
<path d="M228.808 166.775C228.499 166.227 228.217 165.664 227.964 165.087C227.39 166.775 226.825 168.463 226.276 170.151C225.753 171.67 225.255 173.189 224.732 174.641L223.947 176.692L223.609 177.536C223.491 177.764 223.609 177.629 223.609 177.696C223.249 178.115 222.851 178.5 222.419 178.844C222.326 178.937 222.208 179.021 222.107 179.106C224.442 180.681 226.955 181.976 229.593 182.963C229.652 179.106 230.125 175.097 230.631 174.025C227.593 171.915 228.049 169.645 228.808 166.775Z" fill="#FFC3BD"/>
<path d="M231.762 155.389L231.551 155.684C231.619 155.583 231.695 155.49 231.771 155.397L231.762 155.389Z" fill="#263238"/>
<path d="M229.813 161.044C229.8 159.186 230.364 157.37 231.425 155.845C229.807 158.39 228.476 161.108 227.458 163.947C227.458 163.947 227.61 164.394 227.931 165.095C228.183 165.672 228.465 166.235 228.775 166.783C229.376 164.925 229.726 162.995 229.813 161.044Z" fill="#263238"/>
<path d="M259.235 173.29C258.234 171.82 257.345 170.277 256.576 168.673C256.323 168.808 256.061 168.943 255.791 169.062C253.259 166.386 251.098 164.225 251.098 164.225C247.942 157.642 249.892 153.895 255.876 152.367C256.804 152.558 257.69 152.916 258.492 153.422C257.703 152.867 256.796 152.503 255.842 152.359L255.597 152.317C254.593 152.207 253.538 152.106 252.449 152.038C252.685 152.654 247.267 160.478 243.865 161.719C242.473 158.208 238.565 157.971 238.565 157.971C238.565 157.971 234.919 157.22 233.788 159.516C234.531 154.773 239.097 152.274 240.616 151.92C239.519 152.013 238.405 152.131 237.333 152.266C236.94 152.319 236.551 152.398 236.168 152.502C234.431 152.979 232.891 153.996 231.771 155.406C231.695 155.498 231.619 155.591 231.551 155.693L231.425 155.853C230.364 157.378 229.8 159.194 229.813 161.052C229.736 162.999 229.398 164.926 228.808 166.783C228.049 169.619 227.593 171.923 230.572 174.033C230.066 175.105 229.593 179.097 229.534 182.971C233.729 184.526 238.168 185.315 242.642 185.3C248.369 185.291 254.028 184.051 259.235 181.662C259.09 178.521 259.115 175.374 259.311 172.235C259.285 172.573 259.252 172.944 259.235 173.29Z" fill="#263238"/>
<path d="M238.565 157.971C238.565 157.971 242.473 158.208 243.865 161.719C247.241 160.436 252.685 152.654 252.449 152.038C252.449 152.038 244.76 155.769 238.565 157.971Z" fill="white"/>
<path d="M240.633 151.92C239.114 152.283 234.548 154.781 233.805 159.516C234.936 157.22 238.582 157.971 238.582 157.971C237.4 153.532 240.633 151.92 240.633 151.92Z" fill="white"/>
<path d="M252.601 140.821C251.867 141.885 250.939 142.802 249.866 143.522C249.415 143.847 248.934 144.129 248.431 144.366C247.326 146.141 245.677 147.511 243.73 148.274V148.13C243.334 149.936 242.464 151.506 240.607 151.937C240.607 151.937 237.375 153.557 238.54 157.997C244.743 155.794 252.423 152.089 252.423 152.089C251.242 149.27 251.807 144.442 252.601 140.821Z" fill="#FFC3BD"/>
<path d="M243.756 148.105C243.798 147.91 243.832 147.725 243.865 147.539C243.832 147.699 243.798 147.91 243.756 148.105Z" fill="#263238"/>
<path opacity="0.2" d="M243.756 148.105C243.798 147.91 243.832 147.725 243.865 147.539C243.832 147.699 243.798 147.91 243.756 148.105Z" fill="black"/>
<path d="M244.06 145.101C244.048 145.86 243.992 146.618 243.891 147.371C243.996 146.619 244.052 145.86 244.06 145.101Z" fill="#263238"/>
<path opacity="0.2" d="M244.06 145.101C244.048 145.86 243.992 146.618 243.891 147.371C243.996 146.619 244.052 145.86 244.06 145.101Z" fill="black"/>
<path d="M248.431 144.324C247.072 144.975 245.559 145.238 244.06 145.084C244.052 145.843 243.996 146.602 243.891 147.354V147.523C243.891 147.709 243.823 147.894 243.781 148.088V148.232C245.709 147.46 247.339 146.09 248.431 144.324Z" fill="#FFC3BD"/>
<path opacity="0.2" d="M248.431 144.324C247.072 144.975 245.559 145.238 244.06 145.084C244.052 145.843 243.996 146.602 243.891 147.354V147.523C243.891 147.709 243.823 147.894 243.781 148.088V148.232C245.709 147.46 247.339 146.09 248.431 144.324Z" fill="black"/>
<path d="M248.431 144.324C248.934 144.087 249.415 143.805 249.866 143.48C250.939 142.76 251.867 141.843 252.601 140.779C252.922 140.308 253.204 139.811 253.445 139.294C253.284 139.294 253.124 139.378 252.972 139.395C251.563 139.522 251.166 137.935 251.807 136.517C252.024 136.037 252.309 135.591 252.651 135.192C252.283 133.987 252.373 132.688 252.905 131.546C251.622 128.912 250.263 126.482 250.136 124.718C246.978 125.694 243.701 126.231 240.396 126.313C240.27 126.507 240.152 126.718 240.025 126.921C240.311 126.919 240.596 126.962 240.869 127.047C240.905 127.06 240.937 127.08 240.965 127.106C240.993 127.132 241.015 127.163 241.031 127.198C241.047 127.232 241.055 127.27 241.057 127.307C241.058 127.345 241.051 127.383 241.038 127.419C241.011 127.491 240.957 127.549 240.888 127.582C240.819 127.616 240.739 127.62 240.667 127.596C240.363 127.504 240.043 127.481 239.73 127.528C238.14 130.731 237.366 134.277 237.476 137.85C237.505 139.657 238.196 141.389 239.42 142.718C240.643 144.047 242.312 144.88 244.11 145.058C245.59 145.211 247.085 144.957 248.431 144.324ZM246.549 127.748C247.009 127.838 247.44 128.039 247.804 128.333C248.169 128.627 248.457 129.006 248.642 129.436C248.675 129.507 248.679 129.587 248.654 129.661C248.629 129.735 248.576 129.796 248.507 129.832C248.437 129.861 248.358 129.861 248.288 129.832C248.25 129.822 248.215 129.803 248.185 129.776C248.156 129.75 248.133 129.717 248.119 129.68C247.966 129.34 247.732 129.041 247.438 128.81C247.144 128.58 246.799 128.423 246.431 128.355C246.355 128.343 246.286 128.302 246.239 128.241C246.192 128.18 246.17 128.103 246.178 128.026C246.181 127.983 246.194 127.941 246.216 127.903C246.237 127.866 246.267 127.833 246.302 127.808C246.338 127.783 246.378 127.767 246.421 127.759C246.464 127.751 246.507 127.753 246.549 127.765V127.748ZM246.254 131.917C246.395 132.023 246.499 132.17 246.552 132.338C246.605 132.506 246.604 132.686 246.549 132.854C246.456 133.343 246.119 133.698 245.798 133.622C245.477 133.546 245.292 133.116 245.385 132.626C245.431 132.378 245.559 132.152 245.747 131.985C245.484 131.845 245.278 131.618 245.165 131.343L246.254 131.917ZM239.333 131.563C239.378 131.318 239.503 131.096 239.688 130.93C239.429 130.783 239.227 130.555 239.114 130.28L240.219 130.845C240.355 130.955 240.456 131.102 240.509 131.269C240.561 131.436 240.563 131.614 240.515 131.782C240.413 132.272 240.084 132.626 239.763 132.559C239.443 132.491 239.24 132.069 239.333 131.579V131.563ZM241.291 135.664C240.978 135.683 240.665 135.633 240.373 135.518C240.082 135.403 239.819 135.225 239.603 134.998C240.507 134.179 241.296 133.242 241.949 132.212L241.291 135.664ZM242.92 137.926C242.883 137.916 242.85 137.892 242.83 137.86C242.81 137.827 242.803 137.787 242.81 137.749C242.818 137.712 242.841 137.68 242.872 137.66C242.904 137.639 242.942 137.632 242.979 137.639C243.588 137.771 244.22 137.756 244.822 137.598C245.425 137.44 245.982 137.142 246.448 136.728C246.461 136.714 246.477 136.703 246.495 136.695C246.512 136.688 246.531 136.683 246.55 136.683C246.57 136.683 246.589 136.686 246.607 136.693C246.625 136.7 246.641 136.71 246.655 136.724C246.669 136.737 246.68 136.753 246.687 136.77C246.695 136.788 246.699 136.807 246.7 136.826C246.7 136.845 246.697 136.864 246.69 136.882C246.683 136.9 246.672 136.917 246.659 136.93C245.874 137.653 244.839 138.04 243.772 138.011C243.487 138.008 243.202 137.986 242.92 137.943V137.926Z" fill="#FFC3BD"/>
<path d="M254.044 134.196C253.689 133.352 253.284 132.448 252.871 131.604C252.339 132.747 252.249 134.046 252.618 135.251C252.992 134.78 253.484 134.416 254.044 134.196Z" fill="#263238"/>
<path d="M245.731 132.01C245.542 132.178 245.414 132.403 245.368 132.651C245.275 133.141 245.461 133.588 245.781 133.647C246.102 133.706 246.44 133.369 246.532 132.879C246.587 132.712 246.588 132.531 246.535 132.363C246.482 132.195 246.378 132.048 246.237 131.942C246.166 131.997 246.082 132.032 245.993 132.043C245.904 132.055 245.814 132.044 245.731 132.01Z" fill="#263238"/>
<path d="M240.54 131.808C240.589 131.64 240.586 131.462 240.534 131.295C240.481 131.128 240.381 130.981 240.245 130.871C240.171 130.925 240.086 130.96 239.997 130.973C239.907 130.986 239.815 130.977 239.73 130.947C239.545 131.113 239.421 131.336 239.375 131.58C239.282 132.07 239.468 132.517 239.789 132.584C240.11 132.652 240.396 132.297 240.54 131.808Z" fill="#263238"/>
<path d="M240.202 130.87L239.097 130.305C239.21 130.58 239.412 130.808 239.671 130.955C239.759 130.987 239.854 130.996 239.947 130.981C240.04 130.966 240.128 130.928 240.202 130.87Z" fill="#263238"/>
<path d="M239.612 135.04C239.827 135.267 240.09 135.445 240.382 135.56C240.673 135.675 240.987 135.725 241.3 135.707L241.966 132.255C241.31 133.285 240.518 134.222 239.612 135.04Z" fill="#ED847E"/>
<path d="M246.642 136.728C246.614 136.701 246.576 136.686 246.537 136.686C246.497 136.686 246.46 136.701 246.431 136.728C245.967 137.139 245.413 137.436 244.814 137.594C244.214 137.753 243.586 137.768 242.979 137.64C242.942 137.632 242.904 137.639 242.872 137.66C242.841 137.68 242.819 137.713 242.81 137.749C242.803 137.787 242.81 137.827 242.83 137.86C242.851 137.893 242.883 137.917 242.92 137.927C243.199 137.974 243.481 138.003 243.764 138.011C244.83 138.041 245.866 137.653 246.651 136.931C246.674 136.902 246.687 136.865 246.685 136.828C246.684 136.79 246.668 136.755 246.642 136.728Z" fill="#263238"/>
<path d="M254.044 134.196C253.484 134.416 252.992 134.78 252.618 135.251C252.275 135.651 251.991 136.097 251.774 136.576C251.132 137.994 251.529 139.581 252.938 139.454C253.09 139.454 253.251 139.387 253.411 139.353C254.074 139.177 254.679 138.831 255.166 138.349C254.99 136.919 254.612 135.521 254.044 134.196Z" fill="#FFC3BD"/>
<path d="M250.297 123.494C250.347 122.278 251.039 121.983 251.985 122.169C246.87 119.181 239.367 122.456 238.81 126.389C239.316 126.389 239.839 126.389 240.38 126.389C243.684 126.306 246.961 125.77 250.119 124.793C250.07 124.352 250.131 123.906 250.297 123.494Z" fill="#263238"/>
<path d="M250.297 123.494C250.137 123.896 250.076 124.33 250.119 124.76C250.246 126.549 251.605 128.98 252.888 131.588C253.301 132.432 253.732 133.276 254.061 134.179C254.629 135.504 255.007 136.902 255.183 138.332C255.336 139.609 255.149 140.905 254.643 142.088C256.677 139.775 257.513 135.631 257.85 132.103C258.044 130.036 258.103 127.958 258.028 125.883C258.028 125.883 254.263 122.625 251.985 122.169C251.039 121.983 250.347 122.279 250.297 123.494Z" fill="#263238"/>
<path d="M246.448 128.347C246.815 128.415 247.161 128.571 247.455 128.802C247.749 129.033 247.983 129.331 248.136 129.672C248.15 129.709 248.173 129.742 248.202 129.768C248.232 129.795 248.267 129.814 248.305 129.824C248.375 129.853 248.454 129.853 248.524 129.824C248.593 129.788 248.646 129.727 248.671 129.653C248.696 129.579 248.692 129.498 248.659 129.428C248.474 128.997 248.186 128.619 247.821 128.325C247.457 128.031 247.026 127.83 246.566 127.74C246.489 127.73 246.411 127.751 246.35 127.799C246.288 127.846 246.247 127.916 246.237 127.993C246.221 128.068 246.234 128.146 246.273 128.211C246.312 128.277 246.375 128.326 246.448 128.347Z" fill="#263238"/>
<path d="M240.616 127.638C240.689 127.663 240.768 127.658 240.838 127.625C240.907 127.592 240.961 127.533 240.987 127.461C241.001 127.425 241.007 127.388 241.006 127.35C241.005 127.312 240.996 127.275 240.98 127.24C240.965 127.205 240.942 127.174 240.915 127.149C240.887 127.123 240.854 127.103 240.818 127.09C240.545 127.004 240.261 126.962 239.974 126.963C239.317 126.96 238.676 127.174 238.151 127.571C238.091 127.619 238.051 127.689 238.04 127.766C238.029 127.843 238.047 127.921 238.092 127.984C238.139 128.042 238.205 128.081 238.278 128.094C238.317 128.102 238.358 128.102 238.398 128.094C238.437 128.085 238.474 128.068 238.506 128.043C238.837 127.788 239.23 127.625 239.645 127.571C239.97 127.518 240.302 127.541 240.616 127.638Z" fill="#263238"/>
<path d="M245.731 132.01C245.814 132.044 245.904 132.055 245.993 132.043C246.082 132.032 246.166 131.997 246.237 131.942L245.131 131.377C245.25 131.652 245.463 131.876 245.731 132.01Z" fill="#263238"/>
<path d="M259.235 173.29C259.235 172.944 259.285 172.572 259.302 172.218C258.829 171.467 258.348 170.707 257.85 169.956L256.88 168.513L256.576 168.673C257.345 170.276 258.234 171.82 259.235 173.29Z" fill="#263238"/>
<path opacity="0.2" d="M259.235 173.29C259.235 172.944 259.285 172.572 259.302 172.218C258.829 171.467 258.348 170.707 257.85 169.956L256.88 168.513L256.576 168.673C257.345 170.276 258.234 171.82 259.235 173.29Z" fill="black"/>
<path d="M261.741 180.278V180.413C265.107 178.594 268.209 176.322 270.958 173.661C270.497 172.299 269.956 170.966 269.337 169.669C268.518 167.904 267.608 166.183 266.611 164.512C265.767 163.06 264.872 161.676 263.953 160.292C263.109 162.056 260.712 166.301 256.905 168.487L257.876 169.93C258.374 170.682 258.855 171.441 259.327 172.192C259.741 172.851 260.171 173.517 260.517 174.176C261.167 175.315 261.775 176.463 262.205 177.552L262.121 178.126C262.02 178.826 261.893 179.544 261.741 180.278Z" fill="#FFC3BD"/>
<path d="M251.098 164.225C251.098 164.225 253.259 166.386 255.791 169.062C256.061 168.943 256.323 168.808 256.576 168.673L256.88 168.513C260.686 166.327 263.066 162.082 263.927 160.318C264.172 159.82 264.299 159.516 264.299 159.516C264.299 159.516 261.851 155.465 258.492 153.422C257.69 152.916 256.804 152.558 255.875 152.367C249.891 153.895 247.942 157.642 251.098 164.225Z" fill="#263238"/>
<path d="M291.568 79.5637H303.46C303.785 79.5582 304.096 79.4312 304.332 79.2078C304.568 78.9844 304.711 78.6808 304.735 78.3567C304.745 78.2023 304.723 78.0475 304.671 77.9018C304.619 77.7561 304.537 77.6229 304.431 77.5103C304.325 77.3978 304.196 77.3084 304.054 77.2478C303.912 77.1872 303.758 77.1567 303.604 77.1583H291.703C291.38 77.1636 291.07 77.2894 290.834 77.511C290.598 77.7326 290.454 78.0342 290.429 78.3567C290.417 78.5125 290.438 78.669 290.49 78.8163C290.542 78.9636 290.625 79.0983 290.732 79.2119C290.839 79.3255 290.969 79.4155 291.113 79.476C291.257 79.5366 291.412 79.5664 291.568 79.5637Z" fill="#494848"/>
<path d="M291.323 83.7078H303.215C303.54 83.7023 303.851 83.5754 304.087 83.352C304.323 83.1286 304.467 82.825 304.49 82.5009C304.501 82.3459 304.481 82.1901 304.429 82.0434C304.377 81.8967 304.296 81.7624 304.19 81.6489C304.083 81.5354 303.954 81.4453 303.811 81.3842C303.668 81.3231 303.514 81.2924 303.359 81.294H291.467C291.141 81.2974 290.828 81.4234 290.59 81.647C290.352 81.8706 290.207 82.1754 290.184 82.5009C290.175 82.6561 290.197 82.8116 290.251 82.9577C290.304 83.1038 290.386 83.2376 290.493 83.3506C290.6 83.4637 290.728 83.5537 290.871 83.6151C291.014 83.6766 291.168 83.7081 291.323 83.7078Z" fill="#494848"/>
<path d="M195.116 83.7078H207.008C207.334 83.7025 207.646 83.5758 207.883 83.3526C208.12 83.1294 208.266 82.8257 208.291 82.5009C208.301 82.3454 208.279 82.1894 208.227 82.0428C208.174 81.8961 208.092 81.7619 207.985 81.6485C207.878 81.5352 207.748 81.4452 207.605 81.3842C207.462 81.3232 207.307 81.2925 207.151 81.294H195.259C194.934 81.2976 194.622 81.4239 194.386 81.6476C194.149 81.8714 194.006 82.1762 193.985 82.5009C193.974 82.6557 193.996 82.811 194.048 82.9571C194.1 83.1032 194.182 83.237 194.288 83.3502C194.394 83.4634 194.522 83.5536 194.665 83.6151C194.807 83.6766 194.961 83.7082 195.116 83.7078Z" fill="#494848"/>
<path d="M291.079 87.8435H302.996C303.322 87.8401 303.635 87.7141 303.873 87.4905C304.111 87.2669 304.256 86.9621 304.279 86.6366C304.288 86.4814 304.265 86.3259 304.212 86.1798C304.159 86.0337 304.077 85.9 303.97 85.7869C303.863 85.6739 303.735 85.5838 303.592 85.5224C303.449 85.461 303.295 85.4294 303.139 85.4297H291.222C290.896 85.435 290.584 85.5617 290.347 85.7849C290.11 86.0081 289.965 86.3118 289.939 86.6366C289.929 86.7921 289.951 86.9481 290.003 87.0948C290.056 87.2415 290.138 87.3757 290.245 87.489C290.352 87.6023 290.482 87.6923 290.625 87.7533C290.768 87.8143 290.923 87.845 291.079 87.8435Z" fill="#494848"/>
<path d="M275.448 239.266H203.505C202.162 239.278 200.83 239.013 199.594 238.486C198.358 237.959 197.245 237.182 196.323 236.204C195.402 235.225 194.694 234.067 194.242 232.802C193.79 231.536 193.605 230.191 193.698 228.851C193.9 226.05 195.146 223.426 197.188 221.498C199.23 219.57 201.921 218.477 204.729 218.436H276.672C278.015 218.423 279.347 218.689 280.583 219.216C281.819 219.743 282.932 220.52 283.853 221.498C284.774 222.476 285.483 223.635 285.935 224.9C286.387 226.165 286.572 227.511 286.479 228.851C286.276 231.652 285.031 234.276 282.989 236.204C280.947 238.132 278.256 239.225 275.448 239.266Z" fill="white"/>
<path d="M273.811 267.261H201.86C200.516 267.271 199.185 267.003 197.949 266.475C196.714 265.947 195.601 265.169 194.68 264.19C193.76 263.212 193.051 262.053 192.599 260.788C192.146 259.523 191.96 258.178 192.052 256.837C192.261 254.041 193.509 251.423 195.55 249.5C197.592 247.577 200.279 246.488 203.083 246.448H275.034C276.378 246.435 277.71 246.701 278.945 247.228C280.181 247.755 281.295 248.532 282.216 249.51C283.137 250.488 283.846 251.646 284.298 252.912C284.75 254.177 284.935 255.522 284.842 256.863C284.633 259.66 283.386 262.279 281.344 264.203C279.303 266.127 276.616 267.218 273.811 267.261Z" fill="white"/>
<path d="M272.165 295.248H200.222C198.879 295.26 197.547 294.995 196.311 294.468C195.075 293.941 193.961 293.164 193.04 292.186C192.119 291.207 191.41 290.049 190.959 288.784C190.507 287.518 190.322 286.173 190.415 284.833C190.617 282.031 191.862 279.406 193.904 277.477C195.946 275.547 198.637 274.453 201.446 274.41H273.388C274.732 274.398 276.064 274.665 277.3 275.193C278.536 275.721 279.65 276.499 280.571 277.477C281.492 278.456 282.2 279.615 282.652 280.881C283.104 282.147 283.289 283.492 283.196 284.833C282.993 287.634 281.748 290.258 279.706 292.186C277.664 294.114 274.973 295.207 272.165 295.248Z" fill="white"/>
<path d="M209.094 232.583C211.285 230.456 211.436 227.059 209.432 224.996C207.429 222.933 204.029 222.985 201.839 225.112C199.648 227.239 199.497 230.635 201.501 232.699C203.504 234.762 206.904 234.71 209.094 232.583Z" fill="#494848"/>
<path d="M204.83 251.765L205.539 254.44C205.58 254.587 205.669 254.717 205.791 254.808C205.913 254.9 206.062 254.949 206.215 254.947H209.025C209.184 254.948 209.337 255.002 209.463 255.099C209.588 255.196 209.678 255.331 209.719 255.484C209.76 255.637 209.75 255.8 209.69 255.946C209.631 256.093 209.524 256.216 209.388 256.297L207.016 257.985C206.882 258.075 206.778 258.204 206.721 258.356C206.663 258.507 206.654 258.673 206.696 258.829L207.405 261.505C207.447 261.658 207.44 261.821 207.387 261.971C207.333 262.121 207.235 262.251 207.105 262.343C206.975 262.435 206.82 262.485 206.661 262.486C206.501 262.487 206.346 262.439 206.215 262.349L204.037 260.661C203.913 260.574 203.766 260.527 203.615 260.527C203.464 260.527 203.317 260.574 203.193 260.661L200.821 262.349C200.697 262.447 200.543 262.502 200.384 262.503C200.226 262.504 200.071 262.452 199.946 262.354C199.82 262.257 199.731 262.12 199.692 261.966C199.654 261.812 199.668 261.65 199.733 261.505L200.754 258.829C200.817 258.684 200.829 258.522 200.789 258.369C200.75 258.216 200.66 258.081 200.534 257.985L198.357 256.297C198.237 256.194 198.152 256.057 198.113 255.903C198.074 255.75 198.084 255.589 198.14 255.441C198.196 255.293 198.297 255.167 198.428 255.078C198.559 254.99 198.714 254.944 198.872 254.947H201.682C201.842 254.947 201.997 254.898 202.128 254.808C202.26 254.717 202.36 254.589 202.417 254.44L203.404 251.765C203.449 251.61 203.543 251.475 203.671 251.378C203.8 251.282 203.956 251.229 204.117 251.229C204.278 251.229 204.434 251.282 204.563 251.378C204.692 251.475 204.786 251.61 204.83 251.765Z" fill="#494848"/>
<path d="M206.78 281.997L206.333 289.508C206.311 289.823 206.172 290.119 205.941 290.335C205.711 290.551 205.408 290.672 205.092 290.673H198.517C198.372 290.665 198.23 290.627 198.099 290.563C197.968 290.498 197.852 290.408 197.757 290.298C197.662 290.188 197.59 290.06 197.545 289.921C197.5 289.783 197.483 289.637 197.496 289.491L198.045 280.14C198.064 279.825 198.202 279.529 198.43 279.311C198.659 279.093 198.961 278.97 199.277 278.967H204.003L206.78 281.997Z" fill="#494848"/>
<path d="M203.961 278.984L206.805 281.997H204.957C204.807 281.998 204.658 281.969 204.519 281.91C204.381 281.851 204.256 281.764 204.153 281.655C204.05 281.545 203.971 281.416 203.92 281.274C203.87 281.133 203.849 280.982 203.86 280.832L203.961 278.984ZM203.21 276.916L203.092 278.933L202.982 280.782C202.967 281.051 203.007 281.32 203.098 281.574C203.19 281.828 203.331 282.06 203.514 282.259C203.699 282.454 203.923 282.61 204.172 282.716C204.42 282.822 204.687 282.876 204.957 282.875H208.822L207.438 281.398L204.602 278.385L203.21 276.916Z" fill="white"/>
<path opacity="0.2" d="M273.034 227.745H219.195C218.977 227.747 218.761 227.704 218.561 227.618C218.361 227.533 218.18 227.407 218.03 227.248C217.881 227.09 217.765 226.902 217.691 226.698C217.617 226.493 217.586 226.275 217.6 226.057C217.636 225.602 217.84 225.177 218.172 224.865C218.505 224.553 218.942 224.376 219.398 224.369H273.228C273.446 224.368 273.662 224.411 273.862 224.496C274.063 224.582 274.243 224.708 274.393 224.866C274.543 225.024 274.658 225.212 274.732 225.417C274.806 225.622 274.837 225.84 274.823 226.057C274.79 226.511 274.587 226.936 274.256 227.248C273.925 227.561 273.489 227.738 273.034 227.745Z" fill="#494848"/>
<path opacity="0.2" d="M262.83 233.349H218.874C218.656 233.35 218.44 233.307 218.239 233.222C218.038 233.136 217.857 233.011 217.707 232.852C217.557 232.694 217.44 232.507 217.365 232.302C217.29 232.097 217.258 231.879 217.271 231.661C217.307 231.206 217.511 230.781 217.843 230.469C218.176 230.157 218.613 229.98 219.069 229.973H263.024C263.243 229.97 263.46 230.012 263.661 230.097C263.862 230.182 264.044 230.308 264.195 230.467C264.345 230.625 264.461 230.813 264.536 231.018C264.61 231.224 264.642 231.443 264.628 231.661C264.59 232.115 264.386 232.539 264.054 232.851C263.721 233.162 263.285 233.34 262.83 233.349Z" fill="#494848"/>
<path opacity="0.2" d="M271.262 257.943H256.407C255.951 257.948 255.512 258.125 255.18 258.437C254.847 258.75 254.643 259.176 254.609 259.631C254.596 259.849 254.627 260.067 254.701 260.272C254.775 260.477 254.89 260.664 255.04 260.823C255.189 260.981 255.37 261.107 255.57 261.192C255.771 261.278 255.987 261.321 256.205 261.319H271.059C271.516 261.314 271.954 261.138 272.287 260.825C272.619 260.513 272.823 260.087 272.857 259.631C272.871 259.414 272.84 259.196 272.766 258.991C272.692 258.786 272.576 258.599 272.426 258.44C272.277 258.282 272.096 258.156 271.896 258.071C271.695 257.985 271.479 257.942 271.262 257.943Z" fill="#494848"/>
<path opacity="0.2" d="M247.722 257.943H217.431C216.975 257.949 216.537 258.125 216.204 258.437C215.871 258.75 215.667 259.176 215.634 259.631C215.618 259.849 215.649 260.068 215.722 260.273C215.796 260.479 215.911 260.667 216.061 260.825C216.211 260.984 216.392 261.11 216.593 261.195C216.794 261.28 217.011 261.322 217.229 261.319H247.528C247.984 261.312 248.421 261.136 248.754 260.823C249.086 260.511 249.29 260.086 249.326 259.631C249.34 259.413 249.309 259.195 249.234 258.989C249.16 258.784 249.044 258.596 248.893 258.437C248.742 258.279 248.561 258.153 248.359 258.068C248.158 257.983 247.941 257.941 247.722 257.943Z" fill="#494848"/>
<path opacity="0.2" d="M261.716 252.355H217.752C217.295 252.361 216.857 252.537 216.524 252.849C216.192 253.162 215.988 253.588 215.954 254.043C215.94 254.261 215.971 254.479 216.045 254.684C216.119 254.889 216.235 255.076 216.385 255.235C216.534 255.393 216.715 255.519 216.915 255.604C217.116 255.69 217.332 255.733 217.549 255.731H261.505C261.961 255.724 262.398 255.548 262.73 255.235C263.063 254.923 263.267 254.498 263.303 254.043C263.317 253.827 263.286 253.609 263.212 253.405C263.139 253.201 263.024 253.014 262.875 252.855C262.727 252.697 262.547 252.571 262.348 252.485C262.148 252.399 261.933 252.355 261.716 252.355Z" fill="#494848"/>
<path opacity="0.2" d="M269.616 285.931H215.785C215.33 285.94 214.894 286.117 214.562 286.429C214.23 286.741 214.025 287.165 213.988 287.619C213.974 287.837 214.005 288.056 214.08 288.261C214.154 288.467 214.27 288.654 214.421 288.813C214.571 288.971 214.753 289.097 214.955 289.182C215.156 289.267 215.373 289.309 215.591 289.307H269.422C269.877 289.3 270.313 289.122 270.644 288.81C270.975 288.498 271.177 288.073 271.211 287.619C271.225 287.401 271.194 287.183 271.12 286.978C271.046 286.773 270.93 286.586 270.781 286.428C270.631 286.269 270.45 286.143 270.25 286.058C270.05 285.972 269.834 285.929 269.616 285.931Z" fill="#494848"/>
<path opacity="0.2" d="M260.07 280.334H216.115C215.659 280.341 215.222 280.518 214.889 280.83C214.557 281.142 214.353 281.567 214.317 282.022C214.303 282.239 214.334 282.457 214.408 282.662C214.482 282.867 214.598 283.055 214.747 283.213C214.897 283.372 215.078 283.497 215.278 283.583C215.478 283.668 215.694 283.712 215.912 283.71H259.876C260.331 283.703 260.767 283.526 261.098 283.213C261.429 282.901 261.632 282.476 261.665 282.022C261.679 281.805 261.648 281.587 261.574 281.382C261.5 281.177 261.385 280.989 261.235 280.831C261.085 280.673 260.905 280.547 260.704 280.461C260.504 280.376 260.288 280.332 260.07 280.334Z" fill="#494848"/>
</svg>
