<?xml version="1.0" encoding="UTF-8" standalone="no"?><svg xmlns="http://www.w3.org/2000/svg" xmlns:xlink="http://www.w3.org/1999/xlink" fill="#000000" height="344.6" preserveAspectRatio="xMidYMid meet" version="1" viewBox="-0.0 -0.1 410.6 344.6" width="410.6" zoomAndPan="magnify"><g id="change1_1"><path d="M410.05948,157.47368c0,8.3737-0.07407,14.44954,0.02176,20.52266 c0.08829,5.59097-0.47873,11.15193-0.61438,16.7338c-0.13513,5.55888-0.60931,11.12178-0.92429,16.68376 c-0.28775,5.08202-0.64804,10.16208-0.94476,15.2462c-0.32407,5.55194-0.82382,11.09804-1.41357,16.62891 c-0.68652,6.43826-1.80295,12.79034-5.20657,18.47314c-3.7803,6.31168-9.02493,10.64014-16.40561,12.08792 c-4.93558,0.96814-9.92993,1.16876-14.93652,1.46823c-9.97592,0.59671-19.96698,0.68488-29.92368,0.30023 c-16.13458-0.62326-32.27118,0.10062-48.39053-0.44153c-23.56464-0.79254-47.12822-0.25-70.69101-0.29523 c-5.32475-0.01022-10.68959,0.11496-16.01018,0.48376c-2.94556,0.20419-5.89377,0.16937-8.82527,0.41251 c-5.79407,0.48053-11.61238,0.58313-17.39603,1.03238c-5.67213,0.44061-11.33444,0.04099-16.97925,0.41937 c-5.73912,0.38474-11.49185,0.16092-17.21176,0.53998c-3.18619,0.21115-6.38487,0.08069-9.5428,0.42325 c-5.69499,0.61771-11.424,0.66949-17.1249,1.24521c-3.06907,0.30994-6.19094,0.45374-9.28625,0.66373 c-3.00574,0.20386-6.03824,0.23114-9.0145,0.80917c-0.234,0.04544-0.4781,0.07962-0.71442,0.06595 c-4.07658-0.23581-8.10548,0.56964-12.17868,0.52304c-6.06158-0.06937-12.12377,0.32678-18.16671,0.61731 c-5.82804,0.28021-11.64993,0.42889-17.45894,0.25473c-6.91443-0.20728-13.78534-1.11542-20.46759-3.04449 c-4.12364-1.1904-7.85249-3.18707-10.93462-6.17776c-2.83941-2.75519-4.90622-6.1163-6.26444-9.81448 c-1.98332-5.40018-2.96072-11.02199-3.55326-16.75607c-0.49832-4.82234-0.78783-9.66159-1.22881-14.48563 c-0.28124-3.07643-0.50539-6.18779-0.68469-9.287c-0.18303-3.16376-0.19279-6.35995-0.79389-9.49608 c-0.0597-0.31143-0.0727-0.63599-0.07157-0.95435c0.02008-5.66072-0.81883-11.267-1.07565-16.91528 c-0.22739-5.00099-0.66016-9.998-0.93552-15.00414c-0.35422-6.43988-0.65201-12.88191-1.00535-19.31897 c-0.19671-3.58374-0.14599-7.1721-0.40964-10.74292c-0.49281-6.67455-0.57505-13.36836-1.02019-20.03748 c-0.21801-3.26601-0.06985-6.54923-0.45023-9.779c-0.44125-3.74662-0.06093-7.51505-0.49211-11.21872 c-0.5482-4.70887-0.16251-9.41106-0.42716-14.10442c-0.92724-16.44372-0.06258-32.90375-0.53484-49.34674 c-0.11424-3.97736-0.33835-7.95758-0.37063-11.94225c-0.01432-1.76749,0.32318-3.49313,0.7352-5.18259 c0.87402-3.58397,3.27784-5.79695,6.77015-6.73672c3.29864-0.88765,6.63096-1.67501,9.98173-2.33844 c5.21946-1.03343,10.44863-2.04695,15.7083-2.83925c4.55273-0.6858,9.15283-1.05895,13.73335-1.55787 c4.26312-0.46434,8.5225-0.97734,12.79445-1.34061c2.21795-0.18859,4.44683-0.38761,6.66049-0.48942 c4.85308-0.22322,9.66293-0.88918,14.51539-1.13989c5.24153-0.27079,10.50275-0.49643,15.71789-0.98451 c4.3691-0.40889,8.78057,0.16623,13.10034-0.77816c0.23028-0.05034,0.47847-0.03465,0.71753-0.02658 c7.10742,0.24001,14.19088-0.46722,21.28945-0.62275c4.45354-0.09761,8.94083-0.06045,13.37248-0.47792 c3.03284-0.28569,6.08864,0.01197,9.06055-0.43942c4.51779-0.68618,9.09564,0.0767,13.57852-0.8329 c0.15477-0.0314,0.3194-0.03198,0.47818-0.02349c4.87399,0.25998,9.71257-0.53898,14.57721-0.49541 c5.10748,0.04575,10.19246-0.47493,15.29311-0.62809c3.25198-0.09766,6.53195-0.12832,9.78214-0.39134 c5.31708-0.43031,10.64288-0.65963,15.96349-0.99219c3.88347-0.24272,7.77243-0.58058,11.64249-0.967 c4.265-0.42586,8.54492-0.74295,12.8082-1.21978c2.51334-0.2811,5.08176-0.4372,7.60164-0.69664 c4.98199-0.51291,10.0083-0.49393,14.96069-1.3004c0.15677-0.02554,0.31924-0.03084,0.47833-0.02537 c4.95081,0.1703,9.87128-0.4456,14.81531-0.57257c21.72433-0.55788,43.45325-0.17983,65.17422-0.54116 c5.81421-0.0967,11.64206-0.39851,17.45654-0.27785c5.07803,0.1054,10.14917,0.66234,15.16864,1.52923 c2.74332,0.47378,5.46494,1.0432,8.12817,1.88083c4.45074,1.39984,7.26984,4.44264,8.87711,8.71645 c1.29742,3.44975,1.87967,7.07375,2.36865,10.69529c0.58423,4.32741,0.96432,8.68239,1.43216,13.02549 c0.00848,0.0793,0.01453,0.16007,0.00974,0.23943c-0.23145,3.83781,0.6138,7.62569,0.51971,11.4593 c-0.11365,4.62797,0.44208,9.23245,0.57925,13.85543c0.14609,4.92011,0.62207,9.84118,0.92398,14.76494 c0.31653,5.1616,0.65164,10.32232,0.96985,15.48421c0.39197,6.36015,0.67007,12.72076,0.9816,19.08243 c0.18716,3.8222,0.07919,7.66563,0.4696,11.45708c0.3367,3.27075,0.12296,6.54352,0.43979,9.78529 C410.54025,141.254,409.76227,150.52022,410.05948,157.47368z M384.14648,191.64796 c-0.29648-4.76007,0.12195-11.37315-0.33008-18.00676c-0.47577-6.98198-0.85876-13.99905-0.98343-20.99474 c-0.19196-10.77293-0.44992-21.54665-0.56363-32.32112c-0.06735-6.38276-0.80414-12.74345-0.53531-19.13286 c0.00668-0.15927,0.01022-0.32263-0.01614-0.47878c-0.86569-5.1293-0.3472-10.33153-0.82538-15.49506 c-0.32883-3.55086-0.83871-7.13125-0.60162-10.73051c0.01041-0.15749-0.00745-0.32146-0.04025-0.47646 c-0.69653-3.28757-0.53699-6.65227-0.81281-9.97485c-0.31635-3.81111-0.58429-7.60874-1.51767-11.32315 c-1.16373-4.63099-2.04309-9.36376-4.40115-13.60373c-2.47943-4.45813-5.41083-8.41866-10.43536-10.4114 c-3.10501-1.23145-6.3309-1.52643-9.56396-1.82606c-2.60986-0.2419-5.23642-0.20301-7.86456-0.43044 c-5.62399-0.48672-11.27853-0.7906-16.91837-0.97661c-9.40878-0.31026-18.82965-0.28823-28.24527-0.46107 c-9.8063-0.18003-19.63452-0.53996-29.4454,0.31816c-3.96347,0.34667-7.95215,0.1014-11.94409,0.40719 c-4.83363,0.37028-9.71463,0.46726-14.56967,0.52231c-4.87071,0.05523-9.74455,0.26257-14.56357,0.7102 c-4.12801,0.38347-8.26964,0.40478-12.38724,0.65438c-5.63664,0.34167-11.29405,0.92548-16.96596,0.65827 c-0.39821-0.01876-0.81471-0.05541-1.19583,0.03267c-3.84021,0.88759-7.77634,0.45624-11.66049,0.77237 c-5.54205,0.45108-11.11691,0.66615-16.67809,0.9883c-5.0054,0.28997-10.00815,0.53332-14.99896,1.03695 c-3.95403,0.39903-7.95268,0.47206-11.87094,1.08015c-5.1098,0.793-10.26161,1.12289-15.38419,1.75027 c-5.59692,0.6855-11.23119,1.22789-16.86313,1.4166c-4.86339,0.16295-9.67959,0.73962-14.51282,1.13379 c-2.21909,0.18098-4.44733,0.27161-6.66103,0.49588c-3.79062,0.38401-7.56116,0.98397-11.35614,1.30265 c-4.28236,0.35961-8.51775,1.02986-12.74155,1.7467c-4.38459,0.74412-8.74983,1.64182-13.07919,2.66072 c-4.34055,1.02157-8.63692,2.19296-12.62023,4.34637c-4.57847,2.47517-6.92396,6.54942-7.31181,11.37835 c-0.50895,6.33721-0.7594,12.71476-1.00089,19.07553c-0.40867,10.76408,0.26835,21.55049-0.50589,32.31773 c-0.17659,2.45576,0.18618,4.92458,0.33545,7.38688c0.37132,6.12582-0.1244,12.27346,0.49107,18.41605 c0.43594,4.3508,0.05367,8.74747,0.45636,13.13957c0.50864,5.5479-0.07977,11.15118,0.50621,16.73396 c0.43151,4.1109-0.02375,8.27025,0.45961,12.4216c0.43117,3.70332,0.23657,7.47095,0.46804,11.21638 c0.35823,5.79654,0.61193,11.60146,0.99943,17.40079c0.27589,4.12915,0.25895,8.27834,0.44806,12.41962 c0.29101,6.37263,0.65385,12.72195,2.07922,18.93961c0.93296,4.06978,2.578,7.84131,5.73304,10.83847 c3.57288,3.39412,7.99018,4.84323,12.61129,5.8893c2.63718,0.59697,5.3226,0.87891,8.02178,1.12471 c2.8446,0.25911,5.67192,0.82838,8.53523,0.78242c7.09752-0.11383,14.18827,0.06354,21.29742-0.31674 c7.78898-0.4167,15.60315-0.39815,23.39372-1.0363c3.56619-0.29213,7.17676-0.38695,10.73755-0.40834 c8.62234-0.05176,17.22397-0.69928,25.84682-0.63744c3.89771,0.02798,7.79237,0.13022,11.70663-0.36226 c4.24934-0.53453,8.55775-0.64424,12.83876-0.97685c5.23242-0.40652,10.48106-0.69963,15.72221-0.94696 c6.2029-0.2928,12.40082-0.71887,18.60091-0.95107c8.6078-0.32228,17.23004-0.17047,25.84753-0.48138 c4.46066-0.16093,8.91687-0.45775,13.36897-0.68481c5.24104-0.26733,10.47807-0.7836,15.72826-0.81445 c4.70828-0.02769,9.3822-0.7957,14.09644-0.53371c0.15891,0.00883,0.32507,0.01556,0.4783-0.01912 c4.15704-0.94138,8.42206-0.12599,12.61813-0.83597c2.64581-0.44768,5.39847-0.29759,8.09598-0.43102 c6.36102-0.31454,12.7182-0.68362,19.07803-1.01555c5.16611-0.26961,10.32346-0.5733,15.48343-0.95128 c5.55228-0.40669,11.12146-0.60901,16.68057-0.98204c3.61145-0.2424,7.10144-0.85437,10.50305-2.03696 c3.51096-1.22058,6.74512-2.96745,9.29251-5.6982c4.04608-4.33751,6.78192-9.40384,8.05963-15.24384 c0.85403-3.90323,1.12985-7.87567,1.29742-11.83014C384.31451,204.05908,384.14648,198.77666,384.14648,191.64796z M290.48126,37.84399c6.10089,0,10.17755,0.05493,14.25229-0.01107c9.42056-0.15256,18.82651,0.44721,28.23923,0.62913 c5.69022,0.10999,11.44009,0.3407,17.11401,1.23263c1.63763,0.25744,3.34064,0.40905,4.97568,0.43928 c3.03357,0.05607,4.73849,1.88593,6.05505,4.06027c1.90109,3.13972,3.23676,6.56599,3.87003,10.23245 c0.21552,1.2475,0.74554,2.44315,0.93439,3.69235c0.55859,3.69564,0.95621,7.41043,0.98889,11.15682 c0.03198,3.66208,0.4068,7.29869,0.85495,10.93009c0.09738,0.78885,0.08359,1.5957,0.06924,2.39333 c-0.07874,4.38781,0.29477,8.74252,0.9158,13.08082c0.03381,0.2361,0.0444,0.47887,0.03513,0.71732 c-0.25879,6.62796,0.32706,13.24033,0.61057,19.84576c0.43866,10.21787,0.09265,20.43604,0.48694,30.63942 c0.15063,3.89864,0.13095,7.81158,0.42157,11.69922c0.55856,7.472,0.59085,14.96638,1.03339,22.43196 c0.43085,7.26927,0.42175,14.52736,0.22989,21.77164c-0.14035,5.29747-0.03775,10.6687-1.29004,15.90408 c-1.67001,6.98184-6.03232,11.82475-14.01309,12.49208c-5.07727,0.42451-10.1553,0.70406-15.23993,0.98495 c-5.00085,0.27626-9.99808,0.65942-15.00098,0.95779c-5.79965,0.34593-11.60266,0.62701-17.39807,0.98848 c-3.58459,0.2236-7.17288,0.1568-10.74121,0.43349c-6.11481,0.47408-12.24359,0.63359-18.35577,1.02164 c-3.66675,0.23288-7.33353,0.12343-10.9819,0.40831c-6.11435,0.47734-12.25543,0.47371-18.35774,0.98318 c-8.27203,0.69064-16.54582,0.9426-24.83669,0.90086c-5.90323-0.02975-11.79263,0.41501-17.69012,0.57735 c-6.19769,0.17061-12.3968,0.63023-18.59871,0.92387c-4.92125,0.23302-9.86153,0.47997-14.75711,0.97984 c-6.91582,0.70619-13.84306,0.61835-20.75661,0.97987c-6.70441,0.35056-13.4118,0.03024-20.08975,0.46902 c-3.66638,0.24091-7.33088,0.16498-10.98244,0.41916c-6.91369,0.4812-13.84684,0.5829-20.75391,1.0155 c-10.38,0.65004-20.75213,0.3891-31.12189,0.2859c-4.57626-0.04552-9.18323-0.69287-13.65947-1.92525 c-3.20364-0.88205-5.33055-2.72331-6.03228-6.06412c-0.7851-3.73784-1.35225-7.4897-1.57029-11.31837 c-0.25389-4.45862-0.24876-8.92923-0.5547-13.37122c-0.2084-3.02588-0.16681-6.05229-0.39772-9.06546 c-0.48079-6.27333-0.62796-12.56454-1.04786-18.83401c-0.22962-3.42824-0.09745-6.85637-0.39298-10.26357 c-0.53886-6.21277-0.16127-12.44936-0.55524-18.64743c-0.25345-3.98705-0.00449-7.99229-0.4516-11.93672 c-0.56981-5.02687-0.06935-10.05678-0.44635-15.05961c-0.88982-11.80862-0.54393-23.63425-0.28148-35.43374 c0.20052-9.01659,0.18264-18.0316,0.34647-27.04586c0.02759-1.5183,0.51521-2.96936,0.57275-4.49596 c0.04535-1.20336,0.94856-1.9253,2.04507-2.43169c2.55486-1.17988,5.28702-1.78227,7.99075-2.42326 c6.18444-1.46613,12.40896-2.73135,18.73152-3.50434c4.33621-0.53014,8.65501-1.12796,13.02134-1.44764 c5.85711-0.42881,11.67897-1.35227,17.53731-1.74549c2.77609-0.18634,5.53899-0.57872,8.33401-0.60226 c3.57709-0.03008,7.12864-0.54031,10.69055-0.81613c2.45696-0.19025,4.89861-0.54687,7.36907-0.66277 c3.40692-0.15985,6.80508-0.60195,10.19391-1.02761c4.09698-0.5146,8.1701-1.18151,12.31065-1.35452 c2.53256-0.10584,5.05278-0.50724,7.57837-0.77749c0.31671-0.03388,0.63445-0.12372,0.9482-0.10955 c4.15443,0.18741,8.29581-0.32764,12.40553-0.65528c3.88266-0.30956,7.82114,0.13614,11.6572-0.7666 c0.1528-0.03596,0.31892-0.02861,0.47809-0.02201c5.27045,0.21904,10.51889-0.38935,15.76677-0.63699 c4.35568-0.20553,8.76559,0.06828,13.09276-0.77405c0.54036-0.10519,1.11775-0.0613,1.67509-0.03175 c4.63451,0.24554,9.24277-0.36109,13.84833-0.62979c3.26315-0.19041,6.54475-0.05606,9.77904-0.41671 c4.38112-0.4885,8.78795-0.07349,13.13333-0.51672c3.75322-0.38281,7.50511-0.0606,11.22227-0.43325 C274.79126,37.37626,283.65527,38.1453,290.48126,37.84399z M165.57312,100.19916c0.28256,3.01875,0.60648,6.03431,0.83965,9.05688 c0.58986,7.64586,0.65004,15.31773,1.06549,22.97128c0.67549,12.44362,2.02841,24.82521,3.84232,37.15196 c0.82475,5.60484,1.78139,11.19318,2.81941,16.76268c0.60388,3.2402,2.17426,4.07858,5.3649,3.1837 c0.53278-0.14938,1.04602-0.39549,1.5396-0.65213c1.20352-0.62578,2.41612-1.24049,3.57968-1.93564 c11.86734-7.09074,23.22989-14.94147,34.46066-22.98558c9.86281-7.06433,19.30525-14.71989,29.68205-21.06062 c2.65636-1.62318,5.28714-3.28813,7.94281-4.9124c0.89655-0.54836,1.67938-1.17691,2.28802-2.06047 c1.55344-2.25517,1.21982-3.96942-1.22614-5.26907c-1.40469-0.74638-2.8828-1.38216-4.38072-1.92064 c-5.48051-1.97013-10.96188-3.94199-16.48178-5.79767c-14.21858-4.77997-28.44086-9.55314-42.26233-15.41055 c-8.30034-3.5176-16.56374-7.1171-24.96367-10.39857C166.46979,95.66704,164.88782,96.49753,165.57312,100.19916z M156.9791,327.79559c1.10458-5.45178,1.08607-10.50122-0.44284-15.40833c0.84647-0.5347,1.58044-0.31232,2.271-0.29935 c16.06464,0.30139,32.12782,0.05777,48.17867-0.50604c11.89662-0.41791,23.80905-0.3782,35.6924-1.19705 c2.15083-0.14822,4.31248-0.19293,6.46918-0.19424c17.90402-0.01086,35.7876-0.75632,53.67371-1.4346 c11.49866-0.4361,22.99863-0.88501,34.50882-0.83786c3.92224,0.01605,7.82468-0.31802,11.73013-0.55707 c11.01358-0.67413,22.05283-0.27896,33.0668-0.87814c3.66986-0.19968,7.34256-0.35065,11.01468-0.50565 c0.71585-0.03027,1.44553-0.04666,2.15067,0.05557c1.0546,0.15292,1.66016,0.74695,1.81168,1.89154 c0.45221,3.41684,0.608,6.84225,0.44138,10.28006c-0.1022,2.10822-0.79935,2.85266-2.8754,3.11169 c-1.42557,0.17789-2.8623,0.38016-4.29379,0.37817c-8.24332-0.01147-16.43759,0.68497-24.61884,1.5997 c-9.13507,1.02142-18.29684,1.586-27.4855,1.88449c-12.37592,0.40201-24.72574,1.4798-37.12048,1.4498 c-15.74255-0.03806-31.48514-0.05594-47.22774-0.06262c-10.30818-0.00439-20.61674-0.13907-30.92445,0.10098 c-2.47601,0.05771-4.95462,0.05087-7.4313,0.01758c-3.27666-0.04407-6.54622-0.0686-9.8201,0.21542 c-1.90436,0.16522-3.84132,0.17731-5.74852,0.04343c-4.71516-0.33093-9.40465-0.11536-14.11993,0.11807 c-8.53467,0.42252-17.08595,0.51059-25.63049,0.73114C159.29776,327.81686,158.34549,327.79559,156.9791,327.79559z M144.0309,310.16135c-2.87894-7.30966-9.96451-11.33871-16.83991-11.33377c-5.24432,0.00375-10.11499,1.45688-14.54195,4.19714 c-6.11732,3.78662-9.61816,9.18195-9.63316,16.57208c-0.00471,2.32458,0.11655,4.6344,0.60945,6.90726 c1.39876,6.4502,4.66058,11.4538,10.92377,14.19522c2.96165,1.29633,6.05233,1.89151,9.22597,2.39038 c9.1312,1.43521,17.39643-5.00278,20.14063-11.89774c1.31444-3.30252,2.09033-6.69846,2.04039-9.66348 C146.10005,317.19974,145.39096,313.61459,144.0309,310.16135z M78.8196,313.36942 c-12.28358,0.66147-24.59338,0.73456-36.863,1.68784c-3.42438,0.26602-6.85147,0.3988-10.29261,0.32489 c-2.9768-0.06387-3.33192,0.34869-3.82699,3.3663c-0.42868,2.61301-0.6839,5.26855-0.39352,7.87958 c0.5465,4.91425,0.80659,6.28552,6.38406,6.14035c8.3021-0.21609,16.60171-0.49008,24.90713-0.61075 c3.51005-0.05096,7.01865-0.22903,10.53566-0.21884c6.86762,0.01993,13.73874,0.01913,20.58801-0.63498 c1.70068-0.16241,1.73814-0.14566,1.39122-1.81754c-1.05545-5.0863-1.05927-10.1463,0.26693-15.18951 c0.07537-0.28659,0.00974-0.61026,0.00974-0.96326C87.25991,313.3335,83.02852,313.14279,78.8196,313.36942z M166.41277,109.25604 c0.58986,7.64586,0.65004,15.31773,1.06549,22.97128c0.67549,12.44362,2.02841,24.82521,3.84232,37.15196 c0.82475,5.60484,1.78139,11.19318,2.81941,16.76268c0.60388,3.2402,2.17426,4.07858,5.3649,3.1837 c0.53278-0.14938,1.04602-0.39549,1.5396-0.65213c1.20352-0.62578,2.41612-1.24049,3.57968-1.93564 c11.86734-7.09074,23.22989-14.94147,34.46066-22.98558c9.86281-7.06433,19.30525-14.71989,29.68205-21.06062 c2.65636-1.62318,5.28714-3.28813,7.94281-4.9124c0.89655-0.54836,1.67938-1.17691,2.28802-2.06047 c1.55344-2.25517,1.21982-3.96942-1.22614-5.26907c-1.40469-0.74638-2.8828-1.38216-4.38072-1.92064 c-5.48051-1.97013-10.96188-3.94199-16.48178-5.79767c-14.21858-4.77997-28.44086-9.55314-42.26233-15.41055 c-8.30034-3.5176-16.56374-7.1171-24.96367-10.39857c-3.21329-1.25528-4.79526-0.42479-4.11137,3.27697 C165.85568,103.21791,166.1796,106.23347,166.41277,109.25604z" fill="#f5ee8c"/></g><g id="change1_2"><path d="M410.05948,157.47368c0,8.3737-0.07407,14.44954,0.02176,20.52266 c0.08829,5.59097-0.47873,11.15193-0.61438,16.7338c-0.13513,5.55888-0.60931,11.12178-0.92429,16.68376 c-0.28775,5.08202-0.64804,10.16208-0.94476,15.2462c-0.32407,5.55194-0.82382,11.09804-1.41357,16.62891 c-0.68652,6.43826-1.80295,12.79034-5.20657,18.47314c-3.7803,6.31168-9.02493,10.64014-16.40561,12.08792 c-4.93558,0.96814-9.92993,1.16876-14.93652,1.46823c-9.97592,0.59671-19.96698,0.68488-29.92368,0.30023 c-16.13458-0.62326-32.27118,0.10062-48.39053-0.44153c-23.56464-0.79254-47.12822-0.25-70.69101-0.29523 c-5.32475-0.01022-10.68959,0.11496-16.01018,0.48376c-2.94556,0.20419-5.89377,0.16937-8.82527,0.41251 c-5.79407,0.48053-11.61238,0.58313-17.39603,1.03238c-5.67213,0.44061-11.33444,0.04099-16.97925,0.41937 c-5.73912,0.38474-11.49185,0.16092-17.21176,0.53998c-3.18619,0.21115-6.38487,0.08069-9.5428,0.42325 c-5.69499,0.61771-11.424,0.66949-17.1249,1.24521c-3.06907,0.30994-6.19094,0.45374-9.28625,0.66373 c-3.00574,0.20386-6.03824,0.23114-9.0145,0.80917c-0.234,0.04544-0.4781,0.07962-0.71442,0.06595 c-4.07658-0.23581-8.10548,0.56964-12.17868,0.52304c-6.06158-0.06937-12.12377,0.32678-18.16671,0.61731 c-5.82804,0.28021-11.64993,0.42889-17.45894,0.25473c-6.91443-0.20728-13.78534-1.11542-20.46759-3.04449 c-4.12364-1.1904-7.85249-3.18707-10.93462-6.17776c-2.83941-2.75519-4.90622-6.1163-6.26444-9.81448 c-1.98332-5.40018-2.96072-11.02199-3.55326-16.75607c-0.49832-4.82234-0.78783-9.66159-1.22881-14.48563 c-0.28124-3.07643-0.50539-6.18779-0.68469-9.287c-0.18303-3.16376-0.19279-6.35995-0.79389-9.49608 c-0.0597-0.31143-0.0727-0.63599-0.07157-0.95435c0.02008-5.66072-0.81883-11.267-1.07565-16.91528 c-0.22739-5.00099-0.66016-9.998-0.93552-15.00414c-0.35422-6.43988-0.65201-12.88191-1.00535-19.31897 c-0.19671-3.58374-0.14599-7.1721-0.40964-10.74292c-0.49281-6.67455-0.57505-13.36836-1.02019-20.03748 c-0.21801-3.26601-0.06985-6.54923-0.45023-9.779c-0.44125-3.74662-0.06093-7.51505-0.49211-11.21872 c-0.5482-4.70887-0.16251-9.41106-0.42716-14.10442c-0.92724-16.44372-0.06258-32.90375-0.53484-49.34674 c-0.11424-3.97736-0.33835-7.95758-0.37063-11.94225c-0.01432-1.76749,0.32318-3.49313,0.7352-5.18259 c0.87402-3.58397,3.27784-5.79695,6.77015-6.73672c3.29864-0.88765,6.63096-1.67501,9.98173-2.33844 c5.21946-1.03343,10.44863-2.04695,15.7083-2.83925c4.55273-0.6858,9.15283-1.05895,13.73335-1.55787 c4.26312-0.46434,8.5225-0.97734,12.79445-1.34061c2.21795-0.18859,4.44683-0.38761,6.66049-0.48942 c4.85308-0.22322,9.66293-0.88918,14.51539-1.13989c5.24153-0.27079,10.50275-0.49643,15.71789-0.98451 c4.3691-0.40889,8.78057,0.16623,13.10034-0.77816c0.23028-0.05034,0.47847-0.03465,0.71753-0.02658 c7.10742,0.24001,14.19088-0.46722,21.28945-0.62275c4.45354-0.09761,8.94083-0.06045,13.37248-0.47792 c3.03284-0.28569,6.08864,0.01197,9.06055-0.43942c4.51779-0.68618,9.09564,0.0767,13.57852-0.8329 c0.15477-0.0314,0.3194-0.03198,0.47818-0.02349c4.87399,0.25998,9.71257-0.53898,14.57721-0.49541 c5.10748,0.04575,10.19246-0.47493,15.29311-0.62809c3.25198-0.09766,6.53195-0.12832,9.78214-0.39134 c5.31708-0.43031,10.64288-0.65963,15.96349-0.99219c3.88347-0.24272,7.77243-0.58058,11.64249-0.967 c4.265-0.42586,8.54492-0.74295,12.8082-1.21978c2.51334-0.2811,5.08176-0.4372,7.60164-0.69664 c4.98199-0.51291,10.0083-0.49393,14.96069-1.3004c0.15677-0.02554,0.31924-0.03084,0.47833-0.02537 c4.95081,0.1703,9.87128-0.4456,14.81531-0.57257c21.72433-0.55788,43.45325-0.17983,65.17422-0.54116 c5.81421-0.0967,11.64206-0.39851,17.45654-0.27785c5.07803,0.1054,10.14917,0.66234,15.16864,1.52923 c2.74332,0.47378,5.46494,1.0432,8.12817,1.88083c4.45074,1.39984,7.26984,4.44264,8.87711,8.71645 c1.29742,3.44975,1.87967,7.07375,2.36865,10.69529c0.58423,4.32741,0.96432,8.68239,1.43216,13.02549 c0.00848,0.0793,0.01453,0.16007,0.00974,0.23943c-0.23145,3.83781,0.6138,7.62569,0.51971,11.4593 c-0.11365,4.62797,0.44208,9.23245,0.57925,13.85543c0.14609,4.92011,0.62207,9.84118,0.92398,14.76494 c0.31653,5.1616,0.65164,10.32232,0.96985,15.48421c0.39197,6.36015,0.67007,12.72076,0.9816,19.08243 c0.18716,3.8222,0.07919,7.66563,0.4696,11.45708c0.3367,3.27075,0.12296,6.54352,0.43979,9.78529 C410.54025,141.254,409.76227,150.52022,410.05948,157.47368z M384.14648,191.64796 c-0.29648-4.76007,0.12195-11.37315-0.33008-18.00676c-0.47577-6.98198-0.85876-13.99905-0.98343-20.99474 c-0.19196-10.77293-0.44992-21.54665-0.56363-32.32112c-0.06735-6.38276-0.80414-12.74345-0.53531-19.13286 c0.00668-0.15927,0.01022-0.32263-0.01614-0.47878c-0.86569-5.1293-0.3472-10.33153-0.82538-15.49506 c-0.32883-3.55086-0.83871-7.13125-0.60162-10.73051c0.01041-0.15749-0.00745-0.32146-0.04025-0.47646 c-0.69653-3.28757-0.53699-6.65227-0.81281-9.97485c-0.31635-3.81111-0.58429-7.60874-1.51767-11.32315 c-1.16373-4.63099-2.04309-9.36376-4.40115-13.60373c-2.47943-4.45813-5.41083-8.41866-10.43536-10.4114 c-3.10501-1.23145-6.3309-1.52643-9.56396-1.82606c-2.60986-0.2419-5.23642-0.20301-7.86456-0.43044 c-5.62399-0.48672-11.27853-0.7906-16.91837-0.97661c-9.40878-0.31026-18.82965-0.28823-28.24527-0.46107 c-9.8063-0.18003-19.63452-0.53996-29.4454,0.31816c-3.96347,0.34667-7.95215,0.1014-11.94409,0.40719 c-4.83363,0.37028-9.71463,0.46726-14.56967,0.52231c-4.87071,0.05523-9.74455,0.26257-14.56357,0.7102 c-4.12801,0.38347-8.26964,0.40478-12.38724,0.65438c-5.63664,0.34167-11.29405,0.92548-16.96596,0.65827 c-0.39821-0.01876-0.81471-0.05541-1.19583,0.03267c-3.84021,0.88759-7.77634,0.45624-11.66049,0.77237 c-5.54205,0.45108-11.11691,0.66615-16.67809,0.9883c-5.0054,0.28997-10.00815,0.53332-14.99896,1.03695 c-3.95403,0.39903-7.95268,0.47206-11.87094,1.08015c-5.1098,0.793-10.26161,1.12289-15.38419,1.75027 c-5.59692,0.6855-11.23119,1.22789-16.86313,1.4166c-4.86339,0.16295-9.67959,0.73962-14.51282,1.13379 c-2.21909,0.18098-4.44733,0.27161-6.66103,0.49588c-3.79062,0.38401-7.56116,0.98397-11.35614,1.30265 c-4.28236,0.35961-8.51775,1.02986-12.74155,1.7467c-4.38459,0.74412-8.74983,1.64182-13.07919,2.66072 c-4.34055,1.02157-8.63692,2.19296-12.62023,4.34637c-4.57847,2.47517-6.92396,6.54942-7.31181,11.37835 c-0.50895,6.33721-0.7594,12.71476-1.00089,19.07553c-0.40867,10.76408,0.26835,21.55049-0.50589,32.31773 c-0.17659,2.45576,0.18618,4.92458,0.33545,7.38688c0.37132,6.12582-0.1244,12.27346,0.49107,18.41605 c0.43594,4.3508,0.05367,8.74747,0.45636,13.13957c0.50864,5.5479-0.07977,11.15118,0.50621,16.73396 c0.43151,4.1109-0.02375,8.27025,0.45961,12.4216c0.43117,3.70332,0.23657,7.47095,0.46804,11.21638 c0.35823,5.79654,0.61193,11.60146,0.99943,17.40079c0.27589,4.12915,0.25895,8.27834,0.44806,12.41962 c0.29101,6.37263,0.65385,12.72195,2.07922,18.93961c0.93296,4.06978,2.578,7.84131,5.73304,10.83847 c3.57288,3.39412,7.99018,4.84323,12.61129,5.8893c2.63718,0.59697,5.3226,0.87891,8.02178,1.12471 c2.8446,0.25911,5.67192,0.82838,8.53523,0.78242c7.09752-0.11383,14.18827,0.06354,21.29742-0.31674 c7.78898-0.4167,15.60315-0.39815,23.39372-1.0363c3.56619-0.29213,7.17676-0.38695,10.73755-0.40834 c8.62234-0.05176,17.22397-0.69928,25.84682-0.63744c3.89771,0.02798,7.79237,0.13022,11.70663-0.36226 c4.24934-0.53453,8.55775-0.64424,12.83876-0.97685c5.23242-0.40652,10.48106-0.69963,15.72221-0.94696 c6.2029-0.2928,12.40082-0.71887,18.60091-0.95107c8.6078-0.32228,17.23004-0.17047,25.84753-0.48138 c4.46066-0.16093,8.91687-0.45775,13.36897-0.68481c5.24104-0.26733,10.47807-0.7836,15.72826-0.81445 c4.70828-0.02769,9.3822-0.7957,14.09644-0.53371c0.15891,0.00883,0.32507,0.01556,0.4783-0.01912 c4.15704-0.94138,8.42206-0.12599,12.61813-0.83597c2.64581-0.44768,5.39847-0.29759,8.09598-0.43102 c6.36102-0.31454,12.7182-0.68362,19.07803-1.01555c5.16611-0.26961,10.32346-0.5733,15.48343-0.95128 c5.55228-0.40669,11.12146-0.60901,16.68057-0.98204c3.61145-0.2424,7.10144-0.85437,10.50305-2.03696 c3.51096-1.22058,6.74512-2.96745,9.29251-5.6982c4.04608-4.33751,6.78192-9.40384,8.05963-15.24384 c0.85403-3.90323,1.12985-7.87567,1.29742-11.83014C384.31451,204.05908,384.14648,198.77666,384.14648,191.64796z M290.48126,37.84399c6.10089,0,10.17755,0.05493,14.25229-0.01107c9.42056-0.15256,18.82651,0.44721,28.23923,0.62913 c5.69022,0.10999,11.44009,0.3407,17.11401,1.23263c1.63763,0.25744,3.34064,0.40905,4.97568,0.43928 c3.03357,0.05607,4.73849,1.88593,6.05505,4.06027c1.90109,3.13972,3.23676,6.56599,3.87003,10.23245 c0.21552,1.2475,0.74554,2.44315,0.93439,3.69235c0.55859,3.69564,0.95621,7.41043,0.98889,11.15682 c0.03198,3.66208,0.4068,7.29869,0.85495,10.93009c0.09738,0.78885,0.08359,1.5957,0.06924,2.39333 c-0.07874,4.38781,0.29477,8.74252,0.9158,13.08082c0.03381,0.2361,0.0444,0.47887,0.03513,0.71732 c-0.25879,6.62796,0.32706,13.24033,0.61057,19.84576c0.43866,10.21787,0.09265,20.43604,0.48694,30.63942 c0.15063,3.89864,0.13095,7.81158,0.42157,11.69922c0.55856,7.472,0.59085,14.96638,1.03339,22.43196 c0.43085,7.26927,0.42175,14.52736,0.22989,21.77164c-0.14035,5.29747-0.03775,10.6687-1.29004,15.90408 c-1.67001,6.98184-6.03232,11.82475-14.01309,12.49208c-5.07727,0.42451-10.1553,0.70406-15.23993,0.98495 c-5.00085,0.27626-9.99808,0.65942-15.00098,0.95779c-5.79965,0.34593-11.60266,0.62701-17.39807,0.98848 c-3.58459,0.2236-7.17288,0.1568-10.74121,0.43349c-6.11481,0.47408-12.24359,0.63359-18.35577,1.02164 c-3.66675,0.23288-7.33353,0.12343-10.9819,0.40831c-6.11435,0.47734-12.25543,0.47371-18.35774,0.98318 c-8.27203,0.69064-16.54582,0.9426-24.83669,0.90086c-5.90323-0.02975-11.79263,0.41501-17.69012,0.57735 c-6.19769,0.17061-12.3968,0.63023-18.59871,0.92387c-4.92125,0.23302-9.86153,0.47997-14.75711,0.97984 c-6.91582,0.70619-13.84306,0.61835-20.75661,0.97987c-6.70441,0.35056-13.4118,0.03024-20.08975,0.46902 c-3.66638,0.24091-7.33088,0.16498-10.98244,0.41916c-6.91369,0.4812-13.84684,0.5829-20.75391,1.0155 c-10.38,0.65004-20.75213,0.3891-31.12189,0.2859c-4.57626-0.04552-9.18323-0.69287-13.65947-1.92525 c-3.20364-0.88205-5.33055-2.72331-6.03228-6.06412c-0.7851-3.73784-1.35225-7.4897-1.57029-11.31837 c-0.25389-4.45862-0.24876-8.92923-0.5547-13.37122c-0.2084-3.02588-0.16681-6.05229-0.39772-9.06546 c-0.48079-6.27333-0.62796-12.56454-1.04786-18.83401c-0.22962-3.42824-0.09745-6.85637-0.39298-10.26357 c-0.53886-6.21277-0.16127-12.44936-0.55524-18.64743c-0.25345-3.98705-0.00449-7.99229-0.4516-11.93672 c-0.56981-5.02687-0.06935-10.05678-0.44635-15.05961c-0.88982-11.80862-0.54393-23.63425-0.28148-35.43374 c0.20052-9.01659,0.18264-18.0316,0.34647-27.04586c0.02759-1.5183,0.51521-2.96936,0.57275-4.49596 c0.04535-1.20336,0.94856-1.9253,2.04507-2.43169c2.55486-1.17988,5.28702-1.78227,7.99075-2.42326 c6.18444-1.46613,12.40896-2.73135,18.73152-3.50434c4.33621-0.53014,8.65501-1.12796,13.02134-1.44764 c5.85711-0.42881,11.67897-1.35227,17.53731-1.74549c2.77609-0.18634,5.53899-0.57872,8.33401-0.60226 c3.57709-0.03008,7.12864-0.54031,10.69055-0.81613c2.45696-0.19025,4.89861-0.54687,7.36907-0.66277 c3.40692-0.15985,6.80508-0.60195,10.19391-1.02761c4.09698-0.5146,8.1701-1.18151,12.31065-1.35452 c2.53256-0.10584,5.05278-0.50724,7.57837-0.77749c0.31671-0.03388,0.63445-0.12372,0.9482-0.10955 c4.15443,0.18741,8.29581-0.32764,12.40553-0.65528c3.88266-0.30956,7.82114,0.13614,11.6572-0.7666 c0.1528-0.03596,0.31892-0.02861,0.47809-0.02201c5.27045,0.21904,10.51889-0.38935,15.76677-0.63699 c4.35568-0.20553,8.76559,0.06828,13.09276-0.77405c0.54036-0.10519,1.11775-0.0613,1.67509-0.03175 c4.63451,0.24554,9.24277-0.36109,13.84833-0.62979c3.26315-0.19041,6.54475-0.05606,9.77904-0.41671 c4.38112-0.4885,8.78795-0.07349,13.13333-0.51672c3.75322-0.38281,7.50511-0.0606,11.22227-0.43325 C274.79126,37.37626,283.65527,38.1453,290.48126,37.84399z M165.57312,100.19916c0.28256,3.01875,0.60648,6.03431,0.83965,9.05688 c0.58986,7.64586,0.65004,15.31773,1.06549,22.97128c0.67549,12.44362,2.02841,24.82521,3.84232,37.15196 c0.82475,5.60484,1.78139,11.19318,2.81941,16.76268c0.60388,3.2402,2.17426,4.07858,5.3649,3.1837 c0.53278-0.14938,1.04602-0.39549,1.5396-0.65213c1.20352-0.62578,2.41612-1.24049,3.57968-1.93564 c11.86734-7.09074,23.22989-14.94147,34.46066-22.98558c9.86281-7.06433,19.30525-14.71989,29.68205-21.06062 c2.65636-1.62318,5.28714-3.28813,7.94281-4.9124c0.89655-0.54836,1.67938-1.17691,2.28802-2.06047 c1.55344-2.25517,1.21982-3.96942-1.22614-5.26907c-1.40469-0.74638-2.8828-1.38216-4.38072-1.92064 c-5.48051-1.97013-10.96188-3.94199-16.48178-5.79767c-14.21858-4.77997-28.44086-9.55314-42.26233-15.41055 c-8.30034-3.5176-16.56374-7.1171-24.96367-10.39857C166.46979,95.66704,164.88782,96.49753,165.57312,100.19916z" fill="#f5ee8c"/></g><g id="change2_1"><path d="M156.9791,327.79559c1.10458-5.45178,1.08607-10.50122-0.44284-15.40833 c0.84647-0.5347,1.58044-0.31232,2.271-0.29935c16.06464,0.30139,32.12782,0.05777,48.17867-0.50604 c11.89662-0.41791,23.80905-0.3782,35.6924-1.19705c2.15083-0.14822,4.31248-0.19293,6.46918-0.19424 c17.90402-0.01086,35.7876-0.75632,53.67371-1.4346c11.49866-0.4361,22.99863-0.88501,34.50882-0.83786 c3.92224,0.01605,7.82468-0.31802,11.73013-0.55707c11.01358-0.67413,22.05283-0.27896,33.0668-0.87814 c3.66986-0.19968,7.34256-0.35065,11.01468-0.50565c0.71585-0.03027,1.44553-0.04666,2.15067,0.05557 c1.0546,0.15292,1.66016,0.74695,1.81168,1.89154c0.45221,3.41684,0.608,6.84225,0.44138,10.28006 c-0.1022,2.10822-0.79935,2.85266-2.8754,3.11169c-1.42557,0.17789-2.8623,0.38016-4.29379,0.37817 c-8.24332-0.01147-16.43759,0.68497-24.61884,1.5997c-9.13507,1.02142-18.29684,1.586-27.4855,1.88449 c-12.37592,0.40201-24.72574,1.4798-37.12048,1.4498c-15.74255-0.03806-31.48514-0.05594-47.22774-0.06262 c-10.30818-0.00439-20.61674-0.13907-30.92445,0.10098c-2.47601,0.05771-4.95462,0.05087-7.4313,0.01758 c-3.27666-0.04407-6.54622-0.0686-9.8201,0.21542c-1.90436,0.16522-3.84132,0.17731-5.74852,0.04343 c-4.71516-0.33093-9.40465-0.11536-14.11993,0.11807c-8.53467,0.42252-17.08595,0.51059-25.63049,0.73114 C159.29776,327.81686,158.34549,327.79559,156.9791,327.79559z M144.0309,310.16135 c-2.87894-7.30966-9.96451-11.33871-16.83991-11.33377c-5.24432,0.00375-10.11499,1.45688-14.54195,4.19714 c-6.11732,3.78662-9.61816,9.18195-9.63316,16.57208c-0.00471,2.32458,0.11655,4.6344,0.60945,6.90726 c1.39876,6.4502,4.66058,11.4538,10.92377,14.19522c2.96165,1.29633,6.05233,1.89151,9.22597,2.39038 c9.1312,1.43521,17.39643-5.00278,20.14063-11.89774c1.31444-3.30252,2.09033-6.69846,2.04039-9.66348 C146.10005,317.19974,145.39096,313.61459,144.0309,310.16135z M78.8196,313.36942 c-12.28358,0.66147-24.59338,0.73456-36.863,1.68784c-3.42438,0.26602-6.85147,0.3988-10.29261,0.32489 c-2.9768-0.06387-3.33192,0.34869-3.82699,3.3663c-0.42868,2.61301-0.6839,5.26855-0.39352,7.87958 c0.5465,4.91425,0.80659,6.28552,6.38406,6.14035c8.3021-0.21609,16.60171-0.49008,24.90713-0.61075 c3.51005-0.05096,7.01865-0.22903,10.53566-0.21884c6.86762,0.01993,13.73874,0.01913,20.58801-0.63498 c1.70068-0.16241,1.73814-0.14566,1.39122-1.81754c-1.05545-5.0863-1.05927-10.1463,0.26693-15.18951 c0.07537-0.28659,0.00974-0.61026,0.00974-0.96326C87.25991,313.3335,83.02852,313.14279,78.8196,313.36942z M166.41277,109.25604 c0.58986,7.64586,0.65004,15.31773,1.06549,22.97128c0.67549,12.44362,2.02841,24.82521,3.84232,37.15196 c0.82475,5.60484,1.78139,11.19318,2.81941,16.76268c0.60388,3.2402,2.17426,4.07858,5.3649,3.1837 c0.53278-0.14938,1.04602-0.39549,1.5396-0.65213c1.20352-0.62578,2.41612-1.24049,3.57968-1.93564 c11.86734-7.09074,23.22989-14.94147,34.46066-22.98558c9.86281-7.06433,19.30525-14.71989,29.68205-21.06062 c2.65636-1.62318,5.28714-3.28813,7.94281-4.9124c0.89655-0.54836,1.67938-1.17691,2.28802-2.06047 c1.55344-2.25517,1.21982-3.96942-1.22614-5.26907c-1.40469-0.74638-2.8828-1.38216-4.38072-1.92064 c-5.48051-1.97013-10.96188-3.94199-16.48178-5.79767c-14.21858-4.77997-28.44086-9.55314-42.26233-15.41055 c-8.30034-3.5176-16.56374-7.1171-24.96367-10.39857c-3.21329-1.25528-4.79526-0.42479-4.11137,3.27697 C165.85568,103.21791,166.1796,106.23347,166.41277,109.25604z" fill="#b89c3d"/></g></svg>