<svg xmlns="http://www.w3.org/2000/svg" viewBox="0 0 32 32"><rect width="31.92" height="31.92" rx="2" style="fill:#3e2723"/><path d="M27.85,12.71a3.13,3.13,0,0,0-1.38-2.59L17.73,4.3a3.11,3.11,0,0,0-3.46,0L5.53,10.12a3.13,3.13,0,0,0-1.38,2.59v12.4a3.12,3.12,0,0,0,3.11,3.12H24.74a3.12,3.12,0,0,0,3.11-3.12Zm-1.24,0v12.4A1.88,1.88,0,0,1,24.74,27H7.26a1.88,1.88,0,0,1-1.87-1.87V12.71a1.88,1.88,0,0,1,.84-1.55L15,5.34a1.87,1.87,0,0,1,2.08,0l8.73,5.82a1.88,1.88,0,0,1,.84,1.55" style="fill:#f8f1e5;fill-rule:evenodd"/><path d="M21.59,16.11l-.06,0A.24.24,0,0,1,21.4,16a3.22,3.22,0,0,0-.65-.81.86.86,0,0,0-.36-.2.9.9,0,0,0-.4,0,1.21,1.21,0,0,0-.62,1c0,.16-.05.31-.07.46A4,4,0,0,1,19,17.53a1.6,1.6,0,0,1-.36.49,1.32,1.32,0,0,1-.87.39,1,1,0,0,1-.44-.11,1.73,1.73,0,0,1-.77-1.19l-.06-.23a1.86,1.86,0,0,0-.41-.74,1.68,1.68,0,0,0-.69-.49.9.9,0,0,0-.36-.05,1.06,1.06,0,0,0-.36.09,1.29,1.29,0,0,0-.3.22.89.89,0,0,0-.19.31,1.94,1.94,0,0,0-.07.33,1.2,1.2,0,0,1-.55,1,.7.7,0,0,1-.63,0,1.08,1.08,0,0,1-.4-.3,1.1,1.1,0,0,1-.25-.43,3,3,0,0,1-.13-.52,1.93,1.93,0,0,0-.17-.53.41.41,0,0,0-.31-.21s-.06,0-.07,0l-.06.14a1.24,1.24,0,0,1-.15.33,1.05,1.05,0,0,1-.39.27.84.84,0,0,1-.47.05l-.16,0V20H21.59Z" style="fill:#f8f1e5"/><path d="M16,13.33h0a4,4,0,0,0,2.09-2.67.93.93,0,0,0-.06-.52,1,1,0,0,0-.32-.4.82.82,0,0,0-.36-.15,1.07,1.07,0,0,0-.4,0,1.09,1.09,0,0,0-.68.45.3.3,0,0,1-.12.13.31.31,0,0,1-.34,0,.22.22,0,0,1-.12-.13,1.19,1.19,0,0,0-1-.48.8.8,0,0,0-.49.16,1,1,0,0,0-.32.4.93.93,0,0,0-.06.52A3.92,3.92,0,0,0,16,13.33Z" style="fill:#f8f1e5"/><path d="M10.9,15.65a.88.88,0,0,0,0-.15,1.37,1.37,0,0,1,.16-.32A.66.66,0,0,1,11.4,15a.62.62,0,0,1,.36,0,.9.9,0,0,1,.47.17,1,1,0,0,1,.35.36,2.43,2.43,0,0,1,.22.74,3,3,0,0,0,.11.43.61.61,0,0,0,.3.35.09.09,0,0,0,.1,0c.1-.05.14-.24.19-.52s.05-.28.08-.42a1.88,1.88,0,0,1,.24-.44,1.7,1.7,0,0,1,.37-.34,1.57,1.57,0,0,1,.45-.22,1.68,1.68,0,0,1,.5-.07,1.49,1.49,0,0,1,.47.07,2.53,2.53,0,0,1,.52.26,2.67,2.67,0,0,1,.44.38,2.25,2.25,0,0,1,.34.47,2.11,2.11,0,0,1,.22.54c0,.08.05.16.08.24.1.36.2.69.43.8a.32.32,0,0,0,.3,0,.92.92,0,0,0,.49-.46,3.52,3.52,0,0,0,.22-1c0-.17.05-.32.08-.5a1.78,1.78,0,0,1,1.06-1.46,1.44,1.44,0,0,1,1.36.31,2.22,2.22,0,0,1,.44.48v-1L10.4,14v1.66a.43.43,0,0,0,.22.06A.46.46,0,0,0,10.9,15.65Z" style="fill:#f8f1e5"/><path d="M23.69,23a4.12,4.12,0,0,0-.94-1,1.55,1.55,0,0,0-.59-.25,1.67,1.67,0,0,0-.63,0,1.53,1.53,0,0,0-1,1.18c0,.17-.07.35-.1.53a3.86,3.86,0,0,1-.39,1.32,2,2,0,0,1-.68.68,2,2,0,0,1-.92.28,1.4,1.4,0,0,1-.53-.11,2,2,0,0,1-1-1.34c0-.09-.06-.18-.1-.27a2.34,2.34,0,0,0-.62-.93,2.37,2.37,0,0,0-1-.54,1.65,1.65,0,0,0-1.89.71c0,.13-.07.25-.1.39a1.29,1.29,0,0,1-.71,1.11,1.32,1.32,0,0,1-1.61-.8,4.5,4.5,0,0,1-.17-.6,2.1,2.1,0,0,0-.23-.65.73.73,0,0,0-.54-.3.27.27,0,0,0-.23.07.81.81,0,0,0-.1.18,1,1,0,0,1-.21.38,1.46,1.46,0,0,1-1.09.33A1.91,1.91,0,0,1,8,23.37v4.42H24V23.18l-.14-.06A.31.31,0,0,1,23.69,23Z" style="fill:#f8f1e5"/><path d="M8,22.67a.87.87,0,0,0,.38.11A.79.79,0,0,0,9,22.67a.81.81,0,0,0,.1-.18,1,1,0,0,1,.21-.38.89.89,0,0,1,.35-.23.87.87,0,0,1,.42-.05,1.46,1.46,0,0,1,.58.18,1.36,1.36,0,0,1,.45.41,2.59,2.59,0,0,1,.33.85,2.75,2.75,0,0,0,.14.49c.13.3.5.57.77.46s.24-.25.32-.65a4.15,4.15,0,0,1,.11-.48,2.11,2.11,0,0,1,2-1.18,2.48,2.48,0,0,1,.61.07,2.94,2.94,0,0,1,.67.27,2.9,2.9,0,0,1,.58.41,3,3,0,0,1,.47.55,2.71,2.71,0,0,1,.33.63c0,.09.08.19.11.28.16.44.3.83.65,1a1.15,1.15,0,0,0,1.3-.57,3.56,3.56,0,0,0,.33-1.11c0-.19.06-.39.11-.58a2.06,2.06,0,0,1,1.4-1.64,2.32,2.32,0,0,1,.91,0,2.38,2.38,0,0,1,.84.35,3.8,3.8,0,0,1,.85.8v-1.5L8,20.69Z" style="fill:#f8f1e5"/></svg>