<svg xmlns="http://www.w3.org/2000/svg" viewBox="0 0 154.09 32"><path d="M29.58,12.44a3.38,3.38,0,0,0-1.51-2.82L18.6,3.31a3.37,3.37,0,0,0-3.75,0L5.37,9.62a3.39,3.39,0,0,0-1.5,2.82V25.88a3.36,3.36,0,0,0,3.38,3.38h19a3.38,3.38,0,0,0,3.38-3.38Zm-1.35,0V25.88a2,2,0,0,1-.6,1.43,2,2,0,0,1-1.43.6H7.25a2.06,2.06,0,0,1-1.44-.6,2,2,0,0,1-.59-1.43V12.44a2,2,0,0,1,.9-1.69L15.6,4.43a2,2,0,0,1,2.25,0c2.44,1.63,7.24,4.82,9.47,6.32a2,2,0,0,1,.91,1.69" style="fill:#e84b51;fill-rule:evenodd"/><path d="M22.79,16.12l-.07,0a.33.33,0,0,1-.14-.12,3.62,3.62,0,0,0-.71-.89.82.82,0,0,0-.38-.2.94.94,0,0,0-.44,0c-.31.1-.56.5-.67,1.06,0,.16-.06.33-.08.5A4,4,0,0,1,20,17.66a1.69,1.69,0,0,1-.94.88,1.23,1.23,0,0,1-.39.07,1.12,1.12,0,0,1-.47-.11,1.87,1.87,0,0,1-.83-1.3L17.28,17a1.91,1.91,0,0,0-.44-.8,1.75,1.75,0,0,0-.75-.53.86.86,0,0,0-.39,0,.87.87,0,0,0-.39.1.9.9,0,0,0-.32.23,1.08,1.08,0,0,0-.21.34c0,.12-.06.23-.08.35a1.29,1.29,0,0,1-.59,1.09.83.83,0,0,1-.69,0,1.27,1.27,0,0,1-.43-.33,1.42,1.42,0,0,1-.27-.48,3.53,3.53,0,0,1-.14-.56,2.25,2.25,0,0,0-.19-.57.4.4,0,0,0-.33-.23c-.05,0-.07,0-.07,0a.77.77,0,0,0-.07.16,1.14,1.14,0,0,1-.17.35.91.91,0,0,1-.42.3,1.09,1.09,0,0,1-.51.06l-.17,0v4H22.79Z" style="fill:#e84b51"/><path d="M16.7,13.11h0A4.27,4.27,0,0,0,19,10.2a1,1,0,0,0-.07-.55,1,1,0,0,0-.34-.44.83.83,0,0,0-.4-.16.86.86,0,0,0-.42,0,1.18,1.18,0,0,0-.74.49.29.29,0,0,1-.13.14.33.33,0,0,1-.19.06.3.3,0,0,1-.18-.06.25.25,0,0,1-.13-.14,1.21,1.21,0,0,0-.75-.49,1.27,1.27,0,0,0-.28,0,.8.8,0,0,0-.53.17,1,1,0,0,0-.35.44,1,1,0,0,0-.07.55A4.3,4.3,0,0,0,16.7,13.11Z" style="fill:#e84b51"/><path d="M11.19,15.62l.06-.16a1.14,1.14,0,0,1,.17-.35.76.76,0,0,1,.31-.25.89.89,0,0,1,.39-.06,1.1,1.1,0,0,1,.52.19,1.15,1.15,0,0,1,.37.39,2.62,2.62,0,0,1,.25.81,2.56,2.56,0,0,0,.11.46.61.61,0,0,0,.32.38.11.11,0,0,0,.11,0c.12-.06.16-.26.21-.56A3.4,3.4,0,0,1,14.1,16a1.66,1.66,0,0,1,.26-.47,2.05,2.05,0,0,1,.4-.38,1.69,1.69,0,0,1,.49-.23,1.64,1.64,0,0,1,.54-.08,1.81,1.81,0,0,1,.51.08,2.26,2.26,0,0,1,.56.28,2.37,2.37,0,0,1,.48.41,3,3,0,0,1,.37.51,3,3,0,0,1,.24.59A2,2,0,0,1,18,17c.12.38.23.75.47.87a.44.44,0,0,0,.32,0,1,1,0,0,0,.54-.51,3.66,3.66,0,0,0,.24-1c0-.18,0-.35.09-.54a1.91,1.91,0,0,1,1.14-1.58,1.59,1.59,0,0,1,.78,0,1.55,1.55,0,0,1,.7.35,3,3,0,0,1,.48.52V13.94l-12.14-.12v1.8a.5.5,0,0,0,.24.06A.41.41,0,0,0,11.19,15.62Z" style="fill:#e84b51"/><path d="M25.07,23.62a4.67,4.67,0,0,0-1-1.06,1.9,1.9,0,0,0-.64-.27,1.61,1.61,0,0,0-.69,0,1.64,1.64,0,0,0-1,1.27,5.4,5.4,0,0,0-.11.58,4,4,0,0,1-.43,1.43,2.07,2.07,0,0,1-.73.74,2.2,2.2,0,0,1-1,.3,1.42,1.42,0,0,1-.57-.12,2.17,2.17,0,0,1-1.11-1.46l-.1-.28a2.6,2.6,0,0,0-1.75-1.6,1.77,1.77,0,0,0-2,.77,3.2,3.2,0,0,0-.1.42A1.43,1.43,0,0,1,13,25.57a1.43,1.43,0,0,1-1.74-.87,3.72,3.72,0,0,1-.19-.65,2.23,2.23,0,0,0-.25-.71.8.8,0,0,0-.58-.32.31.31,0,0,0-.26.08.69.69,0,0,0-.1.19,1.27,1.27,0,0,1-.23.41,1.58,1.58,0,0,1-1.19.35A2.14,2.14,0,0,1,8.08,24v4.79H25.36v-5l-.15-.06A.38.38,0,0,1,25.07,23.62Z" style="fill:#e84b51"/><path d="M8.08,23.24a.88.88,0,0,0,.42.11.8.8,0,0,0,.6-.12A.5.5,0,0,0,9.2,23a1.18,1.18,0,0,1,.23-.41,1,1,0,0,1,.39-.26,1,1,0,0,1,.45-.05,1.51,1.51,0,0,1,.63.2,1.48,1.48,0,0,1,.49.44,2.83,2.83,0,0,1,.35.93,3.24,3.24,0,0,0,.16.53c.13.32.53.61.83.49s.26-.27.35-.7a4.37,4.37,0,0,1,.12-.52,2.3,2.3,0,0,1,2.21-1.29,2.39,2.39,0,0,1,.66.09,2.72,2.72,0,0,1,.73.29,3,3,0,0,1,.63.45,3.23,3.23,0,0,1,.51.59,2.83,2.83,0,0,1,.36.69,2.65,2.65,0,0,1,.11.3c.18.48.33.89.71,1.06a1.24,1.24,0,0,0,1.41-.62,3.38,3.38,0,0,0,.35-1.2c0-.21.07-.42.12-.63a2.27,2.27,0,0,1,1.53-1.78,2.31,2.31,0,0,1,1,0,2.35,2.35,0,0,1,.91.38,4,4,0,0,1,.93.87V21.23L8.07,21.08Z" style="fill:#e84b51"/><path d="M49.38,21.41a6.53,6.53,0,0,1-2.68,2.36,8.87,8.87,0,0,1-4,.84,8.76,8.76,0,0,1-4.36-1,7,7,0,0,1-2.85-3,10,10,0,0,1-1-4.61,9.85,9.85,0,0,1,1-4.6,6.88,6.88,0,0,1,2.85-3,8.86,8.86,0,0,1,4.36-1,9.08,9.08,0,0,1,4,.83A6.61,6.61,0,0,1,49.4,10.6a7.43,7.43,0,0,1,1.13,3.59H46.84a4.5,4.5,0,0,0-1.3-2.88,4.29,4.29,0,0,0-6.1.44A6.73,6.73,0,0,0,38.25,16a6.74,6.74,0,0,0,1.2,4.24,3.91,3.91,0,0,0,3.27,1.54,3.83,3.83,0,0,0,2.83-1.07,4.52,4.52,0,0,0,1.29-2.86h3.67A7.46,7.46,0,0,1,49.38,21.41Z" style="fill:#e84b51"/><path d="M63.55,24.23l-1.39-3.88H55.43l-1.36,3.88H50.35L56.56,7.77H61l6.4,16.46Zm-2.38-6.65-1-2.78c-.48-1.4-.93-2.77-1.34-4.12h-.16q-.52,1.85-1.32,4.14l-1,2.76Z" style="fill:#e84b51"/><path d="M79.72,15.48a5.78,5.78,0,0,1,1.57,2.57l2.26,6.18H79.86l-1.86-5a3.3,3.3,0,0,0-.91-1.5,2.57,2.57,0,0,0-1.58-.39H74.38l-2.26,2.45v4.42H68.5V7.77h3.62L72,15.43l.17.05q1.31-1.74,3.38-4l3.34-3.69H83.2l-3.72,4.06c-.84.93-1.71,1.84-2.58,2.74l0,.13h.17A4,4,0,0,1,79.72,15.48Z" style="fill:#e84b51"/><path d="M97.53,10.59H88.59v3.79h8v2.75h-8v4.28h8.89v2.82H85V7.77H97.53Z" style="fill:#e84b51"/><path d="M116.4,24.23,115,20.35h-6.73l-1.36,3.88h-3.72l6.21-16.46h4.42l6.4,16.46ZM114,17.58l-1-2.78c-.49-1.4-.93-2.77-1.34-4.12h-.16q-.53,1.85-1.32,4.14l-1,2.76Z" style="fill:#e84b51"/><path d="M134.85,13.18a5,5,0,0,1-3,4.74,7.57,7.57,0,0,1-3.21.64H125v5.67h-3.62V7.77h7.43a6.63,6.63,0,0,1,4.4,1.39A5,5,0,0,1,134.85,13.18Zm-4.51,2.16a2.41,2.41,0,0,0,.87-2,2.44,2.44,0,0,0-.87-2.05,3.71,3.71,0,0,0-2.33-.68h-3V16h3A3.65,3.65,0,0,0,130.34,15.34Z" style="fill:#e84b51"/><path d="M150.22,13.18a5,5,0,0,1-3,4.74,7.57,7.57,0,0,1-3.21.64h-3.67v5.67h-3.62V7.77h7.43a6.63,6.63,0,0,1,4.4,1.39A5,5,0,0,1,150.22,13.18Zm-4.51,2.16a2.41,2.41,0,0,0,.87-2,2.44,2.44,0,0,0-.87-2.05,3.71,3.71,0,0,0-2.33-.68h-3V16h3A3.65,3.65,0,0,0,145.71,15.34Z" style="fill:#e84b51"/></svg>