<?xml version="1.0" encoding="UTF-8"?>
<!DOCTYPE svg PUBLIC "-//W3C//DTD SVG 1.1//EN" "http://www.w3.org/Graphics/SVG/1.1/DTD/svg11.dtd">
<!-- Creator: CorelDRAW X7 -->
<svg xmlns="http://www.w3.org/2000/svg" xml:space="preserve" width="667px" height="572px" version="1.1" style="shape-rendering:geometricPrecision; text-rendering:geometricPrecision; image-rendering:optimizeQuality; fill-rule:evenodd; clip-rule:evenodd"
viewBox="0 0 696 597"
 xmlns:xlink="http://www.w3.org/1999/xlink">
 <defs>
  <style type="text/css">
   <![CDATA[
    .fil0 {fill:#E4D064}
   ]]>
  </style>
 </defs>
 <g id="Layer_x0020_1">
  <metadata id="CorelCorpID_0Corel-Layer"/>
  <g id="_2305409172800">
   <path class="fil0" d="M30 425c-10,-26 -30,-59 -30,-59 63,16 152,29 251,35 195,12 354,-8 357,-45 0,-7 -4,-13 -12,-19 28,7 51,15 67,23 11,5 32,19 33,41l0 159c-1,16 -6,35 -21,35 -16,0 -22,-20 -24,-35 -5,-31 -14,-62 -26,-92l0 0c-9,-21 -40,-19 -45,4 -2,9 -4,19 -5,30 -1,12 -1,25 -10,35 -4,5 -10,7 -16,6 -13,-2 -17,-16 -16,-28 1,-11 4,-22 0,-32 -7,-18 -29,-23 -48,-24 -18,-1 -38,-1 -53,9 -17,12 -24,35 -32,55 -13,37 -44,77 -83,73 -28,-2 -50,-25 -63,-49 -12,-25 -19,-53 -32,-77 -10,-20 -30,-39 -52,-35 -16,3 -27,17 -34,32 -6,15 -9,31 -15,46 -6,15 -17,28 -30,38 -6,4 -13,8 -20,8 -11,0 -20,-10 -23,-20 -4,-10 -3,-21 -4,-32 0,-3 0,-7 0,-10l0 0c-1,-27 -7,-52 -14,-72z"/>
   <path class="fil0" d="M99 199c-8,-20 -23,-45 -23,-45 47,13 113,23 187,27 145,9 263,-6 265,-34 0,-5 -3,-9 -8,-14 20,6 37,11 49,17 8,4 24,15 25,31 0,38 0,77 0,115 0,13 -4,29 -16,29 -12,0 -16,-15 -18,-26 -4,-23 -10,-46 -19,-68l0 -1c-6,-15 -30,-13 -34,3 -1,8 -2,15 -3,22 -1,10 -1,20 -8,27 -3,3 -7,5 -12,4 -10,-1 -12,-12 -12,-21 1,-8 3,-16 0,-24 -4,-13 -21,-16 -35,-17 -14,-1 -28,-1 -39,7 -14,9 -18,25 -24,40 -10,28 -33,58 -62,55 -21,-2 -37,-19 -47,-37 -9,-18 -14,-39 -24,-57 -7,-15 -22,-29 -38,-26 -12,2 -21,13 -25,24 -5,11 -7,23 -12,34 -5,11 -12,21 -22,28 -4,4 -10,7 -15,6 -8,0 -15,-7 -17,-15 -3,-7 -2,-15 -3,-23 0,-3 0,-5 0,-8l0 0c-1,-20 -5,-38 -10,-53z"/>
   <path class="fil0" d="M497 46c-1,-24 -26,-30 -26,-30 -8,-3 -17,-5 -29,-7 -56,-12 -113,-10 -158,-5l-1 0c-45,3 -81,11 -96,21 0,0 0,0 0,1l-1 0c-3,2 -13,11 -13,22l0 57c0,5 1,10 4,15 5,6 12,9 17,-20 1,-6 7,-10 13,-9 23,7 78,19 128,17 10,-1 18,6 20,16 0,6 -2,37 11,32 6,-2 4,-27 5,-33 1,-18 20,-35 36,-19 1,1 1,1 1,2 11,12 18,-11 25,-5 1,1 2,3 2,5l7 29c1,3 5,3 6,0 3,-13 6,-26 9,-39 3,-11 9,-20 19,-27 5,-4 14,0 15,7l3 18c0,3 4,2 4,0l0 -46c0,0 0,-1 -1,-2z"/>
  </g>
 </g>
</svg>
